<svg xmlns="http://www.w3.org/2000/svg" width="16" height="16" viewBox="0 0 16 16"><defs><style>.cls-1{opacity:0;}.cls-2{fill:#e04c59;}.cls-3,.cls-4{fill:none;stroke:#445d82;stroke-linecap:round;stroke-linejoin:round;}.cls-3{stroke-width:2px;}</style></defs><g id="_16_Agreement" data-name="16_Agreement"><g id="Container" class="cls-1"><rect class="cls-2" width="16" height="16"/></g><path class="cls-3" d="M5.91,15c-.74.09-1.88-.57-2.13-2.18-.39-2.58.79-4.27.67-7.77C4.39,3.44,3.26,1.9,1.65,2.54c-1.29.51-.44,3.57.85,3.22"/><path class="cls-4" d="M6.11,11.78a1.42,1.42,0,0,1,.36,2.67"/><path class="cls-3" d="M13,6.8a21,21,0,0,0-.38,3.46"/><path class="cls-3" d="M1.65,2.54a43,43,0,0,1,7.84-1.4"/><path class="cls-3" d="M14.49,13.69A61.75,61.75,0,0,1,6,15"/><path class="cls-4" d="M14.44,10.61c.79.05,1.65,2.21.5,3.33"/><path class="cls-4" d="M6.11,11.78c.53-.15,7.88-1.25,8.28-1.17"/><path class="cls-3" d="M2.5,5.76a5.54,5.54,0,0,1,1.94-.45"/><path class="cls-4" d="M7,4.89c.37-.08,3.45-.33,3.92-.39"/><path class="cls-4" d="M7,7.23c.56-.1,2.87-.33,3.19-.38"/><polygon class="cls-3" points="13.54 1.01 13.02 1.96 12.07 2.48 13.02 2.99 13.54 3.94 14.05 2.99 15 2.48 14.05 1.96 13.54 1.01"/></g></svg>