<svg xmlns="http://www.w3.org/2000/svg" width="16" height="16" viewBox="0 0 16 16"><defs><style>.cls-1{fill:#e04c59;opacity:0;}.cls-2,.cls-3,.cls-4{fill:none;stroke:#445d82;}.cls-2,.cls-4{stroke-linecap:round;stroke-linejoin:round;}.cls-3{stroke-miterlimit:10;}.cls-3,.cls-4{stroke-width:2px;}</style></defs><g id="_16_Archive" data-name="16_Archive"><rect id="Container" class="cls-1" width="16" height="16"/><rect id="Container-2" data-name="Container" class="cls-1" width="16" height="16"/><path class="cls-2" d="M14,7c-.13-.89-1.09-1.41-2.81-1.48A1.71,1.71,0,0,1,9.53,3.85C9.44,2.06,9.4,1,8.49,1"/><path class="cls-3" d="M2.08,12.28A2.63,2.63,0,0,0,4.84,15C6,15,10,15,11.19,15s2.61-.23,2.71-1.91c.15-2.3.1-5.5,0-6.85a3.19,3.19,0,0,0-.8-1.93,19.16,19.16,0,0,0-2.53-2.48A3.41,3.41,0,0,0,8.66,1C8,1,5.61,1,4.37,1s-2.22.67-2.29,2.7C2,5,2,10.06,2.08,12.28Z"/><line class="cls-2" x1="6.51" y1="1" x2="6.51" y2="8.78"/><path class="cls-4" d="M6.51,9.28c0,1.17.52,1.56.52,2.23s-1,.67-1,0,.51-1.07.51-2.23"/><line class="cls-2" x1="4.67" y1="4.52" x2="6" y2="4.52"/><line class="cls-2" x1="4.67" y1="6.51" x2="6" y2="6.51"/><line class="cls-2" x1="6.57" y1="5.49" x2="8.23" y2="5.49"/></g></svg>