<svg xmlns="http://www.w3.org/2000/svg" width="16" height="16" viewBox="0 0 16 16"><defs><style>.cls-1{fill:#d93644;fill-opacity:0;}.cls-2,.cls-3,.cls-4{fill:none;stroke:#445d82;stroke-width:2px;}.cls-2,.cls-3{stroke-linecap:round;}.cls-2{stroke-linejoin:round;}.cls-3,.cls-4{stroke-miterlimit:10;fill-rule:evenodd;}</style></defs><g id="_16_Add_User" data-name="16_Add_User"><rect id="Container" class="cls-1" width="16" height="16"/><path class="cls-2" d="M13,10c0,.28,0,3.68,0,4"/><path class="cls-2" d="M15,12c-.53,0-3.68,0-4,0"/><path class="cls-3" d="M9,15c-1,0-2,0-2.92,0C3.32,14.85,1,14.48,1,13.86c0-3.33,5.27-2.07,5.27-6.31"/><path class="cls-4" d="M8,8c1.43,0,3-1.28,3-4A2.68,2.68,0,0,0,8,1,2.68,2.68,0,0,0,5,4C5,6.72,6.57,8,8,8Z"/></g></svg>