<svg xmlns="http://www.w3.org/2000/svg" width="16" height="16" viewBox="0 0 16 16"><defs><style>.cls-1{fill:#e04c59;opacity:0;}.cls-2,.cls-3{fill:none;stroke:#445d82;stroke-linecap:round;stroke-linejoin:round;}.cls-3{stroke-width:2px;}.cls-4{fill:#445d82;}</style></defs><g id="_16_Add_Message" data-name="16_Add Message"><rect id="Container" class="cls-1" x="0.36" y="0.36" width="15.28" height="15.28"/><line class="cls-2" x1="11.82" y1="10.55" x2="11.82" y2="13.09"/><line class="cls-2" x1="13.09" y1="11.82" x2="10.55" y2="11.82"/><circle class="cls-3" cx="11.82" cy="11.82" r="3.18"/><path class="cls-3" d="M6,12.34c-.4,0-.43,2-1.17,2s-.66-1.06-1.27-1.68-.31-.35-1-.61c-.89-.35-1.21-1.15-1.41-2.44S.67,3.18,2,2.31c1.53-1,8.83-.66,10.2-.44A2.94,2.94,0,0,1,15,4.62c0,.36,0,3.69,0,1.27"/><path class="cls-4" d="M12.35,6.59c.07-.63-.28-1-1-1-1.2-.07-1,1.19-1,1.23A3.47,3.47,0,0,1,12.35,6.59Z"/><path class="cls-3" d="M4.75,7.28c.49-.44-.11-.82-.36-.59C3.88,7.16,4.57,7.44,4.75,7.28Z"/><path class="cls-3" d="M8.32,7.06c.16-.64-.56-.61-.63-.28C7.54,7.46,8.26,7.3,8.32,7.06Z"/></g></svg>