<svg xmlns="http://www.w3.org/2000/svg" width="16" height="16" viewBox="0 0 16 16"><defs><style>.cls-1{fill:#d93644;fill-opacity:0;}.cls-2,.cls-3{fill:none;stroke:#445d82;stroke-linecap:round;stroke-linejoin:round;}.cls-3{stroke-width:2px;}</style></defs><g id="_16_Announcement" data-name="16_Announcement"><rect id="Container" class="cls-1" width="16" height="16"/><path class="cls-2" d="M12.88,12.08a4,4,0,0,1-1.87-3"/><path class="cls-3" d="M10.11,2.94C10.55,1.31,11.52,1,11.7,1s2.5.91,3.16,6-1.24,5.65-1.54,5.65a1.64,1.64,0,0,1-1-.26"/><path class="cls-2" d="M10.51,6.32a9.35,9.35,0,0,1,.12-3.38"/><path class="cls-3" d="M12.22,12.29c-.82-.76-4.8-1.5-5.12-1S6.82,13.81,6.49,14a4.05,4.05,0,0,1-2-.47c-.51-.58-.57-2.79-.69-2.82s-1.27-.19-1.58-.25-.84,0-1.08-1.49a3.53,3.53,0,0,1,.45-2.72c.26-.29,6.73-1.77,8.58-3.63"/></g></svg>