<svg xmlns="http://www.w3.org/2000/svg" width="16" height="16" viewBox="0 0 16 16"><defs><style>.cls-1{fill:#d93644;fill-opacity:0;}.cls-2,.cls-3{fill:none;stroke:#445d82;stroke-linecap:round;stroke-linejoin:round;}.cls-2{stroke-width:2px;}</style></defs><g id="_24_Alert" data-name="24_Alert"><rect id="Container" class="cls-1" width="16" height="16"/><path class="cls-2" d="M11.36,3.74S13.89.2,14.84,1.17s-2.56,3.48-2.56,3.48"/><path class="cls-2" d="M9.23,14a3.8,3.8,0,0,1,1.24-2.74c5.2-6.12-1-10.4-5.76-5.71a4.58,4.58,0,0,1-3,1.14"/><path class="cls-2" d="M9.2,13.94a.88.88,0,0,1-.1.92c-.42.4-2.4,0-3.85-1.13"/><path class="cls-3" d="M1.87,7.21C3.51,6.69,9,12.64,8.67,14"/><path class="cls-2" d="M1,7.94a1.44,1.44,0,0,1,.3-1.14.72.72,0,0,1,.45-.1"/><path class="cls-2" d="M4,11.26l-.37.37c-1.52,1.21-2.48-1-.86-1.48"/></g></svg>