<svg id="Layer_1" data-name="Layer 1" xmlns="http://www.w3.org/2000/svg" width="16" height="16"><defs><style>.cls-1{fill:#0089d9;fill-rule:evenodd}</style></defs><g id="Add_Comment" data-name="Add Comment"><path class="cls-1" d="M6 7V5H4v2zm6-2h-2v2h2V6zm0-5H4a4 4 0 0 0-4 4v4a4 4 0 0 0 4 4c.7 0 1 2.7 1 4h1a4.79 4.79 0 0 1 3.1-3.9 3.54 3.54 0 0 1 .4-1.1H9a3.2 3.2 0 0 0-3 2 1.8 1.8 0 0 0-1.57-2A1.55 1.55 0 0 0 4 11a2.9 2.9 0 0 1-3-2.8V4a2.9 2.9 0 0 1 2.8-3H12a2.9 2.9 0 0 1 3 2.8V8a3.39 3.39 0 0 1-.3 1.4l.8.5A4.08 4.08 0 0 0 16 8V4a4 4 0 0 0-4-4zM9 7V5H7v2z"/><path class="cls-1" d="M12 10h2v6h-2z"/><path class="cls-1" d="M10 12h6v2h-6z"/></g></svg>