<svg data-name="Layer 3" xmlns="http://www.w3.org/2000/svg" width="16" height="16"><path d="M7.4 1.5a1.58 1.58 0 0 0-1.6 1.6v.5H4.7v-.5A2.69 2.69 0 0 1 7.4.4h1.1a2.69 2.69 0 0 1 2.7 2.7v.5h-1.1v-.5a1.58 1.58 0 0 0-1.6-1.6zM1.6 4.1A1.58 1.58 0 0 0 0 5.7v4.2a1.19 1.19 0 0 0 .5.9v3.3a1.58 1.58 0 0 0 1.6 1.6h11.7a1.58 1.58 0 0 0 1.6-1.6v-3.3a.81.81 0 0 0 .5-.9V5.7a1.58 1.58 0 0 0-1.6-1.6zm4.8 5.8V8.8a.47.47 0 0 0-.5-.5h-.5V5.6H4.3v2.7h-.5a.47.47 0 0 0-.5.5v1.1H1.2V5.7a.47.47 0 0 1 .5-.5h12.7a.47.47 0 0 1 .5.5v4.2h-2.1V8.8a.47.47 0 0 0-.5-.5h-.5V5.6h-1.1v2.7h-.5a.47.47 0 0 0-.5.5v1.1zm-4.3 4.8a.47.47 0 0 1-.5-.5v-3.7h1.6a1.47 1.47 0 0 0 1.6 1.6 1.47 1.47 0 0 0 1.6-1.6h3.2a1.47 1.47 0 0 0 1.6 1.6 1.47 1.47 0 0 0 1.6-1.6h1.6v3.7a.47.47 0 0 1-.5.5zm2.1-4.2V9.4h1.1v1.1a.47.47 0 0 1-.5.5.56.56 0 0 1-.6-.5zm6.9.5a.47.47 0 0 1-.5-.5V9.4h1.1v1.1c0 .3-.2.5-.6.5z" fill="#0089d9"/></svg>