<svg xmlns="http://www.w3.org/2000/svg" width="16" height="16" viewBox="0 0 16 16"><defs><style>.cls-1{fill:#d93644;fill-opacity:0;}.cls-2,.cls-3{fill:none;stroke:#445d82;stroke-linecap:round;stroke-linejoin:round;}.cls-2{stroke-width:2px;}</style></defs><g id="_16_Cut" data-name="16_Cut"><rect id="Container" class="cls-1" width="16" height="16"/><path class="cls-2" d="M1.46,11.92c-1.54,2.17,1.16,4.35,2.65,2.18S3,9.78,1.46,11.92Z"/><path class="cls-2" d="M4.14,14A10.4,10.4,0,0,1,8.81,9.53C13.92,6.23,13.07.71,12.64,1A33.81,33.81,0,0,0,6.2,6.8c-.67.83.73,3.35-1.63,6.17"/><path class="cls-3" d="M8.47,7.41c0,.08.1.08.1,0S8.47,7.34,8.47,7.41Z"/><path class="cls-2" d="M14.5,11.89C16.09,14,13.36,16.35,11.86,14S12.92,9.79,14.5,11.89Z"/><path class="cls-2" d="M10,8.78a6.78,6.78,0,0,0,.15,2.43A5.13,5.13,0,0,0,11.44,13"/><path class="cls-2" d="M3.12,6.46C1,4.37,2.52.77,2.87,1A40.23,40.23,0,0,1,7.28,4.86"/><path class="cls-2" d="M11.86,14A9.72,9.72,0,0,0,9.61,11.3a13.41,13.41,0,0,0-1.45-1"/></g></svg>