<svg xmlns="http://www.w3.org/2000/svg" width="16" height="16" viewBox="0 0 16 16"><defs><style>.cls-1{fill:#d93644;fill-opacity:0;}.cls-2,.cls-3{fill:none;stroke:#445d82;stroke-linecap:round;stroke-linejoin:round;}.cls-2{stroke-width:2px;}</style></defs><g id="_16_Comment_chat" data-name="16_Comment chat"><rect id="Container" class="cls-1" x="0.02" width="15.98" height="15.98"/><path class="cls-2" d="M1.86,1.62C3,.83,8.69,1.1,9.75,1.27a2.3,2.3,0,0,1,2.14,2.16,22,22,0,0,1-.19,4.19,2,2,0,0,1-2,1.92,26,26,0,0,0-3.27.22c-.4.15-.94,1.33-1.35,1.33-.63,0-.71-.83-1.18-1.32s-1-.39-1.55-.59c-.69-.28-.93-.9-1.09-1.92S.84,2.3,1.86,1.62Z"/><path class="cls-3" d="M6.28,5.18c-.25.46.3.58.42.35C7,5,6.37,5,6.28,5.18Z"/><path class="cls-3" d="M3.68,5.18c-.24.46.31.58.42.35C4.35,5,3.78,5,3.68,5.18Z"/><path class="cls-3" d="M8.88,5.18c-.25.46.3.58.42.35C9.55,5,9,5,8.88,5.18Z"/><path class="cls-2" d="M8.81,12.9a1.16,1.16,0,0,0,1,1.3,15.57,15.57,0,0,1,1.93.13c.23.08.65.67.89.67s.42-.32.69-.6.67-.15,1-.27.5-.76.59-1.35.23-2.87-.37-3.26"/></g></svg>