<svg xmlns="http://www.w3.org/2000/svg" width="16" height="16" viewBox="0 0 16 16"><defs><style>.cls-1{fill:#e04c59;opacity:0;}.cls-2,.cls-3{fill:none;stroke:#445d82;stroke-linecap:round;stroke-linejoin:round;}.cls-2{stroke-width:2px;}</style></defs><g id="_16_Change_Owner" data-name="16_Change Owner"><rect id="Container" class="cls-1" width="16" height="16"/><path class="cls-2" d="M11.9,11.53a4.53,4.53,0,0,0,1.17-.39c1.13-.47,2.49.58,1.68,1.16S13,13.68,12.3,14.19A8.4,8.4,0,0,1,8.64,15c-1.51,0-3.5-1.28-6.55-1.28-1.24,0-1.32-1.89-.73-2.12C3,11,9.58,10.94,10.5,11s.95.57.08,1"/><path class="cls-3" d="M2.51,7.37c.12-.83.56-1.26,2.18-1.39,1.25-.11,1.71-.58,1.8-1.82C6.61,2.48,7,2,7.84,2"/><path class="cls-2" d="M2,7.8c0-.68,0-1.06.05-1.42a2.93,2.93,0,0,1,.76-1.82A17.56,17.56,0,0,1,5.2,2.22,3.2,3.2,0,0,1,7,1.48c.67,0,3.55,0,4.72,0s2.1.63,2.17,2.54c0,.6.06,1.52.07,3.26"/><line class="cls-3" x1="9.53" y1="6.47" x2="10.5" y2="6.47"/><line class="cls-3" x1="5.48" y1="8.47" x2="10.5" y2="8.47"/><line class="cls-3" x1="5.49" y1="10.97" x2="7.47" y2="10.97"/></g></svg>