<svg xmlns="http://www.w3.org/2000/svg" width="16" height="16" viewBox="0 0 16 16"><defs><style>.cls-1{fill:#d93644;fill-opacity:0;}.cls-2,.cls-3{fill:none;stroke:#445d82;stroke-linecap:round;stroke-linejoin:round;}.cls-2{stroke-width:2px;}</style></defs><g id="_16_Comment_Comunity" data-name="16_Comment Comunity"><rect id="Container" class="cls-1" width="16" height="16"/><path class="cls-2" d="M1.71,1.44C2.8.79,8,1,9,1.16a2,2,0,0,1,2,1.77,16,16,0,0,1-.17,3.44A1.83,1.83,0,0,1,9,8a29.64,29.64,0,0,0-3,.17c-.37.13-.88,1.09-1.25,1.1-.59,0-.66-.69-1.09-1.09s-1-.31-1.44-.48c-.64-.23-.87-.74-1-1.58S.76,2,1.71,1.44Z"/><path class="cls-3" d="M3.49,4.5Z"/><path class="cls-3" d="M6,4.51Z"/><path class="cls-3" d="M8.51,4.51Z"/><path class="cls-2" d="M8.78,11c.2.53.16.72.61.75a13.81,13.81,0,0,1,2.14.13c.26.1.62.86.88.86.42,0,.46-.53.77-.85s.68-.25,1-.38.62-.57.72-1.23.26-3.19-.41-3.63"/><path class="cls-2" d="M6.72,13.78c-.48.44-2.17.3-2.54.43s-.56.79-.81.79-.42-.49-.7-.78S2,14,1.74,13.87s-.56-.53-.65-1.13a5.4,5.4,0,0,1,0-1.8"/></g></svg>