<svg data-name="Layer 1" xmlns="http://www.w3.org/2000/svg" width="16" height="16"><path d="M13.6 12.2a2.8 2.8 0 0 0-2.8-1.5L9.4 9.3h.4C13 6.7 13.3 0 13.3 0h-.6s-1.1 5.8-4.4 8.7h-.2v.2h-.2v-.2h-.2C4.4 5.8 3.2 0 3.2 0h-.6s.2 6.7 3.5 9.3h.4l-1.4 1.4a2.7 2.7 0 0 0-2.7 1.5c-.8 1.4-.6 3 .5 3.6s2.4 0 3.1-1.4a2.81 2.81 0 0 0 .2-2.8l.9-.9.9-.4.8.4.9.9a3.11 3.11 0 0 0 .2 2.8c.7 1.4 2.2 2 3.2 1.4s1.2-2.2.5-3.6zm-8.7 1.7c-.3.7-.9 1-1.3.7a1.5 1.5 0 0 1-.2-1.7c.3-.6 1-1.1 1.4-.8a1.47 1.47 0 0 1 .1 1.8zm7.4.7c-.4.3-1 0-1.3-.7s-.3-1.5.1-1.8 1.1.2 1.4.8a1.5 1.5 0 0 1-.2 1.7z" fill="#0089d9" fill-rule="evenodd"/></svg>