<svg xmlns="http://www.w3.org/2000/svg" width="16" height="16" viewBox="0 0 16 16"><defs><style>.cls-1{fill:#e04c59;fill-opacity:0;}.cls-2,.cls-3{fill:none;stroke:#445d82;stroke-linecap:round;stroke-linejoin:round;}.cls-2{stroke-width:2px;}</style></defs><g id="_16_Calendar_2" data-name="16_Calendar 2"><rect id="Container" class="cls-1" width="16" height="16"/><path id="Rectangle_271" data-name="Rectangle 271" class="cls-2" d="M4.72,2C6.93,2,10,1.86,11.39,2a2.87,2.87,0,0,1,2.66,2.67c.09,1.79.13,5.33,0,6.66s-.46,2.59-2.66,2.67c-2.43.09-5.25.1-6.67,0-1.15-.08-2.57,0-2.67-2.67s0-5.19,0-6.66S2.51,2,4.72,2Z"/><line id="Line_373" data-name="Line 373" class="cls-2" x1="5.05" y1="1" x2="5.05" y2="3"/><line id="Line_374" data-name="Line 374" class="cls-2" x1="11.05" y1="1" x2="11.05" y2="2.86"/><path class="cls-3" d="M10.47,8.19c.18.36.85,0,.48-.41S10.27,7.78,10.47,8.19Z"/><path class="cls-3" d="M10.47,5.53c.29.28.85,0,.48-.42S10.16,5.21,10.47,5.53Z"/><path class="cls-3" d="M7.79,5.53c.18.36.92-.06.48-.42S7.58,5.11,7.79,5.53Z"/><path class="cls-3" d="M7.75,8.2c.17.33.88,0,.52-.42S7.59,7.88,7.75,8.2Z"/><path class="cls-3" d="M5.12,8.19c.18.37.78.11.54-.4C5.54,7.52,4.91,7.78,5.12,8.19Z"/><path class="cls-3" d="M5.12,10.86c.18.36.93-.24.41-.48C5.17,10.21,4.91,10.45,5.12,10.86Z"/><path class="cls-3" d="M7.71,10.84c0,.36,1,.13.58-.39C8,10.12,7.67,10.38,7.71,10.84Z"/></g></svg>