<svg xmlns="http://www.w3.org/2000/svg" width="16" height="16" viewBox="0 0 16 16"><defs><style>.cls-1{fill:#e04c59;opacity:0;}.cls-2,.cls-3,.cls-4{fill:none;stroke:#445d82;}.cls-2{stroke-linecap:round;stroke-linejoin:round;}.cls-2,.cls-4{stroke-width:2px;}.cls-3,.cls-4{stroke-miterlimit:10;}</style></defs><g id="_16_Paste" data-name="16_Paste"><rect id="Container" class="cls-1" width="16" height="16"/><path class="cls-2" d="M10.7,14.33c-.4.78-1.13.66-2,.66H4.41c-1.29,0-2.25-.58-2.34-2.4s-.08-6,0-7.19a3.07,3.07,0,0,1,.29-1.32"/><path class="cls-3" d="M13.5,5.8c-.05-.38,0-1.39-1.36-1.3H10.83A1.28,1.28,0,0,1,9.52,3.25V2.54A1.28,1.28,0,0,0,8.21,1.29"/><path class="cls-4" d="M5.12,9.8A2.07,2.07,0,0,0,7.43,12h4.22c1.27,0,2.21.23,2.3-2.19s0-4.29,0-4.39V5.23a2.15,2.15,0,0,0-.67-1.56l-2.11-2A2.39,2.39,0,0,0,9.53,1H7.43A2.05,2.05,0,0,0,5.12,3.2,60.31,60.31,0,0,0,5.12,9.8Z"/></g></svg>