<svg xmlns="http://www.w3.org/2000/svg" width="16" height="16" viewBox="0 0 16 16"><defs><style>.cls-1{fill:#d93644;fill-opacity:0;}.cls-2,.cls-3{fill:none;stroke:#445d82;stroke-linecap:round;stroke-linejoin:round;}.cls-2{stroke-width:2px;}</style></defs><g id="_16_Comment_Web" data-name="16_Comment Web"><rect id="Container" class="cls-1" width="16" height="16"/><path class="cls-2" d="M9.84,11.32a5.89,5.89,0,0,1-.12,1.33c-.16,1.41-.81,2.09-1.86,2.21a22.93,22.93,0,0,1-4.83,0c-1-.13-1.69-.8-1.83-2.21a59.34,59.34,0,0,1,0-9.8A1.75,1.75,0,0,1,2.8,1.1a29.52,29.52,0,0,1,5.32,0C9,1.24,9.25,1.78,9.32,3"/><line class="cls-3" x1="9.77" y1="3.52" x2="1.14" y2="3.52"/><line class="cls-3" x1="10.06" y1="12.48" x2="1.43" y2="12.48"/><path class="cls-2" d="M13.19,6.47c.37.11-1.41-1.85-.86-2.09S15,5.83,15,7s-1.74,2.93-2.42,2.72.67-1.6.46-1.83C12.33,7.06,8.68,7,6.82,9.39,6.61,9.65,7.76,4.92,13.19,6.47Z"/></g></svg>