<svg xmlns="http://www.w3.org/2000/svg" width="16" height="16" viewBox="0 0 16 16"><defs><style>.cls-1{fill:#e04c59;opacity:0;}.cls-2,.cls-3{fill:none;stroke:#445d82;stroke-linecap:round;stroke-linejoin:round;}.cls-3{stroke-width:2px;}</style></defs><g id="_16_Contract" data-name="16_Contract"><rect id="Container" class="cls-1" width="16" height="16"/><path class="cls-2" d="M2.51,6.88c.12-.83.55-1.24,2.16-1.39C5.85,5.38,6.45,4.9,6.5,3.66,6.57,2,7,1.54,7.83,1.51"/><path class="cls-3" d="M5.65,15l-1,0c-1.12,0-2.44-.21-2.54-1.79C2,11,2,7.13,2.05,5.86a3,3,0,0,1,.76-1.8A17.28,17.28,0,0,1,5.17,1.74,3.13,3.13,0,0,1,7,1c.67,0,3,0,4.13,0s2.07.63,2.14,2.52c0,.33,0,1.11.05,2"/><path class="cls-2" d="M10,13.62a13,13,0,0,0-1.05,1.87"/><path class="cls-3" d="M12.79,13c-.74.54-1.89,1.17-2.8.63-1.57-.93,1.51-5,5-4.63a3.87,3.87,0,0,1-.72,2.33"/></g></svg>