<svg id="Layer_1" data-name="Layer 1" xmlns="http://www.w3.org/2000/svg" width="37" height="16"><defs><style>.cls-1{fill:#0089d9;fill-rule:evenodd}</style></defs><g id="Comment"><path class="cls-1" d="M33 0h-8a4 4 0 0 0-4 4v4a4 4 0 0 0 4 4c.7 0 1 2.7 1 4h1c0-2 2.4-4 3.3-4H33a4 4 0 0 0 4-4V4a4 4 0 0 0-4-4zm-6 7h-2V5h2zm3 0h-2V5h2zm3 0h-2V5h2zM9 5H7v2h2V6zM6 5H4v2h2V6zm6 0h-2v2h2V6zm0-5H4a4 4 0 0 0-4 4v4a4 4 0 0 0 4 4c.7 0 1 2.7 1 4h1c0-2 2.4-4 3.3-4H12a4 4 0 0 0 4-4V4a4 4 0 0 0-4-4zm3 8a2.9 2.9 0 0 1-2.8 3H9a3.2 3.2 0 0 0-3 2 1.8 1.8 0 0 0-1.57-2A1.55 1.55 0 0 0 4 11a2.9 2.9 0 0 1-3-2.8V4a2.9 2.9 0 0 1 2.8-3H12a2.9 2.9 0 0 1 3 2.8V8z"/></g></svg>