<svg xmlns="http://www.w3.org/2000/svg" width="16" height="16" viewBox="0 0 16 16"><defs><style>.cls-1{fill:#d7df23;opacity:0;}.cls-2,.cls-3{fill:none;stroke:#445d82;stroke-linecap:round;stroke-linejoin:round;}.cls-2{stroke-width:2px;}</style></defs><g id="_16_Coffee_Break" data-name="16_Coffee_Break"><rect id="Container" class="cls-1" width="16" height="16"/><path class="cls-2" d="M3,4.52c-1.36.26-1.92.79-1.94,1.83,0,.67-.24,4,.72,5.85,2,3.9,8.64,3.49,10.57.28"/><path class="cls-2" d="M13.45,6.92c0-.49,0-.88,0-1.11,0-.53-.62-.94-1.63-1.22"/><path class="cls-3" d="M1.3,5.61c-1.09,2.26,12.78,2.22,11.84,0"/><path class="cls-2" d="M13.45,6.92c2.46-.63,2.08,5.46-1.61,5.55"/><path class="cls-3" d="M12.32,8.57a1.57,1.57,0,0,1-.2,1.43"/><path class="cls-3" d="M7.5.55s-.67.61,0,1.64C8.42,3.43,6.42,2.91,6,3.3c-.88.77,1,1.34,1,1.34"/><path class="cls-3" d="M9.14,1.31a1.52,1.52,0,0,1,0,2.53"/></g></svg>