<svg xmlns="http://www.w3.org/2000/svg" width="16" height="16" viewBox="0 0 16 16"><defs><style>.cls-1{fill:#e04c59;opacity:0;}.cls-2{fill:none;stroke:#445d82;stroke-linecap:round;stroke-linejoin:round;stroke-width:2px;}</style></defs><g id="_16_Message_Bubble" data-name="16_Message Bubble"><rect id="Container" class="cls-1" width="16" height="16"/><path class="cls-2" d="M2,1.69c1.52-1,8.82-.67,10.2-.44A3,3,0,0,1,15,4.05a37.82,37.82,0,0,1-.24,6.44c-.36,1.61-1,2.31-2.61,2.51-1.14.14-3.44,0-4.23.27C7.36,13.47,6.65,15,6.12,15c-.81,0-.91-1.08-1.51-1.72s-1.36-.49-2-.76c-.89-.35-1.21-1.17-1.41-2.49S.68,2.58,2,1.69Z"/><path class="cls-2" d="M5,7s0,.07,0,0S5,7,5,7Z"/><path class="cls-2" d="M7.94,7s0,.07,0,0S8,7,7.94,7Z"/><path class="cls-2" d="M11,7s0,.07.05,0S11,7,11,7Z"/></g></svg>