<svg xmlns="http://www.w3.org/2000/svg" width="16" height="16" viewBox="0 0 16 16"><defs><style>.cls-1{fill:#d93644;fill-opacity:0;}.cls-2{fill:none;stroke:#445d82;stroke-linecap:round;stroke-linejoin:round;stroke-width:2px;}</style></defs><g id="_16_Collapse_Horizontally" data-name="16_Collapse Horizontally"><rect id="Container" class="cls-1" width="16" height="16"/><path class="cls-2" d="M11,6A15.08,15.08,0,0,0,9,8a12.34,12.34,0,0,0,2,2"/><path class="cls-2" d="M7,6A15.08,15.08,0,0,0,5,8a12.34,12.34,0,0,0,2,2"/><path class="cls-2" d="M7.61,1h.84C14.31,1,15,1.68,15,7.61v.83C15,14.32,14.31,15,8.44,15H7.61C1.71,15,1,14,1,8.44V7.61C1,2,1.7,1,7.61,1Z"/></g></svg>