<svg xmlns="http://www.w3.org/2000/svg" width="16" height="16" viewBox="0 0 16 16"><defs><style>.cls-1{fill:#d93644;fill-opacity:0;}.cls-2{fill:none;stroke:#445d82;stroke-linecap:round;stroke-linejoin:round;stroke-width:2px;}</style></defs><g id="_16_Download" data-name="16_Download"><rect id="Container" class="cls-1" width="16" height="16"/><path class="cls-2" d="M6,1.07c0,2,0,3.58,0,5.32,0,.09-.07.15-.2.15s-1.15-.12-1.18.28S7.12,11,7.8,11s3.73-3.61,3.53-4-.87-.18-1.14-.22A.3.3,0,0,1,10,6.57c0-1.65.79-5.15,0-5.5-.44-.21-1.62.66-2,.66S6,.74,6,1.07Z"/><path class="cls-2" d="M1.35,11.9s.3,2.57.76,2.62a89.84,89.84,0,0,0,11.82-.1c.55-.07.74-2.52.74-2.52"/></g></svg>