<svg xmlns="http://www.w3.org/2000/svg" width="16" height="16" viewBox="0 0 16 16"><defs><style>.cls-1{fill:#c2d5ef;opacity:0;}.cls-2,.cls-3{fill:none;stroke:#445d82;stroke-linecap:round;stroke-linejoin:round;}.cls-3{stroke-width:2px;}</style></defs><g id="_16_Document_Production" data-name="16_Document Production"><rect id="_Container_" data-name="&lt;Container&gt;" class="cls-1" x="5.57" width="10.43" height="10.43"/><path class="cls-2" d="M6.52,10.56c.09,0,2.87-.05,3,0"/><path class="cls-2" d="M1.07,6.48c.52-.06,2.37,0,2.84,0s.8.7,1,1c3,0,8.59,0,10,0"/><path class="cls-3" d="M15,8a30,30,0,0,1-.37,5c-.29,1.36-.86,1.71-1.93,1.85s-7.34.16-9.4,0c-.83-.07-1.41-.17-1.93-1.85A26.52,26.52,0,0,1,1,7"/><path class="cls-2" d="M13,5.63c-.12-.79-1-1.18-2.63-1.11-1.33.06-1.75,0-1.79-.9C8.46,2,8.5,1,7.7,1"/><path class="cls-3" d="M13,6.9c0-.57,0-.54,0-.88a3.19,3.19,0,0,0-.67-1.86,17.66,17.66,0,0,0-2.26-2.4A2.91,2.91,0,0,0,8.34,1C7.7,1,6.14,1,5,1S3.12,1.67,3,3.62c0,.44,0,1.1,0,2.23"/></g></svg>