<svg xmlns="http://www.w3.org/2000/svg" width="16" height="16" viewBox="0 0 16 16"><defs><style>.cls-1{fill:#e04c59;fill-opacity:0;}.cls-2,.cls-3{fill:none;stroke:#445d82;stroke-linecap:round;stroke-linejoin:round;}.cls-2{stroke-width:2px;}</style></defs><g id="_16_Trash_Can" data-name="16_Trash Can"><g id="Group"><rect id="Container" class="cls-1" width="16" height="16"/><path class="cls-2" d="M1.63,4c3-.68,9.8-.46,12.73-.44"/><path class="cls-2" d="M13,6.06c0,3.22-.64,6.5-1.54,8-.72,1.21-6.45,1.21-7-.11A24,24,0,0,1,3,6.33"/><path class="cls-2" d="M6.08,1.83C6.14,1.11,6.25,1,8.16,1c1.62,0,1.82.16,2.08.82"/><path class="cls-3" d="M10.5,8.5a21.37,21.37,0,0,1-1,4"/><path class="cls-3" d="M5.51,8.5a26.8,26.8,0,0,0,1,4"/></g></g></svg>