<svg xmlns="http://www.w3.org/2000/svg" width="16" height="16" viewBox="0 0 16 16"><defs><style>.cls-1{fill:#e04c59;opacity:0;}.cls-2,.cls-3{fill:none;stroke:#445d82;stroke-linecap:round;stroke-linejoin:round;}.cls-3{stroke-width:2px;}</style></defs><g id="_16_Document_info" data-name="16_Document_info"><rect id="Container" class="cls-1" width="16" height="16"/><path class="cls-2" d="M2.51,6.88c.12-.83.55-1.29,2.16-1.39C6.1,5.41,6.4,4.81,6.5,3.66,6.65,2,7,1.52,7.83,1.49"/><path class="cls-3" d="M9.28,15,4.63,15c-1.12-.05-2.44-.22-2.54-1.79C2,11,2,7.13,2.05,5.86a3,3,0,0,1,.76-1.8A17.28,17.28,0,0,1,5.17,1.74,3.13,3.13,0,0,1,7,1c.67,0,3.64,0,4.8,0s2.07.63,2.14,2.52c0,.31,0,1.64.05,2.4"/><line class="cls-3" x1="13.02" y1="12.19" x2="13.02" y2="14.5"/><circle class="cls-3" cx="13.01" cy="9.05" r="0.17"/></g></svg>