<svg xmlns="http://www.w3.org/2000/svg" width="16" height="16" viewBox="0 0 16 16"><defs><style>.cls-1{opacity:0;}.cls-2{fill:#e04c59;}.cls-3,.cls-4{fill:none;stroke:#445d82;stroke-linecap:round;stroke-linejoin:round;}.cls-3{stroke-width:2px;}</style></defs><g id="_16_Dislike" data-name="16_Dislike"><g id="Container" class="cls-1"><rect class="cls-2" width="16" height="16"/></g><path class="cls-3" d="M4.57,7.39c1.1,0,1.9,1.42,2.7,2.11,1.38,1.18,3,2.31,2.78,4.92-.05.76,1.5.84,1.92.16,1.38-2.29-.46-4.4-.62-5.65"/><path class="cls-4" d="M14.18,7a5.27,5.27,0,0,0-1.51-.32"/><path class="cls-4" d="M14.24,5.2a3.34,3.34,0,0,0-1.61-.35"/><path class="cls-4" d="M13.81,3.38a4.21,4.21,0,0,0-1.44-.2"/><path class="cls-3" d="M10.78,8.86a18.43,18.43,0,0,1,3.06,0c1,0,1.24-1.57.76-1.9.65-.11.59-1.67,0-2h0c.48,0,.31-2-.63-2,.23-.18.27-1.18-.91-1.5-4.83-1.31-7.3.94-8.83.81"/><path class="cls-3" d="M4,7.8c-.36.33-2.41.31-2.63-.17C.9,6.66,1,2.22,1.4,1.88a3.12,3.12,0,0,1,2.49,0C4.11,2,4.39,7.39,4,7.8Z"/></g></svg>