<svg data-name="Layer 1" xmlns="http://www.w3.org/2000/svg" width="16" height="16"><path d="M5 3H1.5A1.41 1.41 0 0 0 0 4.3V5h1v-.5c0-.3.2-.5.7-.5H8V3H6.2A1.81 1.81 0 0 1 8 1.2V0a3.1 3.1 0 0 0-3 3zM4 14c0-1.1-.9-8-.9-8S1.9 5 1.9 6l.8 8.7c0 .5.9 1.3 1.3 1.3h4v-1H5a1 1 0 0 1-1-1zm6-2.5v-5a.5.5 0 0 0-1 0v5a.5.5 0 0 0 1 0zm-3 0v-5a.5.5 0 0 0-1 0v5a.5.5 0 0 0 1 0zM12.9 6s-.9 6.9-.9 8a1 1 0 0 1-1 1H8v1h4c.4 0 1.3-.8 1.3-1.3l.8-8.7c0-1-1.2-1-1.2 0zm1.6-3H11a3.1 3.1 0 0 0-3-3v1.2A1.81 1.81 0 0 1 9.8 3H8v1h6.3c.5 0 .7.2.7.5V5h1v-.6A1.4 1.4 0 0 0 14.6 3z" fill="#0089d9" fill-rule="evenodd"/></svg>