<svg xmlns="http://www.w3.org/2000/svg" width="16" height="16" viewBox="0 0 16 16"><defs><style>.cls-1{fill:#d93644;fill-opacity:0;}.cls-2,.cls-3,.cls-4{fill:none;stroke:#445d82;}.cls-2{stroke-miterlimit:10;}.cls-2,.cls-3{stroke-width:2px;}.cls-3,.cls-4{stroke-linecap:round;stroke-linejoin:round;}</style></defs><g id="_16_Detach" data-name="16_Detach"><rect id="Container" class="cls-1" width="16" height="16"/><path class="cls-2" d="M12.76,12.35a65.4,65.4,0,0,1-7,0,2.19,2.19,0,0,1-2.11-2.27,59.22,59.22,0,0,1,0-6.67c.1-1.49.74-2.17,2.11-2.28a44.34,44.34,0,0,1,7,0,2.14,2.14,0,0,1,2.11,2.28,42.39,42.39,0,0,1,0,6.67A2.21,2.21,0,0,1,12.76,12.35Z"/><path class="cls-3" d="M7.36,12.44c0,.45,0,.87-.07,1.23a1.23,1.23,0,0,1-1.17,1.27,38.72,38.72,0,0,1-3.89,0,1.23,1.23,0,0,1-1.18-1.27,35,35,0,0,1,0-3.7c.06-.83.42-1.2,1.18-1.26.4,0,.85-.06,1.32-.07"/><path class="cls-4" d="M8,8c1.27-1.27,3-3,3.18-3.18"/><path class="cls-3" d="M8.64,4.17s2.85-.33,3.18,0,0,3.18,0,3.18"/></g></svg>