<svg xmlns="http://www.w3.org/2000/svg" width="16" height="16" viewBox="0 0 16 16"><defs><style>.cls-1{fill:#d93644;fill-opacity:0;}.cls-2{fill:none;stroke:#445d82;stroke-linecap:round;stroke-linejoin:round;stroke-width:2px;}</style></defs><g id="_16_Drag" data-name="16_Drag"><rect id="Container" class="cls-1" width="16" height="16"/><path class="cls-2" d="M5.46,3.54C5.86,2.41,7.3,1,8,1s2.18,1.39,2.55,2.52"/><path class="cls-2" d="M8,5.93c0-.58,0-2.11,0-2.9"/><path class="cls-2" d="M10.55,12.49C10.16,13.61,8.72,15,8,15s-2.18-1.39-2.55-2.52"/><path class="cls-2" d="M8,10.1c0,.57,0,2.11,0,2.9"/><path class="cls-2" d="M12.49,5.47C13.61,5.87,15,7.31,15,8s-1.39,2.18-2.52,2.55"/><path class="cls-2" d="M10.1,8c.57,0,2.11,0,2.9,0"/><path class="cls-2" d="M3.54,10.56C2.41,10.17,1,8.73,1,8S2.42,5.85,3.55,5.48"/><path class="cls-2" d="M5.93,8C5.35,8,3.82,8,3,8"/></g></svg>