<svg xmlns="http://www.w3.org/2000/svg" width="16" height="16" viewBox="0 0 16 16"><defs><style>.cls-1{fill:#d93644;fill-opacity:0;}.cls-2,.cls-3{fill:none;stroke:#445d82;stroke-linecap:round;stroke-linejoin:round;}.cls-2{stroke-width:2px;}</style></defs><g id="_16_Exclude" data-name="16_Exclude"><rect id="Container" class="cls-1" x="0.01" y="-0.01" width="15.99" height="15.99"/><path class="cls-2" d="M5.05,3c.09-1.24,1.12-1.8,2.26-1.89a35.34,35.34,0,0,1,5.82,0A1.78,1.78,0,0,1,14.89,3a35.42,35.42,0,0,1,0,5.55c-.1,1-.57,2.36-1.71,2.42C12.25,11,11,11,11,11c0,.9,0,1.34-.05,2.05a2.29,2.29,0,0,1-2.27,1.84c-.93.05-5,.05-5.83,0A1.82,1.82,0,0,1,1.1,13c-.08-.92,0-5,0-5.55C1.18,6.16,1.72,5.08,2.85,5,3.64,4.92,4.07,5,5,5,5,5,5,3.49,5.05,3Z"/><line class="cls-3" x1="7.51" y1="5.45" x2="7.51" y2="5.45"/><polyline class="cls-3" points="9.87 5.45 10.51 5.45 10.51 6.08"/><line class="cls-3" x1="10.5" y1="8.36" x2="10.5" y2="8.46"/><line class="cls-3" x1="5.49" y1="7.45" x2="5.46" y2="7.45"/><polyline class="cls-3" points="5.49 9.81 5.49 10.45 6.13 10.45"/><line class="cls-3" x1="8.5" y1="10.44" x2="8.5" y2="10.44"/></g></svg>