<svg xmlns="http://www.w3.org/2000/svg" width="16" height="16" viewBox="0 0 16 16"><defs><style>.cls-1{fill:#d93644;fill-opacity:0;}.cls-2,.cls-3{fill:none;stroke:#445d82;stroke-linecap:round;stroke-linejoin:round;}.cls-2{stroke-width:2px;}</style></defs><g id="_16_Education" data-name="16_Education"><rect id="Container" class="cls-1" width="16" height="16"/><path class="cls-2" d="M12.09,7.92A11.06,11.06,0,0,0,15,6.39c.16-.69-6-3.46-7.09-3.34S1.4,5.21,1,5.94c-.16.3,1.49,1.27,3,2"/><path class="cls-3" d="M4,7.38A14.28,14.28,0,0,0,8,8.83a13.82,13.82,0,0,0,3.76-1.3"/><path class="cls-2" d="M3.89,8.18a17.62,17.62,0,0,0,.26,3.42c.25.55,2.54,1.53,3.86,1.53a6.63,6.63,0,0,0,3.7-1.79c.33-.51.25-1.92.28-3.19"/><path class="cls-2" d="M13.52,15c1-1.2,0-3,.91-3s.36,1.67.56,2.77"/><path class="cls-3" d="M8.13,6s6,1.34,6.24,1.75a25.22,25.22,0,0,1,.11,3.78"/></g></svg>