<svg xmlns="http://www.w3.org/2000/svg" width="16" height="16" viewBox="0 0 16 16"><defs><style>.cls-1{fill:#d93644;fill-opacity:0;}.cls-2,.cls-3{fill:none;stroke:#445d82;stroke-linecap:round;stroke-linejoin:round;}.cls-2{stroke-width:2px;}</style></defs><g id="_16_Expand" data-name="16_Expand"><rect id="Container" class="cls-1" width="16" height="16"/><path class="cls-2" d="M2.41,9.59c-.8,0-1.84,4.61-1.21,5.2s5.21,0,5.21-.85"/><path class="cls-3" d="M6.86,13.86c0-.8-2.69-1.5-2.91-1.81s-.68-3-1.49-3"/><path class="cls-2" d="M6.34,9.66c-.45.5-1.46,1.49-2,2"/><path class="cls-2" d="M9.59,2.4c0-.8,4.61-1.83,5.2-1.21s0,5.21-.85,5.21"/><path class="cls-3" d="M13.86,6.86c-.8,0-1.5-2.7-1.81-2.92S9.11,3.26,9.11,2.45"/><path class="cls-2" d="M9.66,6.33c.5-.45,1.49-1.46,2-2"/><path class="cls-2" d="M6.41,2.41c0-.8-4.61-1.84-5.2-1.22s0,5.21.85,5.21"/><path class="cls-3" d="M2.14,6.86c.8,0,1.5-2.69,1.81-2.92s3-.67,3-1.49"/><path class="cls-2" d="M6.34,6.33c-.49-.45-1.49-1.46-1.95-1.95"/><path class="cls-2" d="M13.6,9.59c.8,0,1.84,4.61,1.21,5.2s-5.21,0-5.21-.85"/><path class="cls-3" d="M9.15,13.86c0-.8,2.69-1.5,2.91-1.81s.68-3,1.49-3"/><path class="cls-2" d="M9.67,9.66c.46.49,1.46,1.49,2,1.95"/></g></svg>