<svg xmlns="http://www.w3.org/2000/svg" width="16" height="16" viewBox="0 0 16 16"><defs><style>.cls-1,.cls-2{fill:none;stroke:#445d82;stroke-linecap:round;stroke-linejoin:round;}.cls-2{stroke-width:2px;}</style></defs><g id="_16_Evaluate_Balance" data-name="16_Evaluate / Balance"><line class="cls-1" x1="8" y1="3" x2="7.78" y2="12.71"/><path class="cls-2" d="M8.52,2.13s0-.38.06-.83S6.85,1,6.86,1.3s.08,1.26.08,1.26"/><path class="cls-2" d="M4.47,14.93c1.14.13,4.47,0,6.45.05"/><path class="cls-2" d="M9.23,13.67c-.16-.47-2.75-.47-2.91.06"/><path class="cls-1" d="M.62,8.67C1.14,8,5.38,8,5.91,8.61c.24.3.12,2.56-2.54,2.53S.36,9,.62,8.67Z"/><path class="cls-1" d="M9.52,6.76c.58-.71,5.3-.8,5.89-.06.27.33.14,2.85-2.82,2.82S9.23,7.12,9.52,6.76Z"/><path class="cls-1" d="M3.23,5.3l-2,3.15"/><path class="cls-1" d="M3.58,5.34a28,28,0,0,1,2,3"/><path class="cls-1" d="M12.18,2.75S10.73,5.07,10,6.35"/><path class="cls-1" d="M12.39,2.63s2.18,2.67,2.37,3.72"/><path class="cls-2" d="M6.94,2.56A12.2,12.2,0,0,0,4.06,4.77c-1.21,1.15-2.63.57-2.36-.18"/><path class="cls-2" d="M13.54,1c.49.74,0,1.74-2,1.39a13,13,0,0,0-3-.26"/></g></svg>