<svg xmlns="http://www.w3.org/2000/svg" width="16" height="16" viewBox="0 0 16 16"><defs><style>.cls-1{fill:#d93644;fill-opacity:0;}.cls-2,.cls-3{fill:none;stroke:#445d82;stroke-linecap:round;stroke-linejoin:round;}.cls-2{stroke-width:2px;}</style></defs><g id="_16_Collapse" data-name="16_Collapse"><rect id="Container" class="cls-1" width="16" height="16"/><path class="cls-2" d="M4.83,15c.76,0,2-4.62,1.35-5.18S1,10,1,10.83"/><path class="cls-3" d="M.6,11c0,.76,2.71,1.21,2.93,1.5s.41,3,1.19,3"/><path class="cls-2" d="M1.25,14.75c.63-.65.77-.78,1.43-1.44"/><path class="cls-2" d="M11.19,1c-.77,0-1.95,4.62-1.36,5.18S15,6,15,5.17"/><path class="cls-3" d="M15.42,5c0-.76-2.72-1.21-2.93-1.5s-.42-3-1.2-3"/><path class="cls-2" d="M14.77,1.25c-.64.65-.78.78-1.44,1.44"/><path class="cls-2" d="M1,4.82C1,5.59,5.63,6.77,6.2,6.17S6,1,5.17,1"/><path class="cls-3" d="M5,.59c-.77,0-1.21,2.72-1.5,2.93s-3,.42-3,1.19"/><path class="cls-2" d="M1.26,1.24C1.91,1.88,2,2,2.7,2.67"/><path class="cls-2" d="M15,11.18c0-.77-4.61-1.95-5.17-1.35S10,15,10.84,15"/><path class="cls-3" d="M11,15.41c.77,0,1.21-2.72,1.51-2.93s3-.42,3-1.19"/><path class="cls-2" d="M14.76,14.76c-.66-.64-.78-.78-1.44-1.43"/></g></svg>