<svg xmlns="http://www.w3.org/2000/svg" width="16" height="16" viewBox="0 0 16 16"><defs><style>.cls-1{fill:#e04c59;opacity:0;}.cls-2{fill:none;stroke:#445d82;stroke-linecap:round;stroke-linejoin:round;stroke-width:2px;}</style></defs><g id="_16_Email" data-name="16_Email"><rect id="Container" class="cls-1" width="16" height="16"/><path class="cls-2" d="M12.07,13.84a52.79,52.79,0,0,1-8.15,0,3.41,3.41,0,0,1-2.8-3,33.9,33.9,0,0,1,0-5.7,3,3,0,0,1,2.8-3,59.89,59.89,0,0,1,8.15,0,3.42,3.42,0,0,1,2.8,3,31,31,0,0,1,0,5.7A3.68,3.68,0,0,1,12.07,13.84Z"/><path class="cls-2" d="M2,3S6.31,8,8,8s5.94-4.88,5.94-4.88"/></g></svg>