<svg xmlns="http://www.w3.org/2000/svg" width="16" height="16" viewBox="0 0 16 16"><defs><style>.cls-1{fill:#d93644;fill-opacity:0;}.cls-2,.cls-3{fill:none;stroke:#445d82;stroke-linecap:round;stroke-linejoin:round;}.cls-2{stroke-width:2px;}</style></defs><g id="_16_Control_Panel" data-name="16_Control Panel"><rect id="Container" class="cls-1" width="16" height="16"/><path class="cls-2" d="M1,3.75C1.14,2.11,1.91,1,3.24,1h8.6A1.94,1.94,0,0,1,14,3.17c0,2.4,0,4.22,0,8.4,0,3.06-.34,3.43-3.17,3.43H3.24c-1.2,0-2.11-.12-2.17-2.73C1,11.22,1,5.53,1,3.75Z"/><line class="cls-3" x1="4.51" y1="9.38" x2="4.51" y2="12.48"/><line class="cls-3" x1="4.51" y1="3.35" x2="4.51" y2="3.99"/><path class="cls-2" d="M4.51,6c1,0,.67,1,0,1A.5.5,0,1,1,4.51,6Z"/><line class="cls-3" x1="7.5" y1="6.83" x2="7.5" y2="3.35"/><line class="cls-3" x1="7.5" y1="12.67" x2="7.5" y2="12.05"/><path class="cls-2" d="M7.57,10c.39,0,.89-1,0-1S7.05,10,7.57,10Z"/><line class="cls-3" x1="10.53" y1="10.28" x2="10.5" y2="12.5"/><line class="cls-3" x1="10.49" y1="3.33" x2="10.49" y2="4.51"/><path class="cls-2" d="M10.59,7c.74,0,.44,1,0,1A.5.5,0,1,1,10.59,7Z"/></g></svg>