<svg data-name="Layer 1" xmlns="http://www.w3.org/2000/svg" width="16" height="16"><path d="M7.2 4.5a.49.49 0 1 0-.7.7l2.3 2.3-2.3 2.3a.49.49 0 1 0 .7.7l2.7-2.7c.1 0 .1-.2.1-.3a.6.6 0 0 0-.1-.4zm4.3.5a.47.47 0 0 0-.5.5v4a.5.5 0 0 0 1 0v-4a.47.47 0 0 0-.5-.5zm-4-5A7.55 7.55 0 0 0 0 7.5 7.55 7.55 0 0 0 7.5 15a7.5 7.5 0 0 0 0-15zm0 14A6.5 6.5 0 1 1 14 7.5 6.49 6.49 0 0 1 7.5 14zM7 7.5a.6.6 0 0 0-.1-.4L4.2 4.5a.49.49 0 1 0-.7.7l2.3 2.3-2.3 2.3a.49.49 0 0 0 .7.7l2.7-2.7c.1 0 .1-.2.1-.3z" fill="#0089d9" fill-rule="evenodd"/></svg>