<svg data-name="Layer 1" xmlns="http://www.w3.org/2000/svg" width="16" height="16"><path d="M15.7 6.6a.9.9 0 0 0 0-1.27.91.91 0 0 0-.46-.23l-4.6-.4C10.5 4.7 8.8.6 8.7.5A.81.81 0 0 0 8 0a1 1 0 0 0-.8.5L5.4 4.7l-4.7.4a.8.8 0 0 0-.81.79.78.78 0 0 0 .41.71l3.5 3c0 .1-1 4.5-1.1 4.5a.9.9 0 0 0 .8 1A.86.86 0 0 0 4 15l4-2.3 4 2.3a.8.8 0 0 0 1.2-.9l-1-4.5zM12 13.8c-3.6-2.2-3.8-2.2-4-2.2s-.4 0-4.1 2.2c1-4.2 1-4.2.9-4.5s-.1-.4-3.4-3.1c4.3-.4 4.4-.5 4.6-.6s.3-.4 2-4.4v.2c1.6 4 1.7 4 2 4.2s.3.2 4.5.6c-3.2 2.7-3.3 2.8-3.3 3.1s-.1.3.8 4.5zM5.1 7.2a.39.39 0 0 0-.5 0 .39.39 0 0 0 0 .5l1 .9a.2.2 0 0 0 .4 0 .2.2 0 0 0 0-.4z" fill="#0089d9" fill-rule="evenodd"/></svg>