<svg xmlns="http://www.w3.org/2000/svg" width="16" height="16" viewBox="0 0 16 16"><defs><style>.cls-1{fill:#d93644;fill-opacity:0;}.cls-2{fill:none;stroke:#445d82;stroke-miterlimit:10;stroke-width:2px;}</style></defs><g id="_16_Favorites" data-name="16_Favorites"><rect id="Container" class="cls-1" width="16" height="16"/><path class="cls-2" d="M3.84,14.67c-.64-.4.68-4.32.47-5C4.22,9.4,1.16,8.37,1.16,7c0-1,3.6-1.15,4-1.45s1.6-4.24,2.33-4.33S9.72,5,10,5.27s4.91.43,5,1.32c.09.64-2.32,2-3.25,2.55a1.15,1.15,0,0,0-.45,1.33c.09.43.92,4.13.31,4.48s-3.42-3.1-4.16-3S4.51,15.09,3.84,14.67Z"/></g></svg>