<svg data-name="Layer 1" xmlns="http://www.w3.org/2000/svg" width="16" height="16"><path d="M12 2h1v2h1V1h-3v1l1 1zm1.5 7a.5.5 0 0 0-.5.5V15h-3v-3.5a.5.5 0 0 0-.5-.5h-3a.5.5 0 0 0-.5.5V15H3V9.5a.5.5 0 0 0-1 0v6a.5.5 0 0 0 .5.5h4a.5.5 0 0 0 .5-.5V12h2v3.5a.5.5 0 0 0 .5.5h4a.5.5 0 0 0 .5-.5v-6a.5.5 0 0 0-.5-.5zm2.4-.8l-7-7.1a.61.61 0 0 0-.8 0v.2c0-.1 0-.1-.1-.2a.5.5 0 0 0-.7 0L.1 8.2a.94.94 0 0 0 0 .7.61.61 0 0 0 .8 0l7-7.1c.1 0 .1-.1.1-.2a.3.3 0 0 1 .1.2l7.1 7.1a.5.5 0 0 0 .8-.6.47.47 0 0 0-.1-.1z" fill="#0089d9" fill-rule="evenodd"/></svg>