<svg xmlns="http://www.w3.org/2000/svg" width="16" height="16" viewBox="0 0 16 16"><defs><style>.cls-1{fill:#d93644;fill-opacity:0;}.cls-2,.cls-3{fill:none;stroke:#445d82;stroke-linecap:round;stroke-linejoin:round;}.cls-2{stroke-width:2px;}</style></defs><g id="_16_Home" data-name="16_Home"><rect id="Container" class="cls-1" width="16" height="16"/><path class="cls-2" d="M14.91,7.41A35.56,35.56,0,0,0,9.5,1.6a2.26,2.26,0,0,0-3.17.1A30.69,30.69,0,0,0,1.15,7.35c-.58.92.88,1,.88,1.26a37,37,0,0,0,.13,4.89A1.46,1.46,0,0,0,3.7,14.88a74.58,74.58,0,0,0,8.94,0,1.49,1.49,0,0,0,1.2-1.37c.23-1.6.12-3.91.19-4.92C14.06,8,15.38,8.08,14.91,7.41Z"/><path class="cls-3" d="M4.6,14.43a1,1,0,0,0,.89-1,39.42,39.42,0,0,1,.16-4.18.72.72,0,0,1,.61-.59,16.9,16.9,0,0,1,3.33,0,1,1,0,0,1,.81.76c.16.68.08,3.43.15,4.21a.86.86,0,0,0,.75.87"/></g></svg>