<svg id="Layer_1" data-name="Layer 1" xmlns="http://www.w3.org/2000/svg" width="100" height="16" viewBox="0 0 100 16"><defs><style>.cls-1{fill:#68a611;}.cls-2{fill:#e04c59;}.cls-3{fill:#f28d00;}.cls-4{fill:#0087e0;}</style></defs><path class="cls-1" d="M8,0A8.11,8.11,0,0,0,0,8a7.68,7.68,0,0,0,8,8,8,8,0,0,0,8-8A7.67,7.67,0,0,0,8,0Zm3.37,5.91a40.68,40.68,0,0,0-3.09,4.94,2.73,2.73,0,0,1-1.47,0c-.19-.1-.56-.79-2.15-2.44-.2-.21,1.24-1.09,1.4-1C6.88,8.07,7.16,9,7.39,9s1-2.32,2.5-3.88C10.21,4.74,11.56,5.67,11.37,5.91Z"/><path class="cls-2" d="M29,0c-4.41.27-8,3.57-8,8s2.56,7.67,8,8c4.41.26,8-3.58,8-8S34.12-.3,29,0Zm0,13c-2.23,0-1.17-2.68,0-2.41A1.21,1.21,0,0,1,29,13Zm.71-3.56a2.61,2.61,0,0,1-1.51.08c-.21-.11-.21-4-.16-6.21,0-.51,2.09-.35,2.06,0C29.85,6.52,30,9.26,29.74,9.47Z"/><path class="cls-3" d="M57.69,11.57A37.66,37.66,0,0,0,52.56,1.23c-1.57-2-3.7-1.38-5.09.67a44.22,44.22,0,0,0-5.21,9.61c-.76,2.27.22,3.75,2,4.05a54.62,54.62,0,0,0,10.71.3C57.71,15.59,58.52,14,57.69,11.57ZM50.09,13c-1.83,0-1-2.21,0-2A1,1,0,0,1,50.09,13Zm.56-3.15a2.39,2.39,0,0,1-1.37.07,34.54,34.54,0,0,1-.14-5.63c0-.45,1.89-.32,1.86,0C50.75,7.17,50.89,9.66,50.65,9.85Z"/><path class="cls-4" d="M71,0a7.74,7.74,0,0,0-8,8,8,8,0,0,0,8,8c4.41,0,7.67-3.52,8-8S75.4,0,71,0Zm.41,4a1.14,1.14,0,0,1,0,2.27C69.31,6.23,70.31,3.72,71.4,4Zm1.24,7.18a1.77,1.77,0,0,1-1.69.93c-.85,0-1.21-.51-1-1.2.07-.33.76-2.12.76-2.12.23-.73-.94.09-1.38-.14s1.31-1.35,1.86-1.53c1.1-.35,1,.43.85,1.17l-.75,2.3c-.1.35.13.4.34.34s.86-.44,1-.46S72.86,10.62,72.64,11.15Z"/><path class="cls-4" d="M91,0a8,8,0,0,0-8,8c0,4.41,3.52,8.31,8,8s8-3.58,8-8S96.12,0,91,0Zm.23,12.8h0a.7.7,0,0,1-.69-.75.71.71,0,1,1,1.41,0A.7.7,0,0,1,91.23,12.8ZM93,8c-.55.61-1.38,1-1.32,2.23,0,.41-.91.4-.94,0-.1-1.65.9-2.14,1.43-2.84,1.6-2.13-1.51-3.82-2.23-1.48-.18.58-.06.61-.55.51-.33-.07-.86-.21-.71-.73C89.92,1.12,96.23,4.41,93,8Z"/></svg>