<svg data-name="Layer 1" xmlns="http://www.w3.org/2000/svg" width="100" height="16.09"><path d="M92 .09a8 8 0 1 0 8 8 8 8 0 0 0-8-8zm1 12h-2v-1.2h2zm.4-3.5a2 2 0 0 0-.6 1.5H91a3.11 3.11 0 0 1 1.3-2.5c.4-.3.8-.5.8-1.1s-.4-.9-1.1-.9a1.5 1.5 0 0 0-1.3 1.4s-1.3-.1-1.2-1a2.6 2.6 0 0 1 2.5-1.9 2.4 2.4 0 0 1 1.4 4.5zM71 .09a8 8 0 1 0 8 8 8 8 0 0 0-8-8zm1.5 10.9a1.89 1.89 0 0 1-1.8 1.1c-.6 0-1.2-.7-1.1-1.1l.9-2.9c0-.1 0-.2-.1-.2l-1.2.4v-.2a2.91 2.91 0 0 1 2.2-1.3c.5.1.6.6.5 1.1l-.8 3c0 .2.1.3.4.3s1-.8 1-.7zm-1.07-4.9a1.09 1.09 0 0 1-1.13-1 1.1 1.1 0 0 1 2.2 0 1.08 1.08 0 0 1-1.07 1z" fill="#0089d9"/><path d="M57.7 12.69L51.3.89a1.4 1.4 0 0 0-1.8-.8c-.4.2-.7.4-.8.8l-6.4 11.8a1.5 1.5 0 0 0 .3 2.1 1.1 1.1 0 0 0 1.1.3h12.6a1.6 1.6 0 0 0 1.7-1.3 1.41 1.41 0 0 0-.3-1.1zm-6.7.4h-2v-2h2zm-.2-4.4c0 .3-.2 1.4-.8 1.4s-.8-1.1-.8-1.5l-.2-3.5c0-.4 0-1 1-1s1 .6 1 1z" fill="#ff8b00"/><path d="M29 .09a8 8 0 1 0 8 8 8 8 0 0 0-8-8zm1 12h-2v-2h2zm-.2-4.4c0 .3-.2 1.4-.8 1.4s-.8-1.1-.8-1.5l-.2-2.5c0-.4 0-1 1-1s1 .6 1 1z" fill="#d6565a"/><path d="M8 .09a8 8 0 1 0 8 8 8 8 0 0 0-8-8zm-1 11.2l-2.5-2.7.6-.6A7.53 7.53 0 0 1 7 9.19a34.22 34.22 0 0 1 4.5-4l.4.4z" fill="#68a611"/></svg>