<svg xmlns="http://www.w3.org/2000/svg" width="16" height="16" viewBox="0 0 16 16"><defs><style>.cls-1{fill:#d93644;fill-opacity:0;}.cls-2{fill:none;stroke:#445d82;stroke-linecap:round;stroke-linejoin:round;stroke-width:2px;}</style></defs><g id="_16_Jira" data-name="16_Jira"><rect id="Container" class="cls-1" width="16" height="16"/><path class="cls-2" d="M10.54,15A9.31,9.31,0,0,0,7,9.71C4,7.51,4,6,4,6"/><path class="cls-2" d="M5,15a3.86,3.86,0,0,1,.76-2.28"/><path class="cls-2" d="M7.39,5.43a2,2,0,0,1,1.15,0c.07.11-.35.81-.54.81S7.36,5.55,7.39,5.43Z"/><path class="cls-2" d="M5,2.53Z"/><polyline class="cls-2" points="8 1.01 8 1.01 8 1.01"/><polyline class="cls-2" points="11 2.57 11 2.57 11 2.57"/><path class="cls-2" d="M12,6.08s-1.2,3.46-3.23,4.21"/></g></svg>