<svg xmlns="http://www.w3.org/2000/svg" width="16" height="16" viewBox="0 0 16 16"><defs><style>.cls-1{opacity:0;}.cls-2{fill:#e04c59;}.cls-3,.cls-4{fill:none;stroke:#445d82;stroke-linecap:round;stroke-linejoin:round;}.cls-3{stroke-width:2px;}</style></defs><g id="_16_Logon_Failure" data-name="16_Logon_Failure"><g id="Container" class="cls-1"><rect class="cls-2" width="16" height="16"/></g><path class="cls-3" d="M6.33,4.41a3.82,3.82,0,0,1,6.48-2.32c2.62,2.38.66,7.71-3.44,6.36"/><path class="cls-3" d="M4.26,14.78s-1.61.5-2,0-.09-2.39,0-2.68,2.1-2.72,3.33-4.26"/><polyline class="cls-4" points="7.02 11.25 6.88 11.88 5.45 12.04 6 13.42 4.48 13.53 4.72 14.63"/><ellipse class="cls-4" cx="10.86" cy="4.18" rx="0.95" ry="0.97"/><path class="cls-4" d="M8.14,7.26a5.2,5.2,0,0,0,1.6.79"/><line class="cls-3" x1="2.79" y1="2.43" x2="9.16" y2="14.35"/></g></svg>