<svg xmlns="http://www.w3.org/2000/svg" width="16" height="16" viewBox="0 0 16 16"><defs><style>.cls-1{fill:#f2616d;opacity:0;}.cls-2{fill:none;stroke:#445d82;stroke-linecap:round;stroke-linejoin:round;}</style></defs><g id="_16_Library" data-name="16_Library"><rect id="_Container_" data-name="&lt;Container&gt;" class="cls-1" width="16" height="16"/><path class="cls-2" d="M14.87,2.59c.25.09.18.22.23.57a66.14,66.14,0,0,1,.36,9.77c0,.42-.4.72-1,.71s-3.57-.14-4.48-.12c-.58,0-.8.21-.87.57s-2.24.39-2.27,0-.32-.58-.86-.58c-.89,0-3.91.12-4.49.13s-1-.29-1-.71A83.69,83.69,0,0,1,.93,2.79c0-.16.09-.28.34-.33"/><path class="cls-2" d="M8,2.17A3.29,3.29,0,0,0,5.67,1.3c-1,0-2,.3-3.31.27-.38,0-.66.14-.69.5a75.51,75.51,0,0,0-.23,9.42c0,.4.18.57.45.61a34.77,34.77,0,0,0,3.61-.22c1.09,0,1.49.6,1.88,1.62"/><path class="cls-2" d="M8,2.17a3.29,3.29,0,0,1,2.32-.87c1,0,2.05.3,3.35.27.39,0,.66.14.69.5a75.65,75.65,0,0,1,.25,9.42c0,.4-.18.57-.45.61-1.14.15-2.69-.25-4.06-.23-1.1,0-1.3.79-1.54,1.63"/><path class="cls-2" d="M8,2.63c-.31,4.23.18,7.44,0,11.06"/><path class="cls-2" d="M3.24,5.14a12.65,12.65,0,0,1,1.58,0,5.18,5.18,0,0,1,1.63,0"/><path class="cls-2" d="M3.34,7.05c.93.27,2.07-.16,3.15,0"/><path class="cls-2" d="M9.49,5.14a12.65,12.65,0,0,1,1.58,0,5.18,5.18,0,0,1,1.63,0"/><path class="cls-2" d="M9.59,7.05c.93.27,2.07-.16,3.15,0"/><path class="cls-2" d="M3.49,8.9c.73.15,2.55,0,2.9.1"/></g></svg>