<svg xmlns="http://www.w3.org/2000/svg" width="16" height="16" viewBox="0 0 16 16"><defs><style>.cls-1{fill:#d93644;fill-opacity:0;}.cls-2{fill:none;stroke:#445d82;stroke-linecap:round;stroke-linejoin:round;stroke-width:2px;}</style></defs><g id="_16_List_View" data-name="16_List_View"><rect id="Container" class="cls-1" width="16" height="16"/><line class="cls-2" x1="7" y1="5" x2="12" y2="5"/><line class="cls-2" x1="4" y1="5" x2="4" y2="5"/><line class="cls-2" x1="7" y1="8" x2="12" y2="8"/><line class="cls-2" x1="4" y1="8" x2="4" y2="8"/><line class="cls-2" x1="7" y1="11" x2="12" y2="11"/><line class="cls-2" x1="4" y1="11" x2="4" y2="11"/><path class="cls-2" d="M1.1,3.83c.16-1.62.47-2.56,2.22-2.72s8.6-.12,9.46,0a2.11,2.11,0,0,1,2.16,2.15C15,5,15,10,15,11.58c-.06,3-.53,3.32-3.39,3.32,0,0-7,.16-8.25.07-.9-.06-2.13-.12-2.2-2.7C1.09,11.23.88,6.07,1.1,3.83Z"/></g></svg>