<svg xmlns="http://www.w3.org/2000/svg" width="16" height="16" viewBox="0 0 16 16"><defs><style>.cls-1{fill:#d93644;fill-opacity:0;}.cls-2,.cls-3{fill:none;stroke:#445d82;stroke-linecap:round;stroke-linejoin:round;}.cls-2{stroke-width:2px;}</style></defs><g id="_16_Lunch" data-name="16_Lunch"><rect id="Container" class="cls-1" width="16" height="16"/><path class="cls-2" d="M3.58,7c-4.53-.39-1.92-5.91-.09-6C5.5.87,8,6.64,3.58,7Z"/><path class="cls-2" d="M12.12,7.34A2.78,2.78,0,0,0,14,4.8V1"/><path class="cls-2" d="M9,1V4.8a2.78,2.78,0,0,0,1.85,2.54"/><line class="cls-3" x1="11.52" y1="0.52" x2="11.5" y2="4.49"/><path class="cls-2" d="M3.49,7.79s-.13,4.57-1,6.09c0,0-.38,1.14,1.16,1.14s1.05-1.14,1.05-1.14c-1-1.7-1.17-6.09-1.17-6.09"/><path class="cls-2" d="M11.48,7.79s-.13,4.58-1,6.09c0,0-.38,1.14,1.16,1.14s1.05-1.14,1.05-1.14c-1-1.69-1.17-6.09-1.17-6.09"/></g></svg>