<svg xmlns="http://www.w3.org/2000/svg" width="16" height="16" viewBox="0 0 16 16"><defs><style>.cls-1{opacity:0;}.cls-2{fill:#e04c59;}.cls-3,.cls-4{fill:none;stroke:#445d82;stroke-linecap:round;stroke-linejoin:round;}.cls-3{stroke-width:2px;}</style></defs><g id="_16_Like" data-name="16_Like"><g id="Container" class="cls-1"><rect class="cls-2" width="16" height="16"/></g><path class="cls-3" d="M4.51,8.65c1.1,0,1.89-1.42,2.7-2.11,1.38-1.18,3-2.31,2.78-4.92-.05-.76,1.5-.84,1.92-.16,1.38,2.29-.46,4.4-.62,5.65"/><path class="cls-4" d="M14.12,9.09a5.25,5.25,0,0,1-1.52.32"/><path class="cls-4" d="M14.18,10.84a3.37,3.37,0,0,1-1.61.35"/><path class="cls-4" d="M13.75,12.66a4.29,4.29,0,0,1-1.44.2"/><path class="cls-3" d="M10.72,7.18a18.43,18.43,0,0,0,3.06,0c1,0,1.24,1.57.76,1.9.65.11.58,1.67,0,2h0c.48.05.3,2-.63,2,.23.18.27,1.18-.91,1.5-4.84,1.31-7.3-.94-8.83-.81"/><path class="cls-3" d="M3.91,8.24c-.36-.33-2.41-.31-2.63.17-.44,1-.32,5.41.06,5.75a3.12,3.12,0,0,0,2.49,0C4.05,14,4.33,8.65,3.91,8.24Z"/></g></svg>