<svg xmlns="http://www.w3.org/2000/svg" width="16" height="16" viewBox="0 0 16 16"><defs><style>.cls-1{fill:#5bb4f0;fill-opacity:0;}.cls-2,.cls-3{fill:none;stroke:#445d82;stroke-linecap:round;stroke-linejoin:round;}.cls-2{stroke-width:2px;}.cls-3{fill-rule:evenodd;}</style></defs><g id="_16_Price" data-name="16_Price"><rect id="Container" class="cls-1" width="16" height="16"/><path class="cls-2" d="M12.45,15c-1.38.12-3.39-.37-3.39-2.92a2.87,2.87,0,0,1,3-3,3,3,0,0,1,.41,6Z"/><path class="cls-2" d="M2.12,10a2.11,2.11,0,0,0-1,1.33,4.23,4.23,0,0,0,0,1.55C1.83,14.35,4.48,15.06,7,15"/><path class="cls-2" d="M2.34,6a2.13,2.13,0,0,0-1,1.33,4.22,4.22,0,0,0,0,1.55c.6,1.31,2.73,2,5,2.12"/><path class="cls-2" d="M1.54,3.43A4.71,4.71,0,0,0,1.54,5c1.3,2.83,9.81,2.85,11.09,0a3.13,3.13,0,0,0,0-1.55C12,.21,2.17.19,1.54,3.43Z"/><path class="cls-3" d="M11,2.3c1,.62.4,2-4.5,2.23"/></g></svg>