<svg data-name="Layer 4" xmlns="http://www.w3.org/2000/svg" width="16" height="16"><path d="M14.8 9.9l.8-.4a.39.39 0 0 0 .1-.7l-.9-.7.8-.4a.39.39 0 0 0 .1-.7l-1.5-1.1a7 7 0 0 0 1.2-2 .75.75 0 0 0-.1-.5c-.1-.1-5.2-3-5.3-3.1s-.6 0-.7.3C9 2 7.1 3.2 6.5 3.6a16.46 16.46 0 0 1-2.1.9A37.05 37.05 0 0 1 .5 5.9a.44.44 0 0 0-.1.8l.7.5-.8.5c-.3.2-.3.6 0 .7l.8.5-.7.5c-.3.2-.3.6 0 .7l.7.5-.7.5c-.3.2-.3.6 0 .7l5.3 3.5a.3.3 0 0 0 .4 0c2.9-1.3 5.6-2.6 9.6-4.4.4-.2.4-.5.2-.7-.2.3-.3.3-1.1-.3zm-.3-2.6l-2.6 1.1v-.6a19.58 19.58 0 0 0 1.7-1.2 7.05 7.05 0 0 0 .9.7zm0 1.7l-2.6 1.1v-.8l1.9-.9a2 2 0 0 0 .7.6zM9.9 1.4c.8.5 3.6 2.1 4.5 2.6a7.42 7.42 0 0 1-2.5 2.8c0-.1-4.3-2.7-4.4-2.8a6.73 6.73 0 0 0 2.4-2.6zm-5.4 4l4.4 2.7c-1.3.5-2.6 1.1-3.1 1.3L1.5 6.5c1.3-.4 2.2-.8 3-1.1zM1.8 7.8l3.7 2.5a.3.3 0 0 0 .4 0s1.6-.7 3.3-1.4v.7l-3.5 1.5-4.5-2.9zm0 1.8l3.7 2.5a.3.3 0 0 0 .4 0l3.3-1.5v.7l-3.5 1.6-4.6-3zm4 5.1l-4.5-3 .5-.4 3.7 2.5a.3.3 0 0 0 .4 0l3.3-1.5v.8zm3.9-6.5c0-.3-.1-.3-.4-.5L4.8 5c.5-.2 1.2-.5 1.8-.8l4.8 3v5.3l-1.8.8a49.11 49.11 0 0 0 .1-5.1zm2.2 3.8v-.8l2-.9s.6.4.7.5z" fill="#0089d9"/></svg>