<svg xmlns="http://www.w3.org/2000/svg" width="16" height="16" viewBox="0 0 16 16"><defs><style>.cls-1{fill:#e04c59;opacity:0;}.cls-2,.cls-3{fill:none;stroke:#445d82;stroke-linecap:round;stroke-linejoin:round;}.cls-2{stroke-width:2px;}</style></defs><g id="_16_Edit_File" data-name="16_Edit File"><rect id="Container" class="cls-1" width="16" height="16"/><path class="cls-2" d="M9.36,12.3S11.5,10,12.9,8.83a.6.6,0,0,1,.89,0l1,1a.67.67,0,0,1,0,.89A36.43,36.43,0,0,1,11,14.6a2.41,2.41,0,0,1-.65.34,6.51,6.51,0,0,1-1,0,.64.64,0,0,1-.63-.63s0-.74,0-1A4.34,4.34,0,0,1,9.36,12.3Z"/><line class="cls-3" x1="11.83" y1="9.91" x2="13.71" y2="11.79"/><path class="cls-3" d="M2.55,7C2.69,6.09,3.19,5.58,5,5.5A1.38,1.38,0,0,0,6.5,4.1c.09-1.75.55-2.57,1.5-2.6"/><path class="cls-2" d="M5,15c-1.27,0-2.75-.22-2.86-1.88-.15-2.26-.1-5.64,0-7a3,3,0,0,1,.85-1.88A18.71,18.71,0,0,1,5.56,1.78,3.72,3.72,0,0,1,7.62,1c.74,0,2.58,0,3.89,0s2.33.66,2.41,2.65c0,.28,0,.75.05,1.33"/></g></svg>