<svg xmlns="http://www.w3.org/2000/svg" width="16" height="16" viewBox="0 0 16 16"><defs><style>.cls-1{fill:#d93644;fill-opacity:0;}.cls-2{fill:none;stroke:#445d82;stroke-miterlimit:10;stroke-width:2px;}</style></defs><g id="_16_Note_Blank" data-name="16_Note_Blank"><rect id="Container" class="cls-1" width="16" height="16"/><path class="cls-2" d="M15,9.63c-.18.56-.35,1.41-1.63,1.34H11.68A1.53,1.53,0,0,0,10,12.29v1.34A1.55,1.55,0,0,1,8.3,15"/><path class="cls-2" d="M1.07,3.17A2,2,0,0,1,3.27,1h9.52A2,2,0,0,1,15,3.17c0,2.4,0,7.38,0,7.47s0,2.47-1.17,3.53a4.32,4.32,0,0,1-3,.8H3.27a2,2,0,0,1-2.2-2.17C1.05,11.75,1,5,1.07,3.17Z"/></g></svg>