<svg xmlns="http://www.w3.org/2000/svg" width="16" height="16" viewBox="0 0 16 16"><defs><style>.cls-1{fill:#d93644;fill-opacity:0;}.cls-2,.cls-3{fill:none;stroke:#445d82;}.cls-2{stroke-miterlimit:10;stroke-width:2px;}.cls-3{stroke-linecap:round;stroke-linejoin:round;}</style></defs><g id="_16_Note_Filled" data-name="16_Note_Filled"><rect id="Container" class="cls-1" width="16" height="16"/><path class="cls-2" d="M15,9.65c-.18.56-.35,1.41-1.63,1.34H11.68A1.54,1.54,0,0,0,10,12.32v1.34A1.54,1.54,0,0,1,8.3,15"/><path class="cls-2" d="M1.07,3.2A2,2,0,0,1,3.27,1h9.52A2,2,0,0,1,15,3.2c0,2.4,0,7.38,0,7.47s0,2.47-1.17,3.52a4.27,4.27,0,0,1-3,.8H3.27a2,2,0,0,1-2.2-2.16C1.05,11.77,1,5,1.07,3.2Z"/><path class="cls-3" d="M4.48,4.5h7"/><path class="cls-3" d="M4.48,7.51h7"/><path class="cls-3" d="M4.48,10.5h3"/></g></svg>