<svg xmlns="http://www.w3.org/2000/svg" width="16" height="16" viewBox="0 0 16 16"><defs><style>.cls-1{fill:#e04c59;opacity:0;}.cls-2{fill:none;stroke:#445d82;stroke-linecap:round;stroke-linejoin:round;stroke-width:2px;}</style></defs><g id="_16_Open_Folder" data-name="16_Open Folder"><rect id="Container" class="cls-1" width="16" height="16"/><path class="cls-2" d="M2.3,7.08c2.08-.26,9.45-.08,11.4,0A1.34,1.34,0,0,1,15,8.49a16.09,16.09,0,0,1-.36,3.65c-.29,1.3-.86,2.61-1.93,2.74s-7.34.15-9.4,0c-.83-.06-1.54-1.1-1.93-2.74A18.09,18.09,0,0,1,1,8.49,1.36,1.36,0,0,1,2.3,7.08Z"/><path class="cls-2" d="M1.51,4h0a2,2,0,0,1,2-2H6A1.29,1.29,0,0,1,7,2.58l.53.85A1.29,1.29,0,0,0,8.65,4h4.47s.74,0,.86.21"/></g></svg>