<svg id="Layer_1" data-name="Layer 1" xmlns="http://www.w3.org/2000/svg" width="37" height="16"><defs><style>.cls-1{fill:#0089d9}</style></defs><path class="cls-1" d="M7.5 6.4a1.1 1.1 0 1 0 1.1 1.1 1.11 1.11 0 0 0-1.1-1.1zm0-6.4A7.55 7.55 0 0 0 0 7.5 7.55 7.55 0 0 0 7.5 15a7.5 7.5 0 0 0 0-15zm0 14A6.5 6.5 0 1 1 14 7.5 6.49 6.49 0 0 1 7.5 14zm3-7.6a1.1 1.1 0 1 0 1.1 1.1 1.11 1.11 0 0 0-1.1-1.1zm-6 0a1.1 1.1 0 1 0 1.1 1.1 1.11 1.11 0 0 0-1.1-1.1zM28.5 0A7.55 7.55 0 0 0 21 7.5 7.5 7.5 0 1 0 28.5 0zm-3 8.6a1.1 1.1 0 1 1 1.1-1.1 1.11 1.11 0 0 1-1.1 1.1zm3 0a1.1 1.1 0 1 1 1.1-1.1 1.11 1.11 0 0 1-1.1 1.1zm3 0a1.1 1.1 0 1 1 1.1-1.1 1.11 1.11 0 0 1-1.1 1.1z"/></svg>