<svg xmlns="http://www.w3.org/2000/svg" width="16" height="16" viewBox="0 0 16 16"><defs><style>.cls-1{opacity:0;}.cls-2{fill:#e04c59;}.cls-3,.cls-4{fill:none;stroke:#445d82;stroke-linecap:round;stroke-linejoin:round;}.cls-3{stroke-width:2px;}</style></defs><g id="_16_Office" data-name="16_Office"><g id="Container" class="cls-1"><rect class="cls-2" width="16" height="16"/></g><path class="cls-3" d="M2,15H14"/><path class="cls-3" d="M13,14.79c0-4.54.25-13.38-.33-13.73S3.54,3.42,3.26,4.2,3,11.89,3,14.79"/><path class="cls-4" d="M6,5.51c.88,0,2.92-.06,4,0"/><path class="cls-4" d="M6,7.48c1.66,0,3,0,4,0"/><path class="cls-4" d="M6,9.49c1.17,0,2.72,0,4,0"/><path class="cls-4" d="M6.52,14.85a22.19,22.19,0,0,1,.09-3.24,10.58,10.58,0,0,1,2.81,0,21.37,21.37,0,0,1,.1,3.12"/><path class="cls-4" d="M7.51.51a11.75,11.75,0,0,0,0,1.31"/></g></svg>