<svg xmlns="http://www.w3.org/2000/svg" width="16" height="16" viewBox="0 0 16 16"><defs><style>.cls-1{fill:#d93644;fill-opacity:0;}.cls-2,.cls-3{fill:none;stroke:#445d82;stroke-width:2px;}.cls-2{stroke-miterlimit:10;}.cls-3{stroke-linecap:round;stroke-linejoin:round;}</style></defs><g id="_16_Settings" data-name="16_Settings"><rect id="Container" class="cls-1" width="16" height="16"/><path class="cls-2" d="M8,8.25c-.41,0-.22-.49,0-.49S8.29,8.25,8,8.25Z"/><path class="cls-2" d="M4.49,8c0,.26-.61.54-.61,0C3.88,7.71,4.49,7.5,4.49,8Z"/><path class="cls-2" d="M11.82,8.19c-.29,0-.19-.37,0-.37S12,8.2,11.82,8.19Z"/><path class="cls-3" d="M7.61,1h.84C14.31,1,15,1.68,15,7.61v.83C15,14.32,14.31,15,8.44,15H7.61C1.71,15,1,14,1,8.44V7.61C1,2,1.7,1,7.61,1Z"/></g></svg>