<svg xmlns="http://www.w3.org/2000/svg" width="16" height="16" viewBox="0 0 16 16"><defs><style>.cls-1{fill:#e04c59;opacity:0;}.cls-2,.cls-3{fill:none;stroke:#445d82;}.cls-2{stroke-linecap:round;stroke-linejoin:round;}.cls-3{stroke-miterlimit:10;stroke-width:2px;}</style></defs><g id="_16_Invoice" data-name="16_Invoice"><rect id="Container" class="cls-1" width="16" height="16"/><path class="cls-2" d="M9.27,6.85c-2-1.38-3.06,1.46-1.18,1.56,2.13.1,1.88,3.05-1,1.93"/><line class="cls-2" x1="8.49" y1="5.51" x2="8.49" y2="6.24"/><line class="cls-2" x1="8.49" y1="10.76" x2="8.49" y2="11.51"/><path class="cls-2" d="M2.55,7C2.69,6.09,3.19,5.58,5,5.5A1.38,1.38,0,0,0,6.5,4.1c.09-1.75.55-2.57,1.5-2.6"/><path class="cls-3" d="M13.92,12.33A2.72,2.72,0,0,1,11,15c-1.26,0-4.79,0-6,0s-2.75-.22-2.86-1.88c-.15-2.26-.1-5.64,0-7a3,3,0,0,1,.85-1.88A18.71,18.71,0,0,1,5.56,1.78,3.72,3.72,0,0,1,7.62,1c.74,0,2.58,0,3.89,0s2.33.66,2.41,2.65C14,5,14.05,10.15,13.92,12.33Z"/></g></svg>