<svg id="Layer_1" data-name="Layer 1" xmlns="http://www.w3.org/2000/svg" width="16" height="16"><defs><style>.cls-2{fill:#0089d9}</style></defs><g id="PDF"><path d="M10 0H1v16h13V4zm3 4h-3V1zm0 11H2V1h7v4h4z" fill-rule="evenodd" fill="#0089d9"/><path class="cls-2" d="M3 13V7h2.2l.6.6A3.78 3.78 0 0 1 6 8.8a3.07 3.07 0 0 1-.1 1 3.36 3.36 0 0 1-.3.6l-.5.4-.8.2H4v2zm1-5v2h.9l.3-.4a4.17 4.17 0 0 0 .1-.6.77.77 0 0 0-.2-.6.48.48 0 0 0-.2-.4z"/><path class="cls-2" d="M6 7h2a1 1 0 0 1 .5.6 2.4 2.4 0 0 1 .3.9 6.16 6.16 0 0 1 .2 1.6 3.78 3.78 0 0 1-.2 1.2 3 3 0 0 1-.3 1.1l-.5.5H6zm1 1v4h.6a.2.2 0 0 0 .2-.2c.1-.1.1-.3.2-.6V8.9c-.1-.2-.1-.4-.2-.5s-.1-.3-.2-.3H7z"/><path class="cls-2" d="M9 13V7h3v1h-2v2h1v1h-1v2z"/></g></svg>