<svg xmlns="http://www.w3.org/2000/svg" width="16" height="16" viewBox="0 0 16 16"><defs><style>.cls-1{fill:#e04c59;opacity:0;}.cls-2,.cls-3{fill:none;stroke:#445d82;stroke-linecap:round;stroke-linejoin:round;}.cls-3{stroke-width:2px;}</style></defs><g id="_16_Clipboard_Paper" data-name="16_Clipboard Paper"><rect id="Container" class="cls-1" width="16" height="16"/><line class="cls-2" x1="6" y1="5.51" x2="10" y2="5.51"/><line class="cls-2" x1="6" y1="8.5" x2="6.63" y2="8.5"/><line class="cls-2" x1="6" y1="11.51" x2="6.58" y2="11.51"/><line class="cls-3" x1="7" y1="1" x2="9" y2="1"/><rect class="cls-2" x="5.33" y="1" width="5.33" height="2" rx="0.41"/><path class="cls-3" d="M14.06,15H9.86A.85.85,0,0,1,9,14V9.16C9,8.5,9.26,8,10,8h3a3.49,3.49,0,0,1,2,2v4.07A.91.91,0,0,1,14.06,15Z"/><polyline class="cls-2" points="12.51 8 12.49 10.5 15 10.5"/><path class="cls-3" d="M6.64,15H4.88c-1,0-1.73-.58-1.88-1.89S2.88,5.25,3,3.89,3.84,2,4.87,2h6.26A1.88,1.88,0,0,1,13,3.89V5"/></g></svg>