<svg xmlns="http://www.w3.org/2000/svg" width="16" height="16" viewBox="0 0 16 16"><defs><style>.cls-1{fill:#d93644;fill-opacity:0;}.cls-2,.cls-3{fill:none;stroke:#445d82;stroke-linecap:round;stroke-linejoin:round;}.cls-2{stroke-width:2px;}</style></defs><g id="_16_Panel" data-name="16_Panel"><rect id="Container" class="cls-1" width="16" height="16"/><path class="cls-2" d="M1.11,4.15c.18-1.81.53-2.85,2.46-3a86,86,0,0,1,9,0,2.34,2.34,0,0,1,2.39,2.39c.12,2,.06,5.89,0,7.69-.07,3.37-.59,3.69-3.77,3.69,0,0-6.23.18-7.62.08-1-.07-2.36-.13-2.44-3A73.42,73.42,0,0,1,1.11,4.15Z"/><line class="cls-3" x1="7.51" y1="13.99" x2="7.51" y2="2.01"/><path class="cls-3" d="M4.35,4.33c.33-.22.52.18.32.34S4.05,4.54,4.35,4.33Z"/><path class="cls-3" d="M4.17,7.52a3.66,3.66,0,0,1,.74,0"/></g></svg>