<svg xmlns="http://www.w3.org/2000/svg" width="16" height="16" viewBox="0 0 16 16"><defs><style>.cls-1{fill:#d93644;fill-opacity:0;}.cls-2,.cls-3{fill:none;stroke:#445d82;stroke-linecap:round;stroke-linejoin:round;}.cls-2{stroke-width:2px;}</style></defs><g id="_16_Phone" data-name="16_Phone"><rect id="Container" class="cls-1" x="0.03" y="-0.01" width="15.97" height="15.97"/><path class="cls-2" d="M11.17,10.89a1.37,1.37,0,0,1,.38-1.11c.63-.43,1.82.2,2.66,1.42s1,2.55.38,3a.93.93,0,0,1-.81.08"/><path class="cls-2" d="M9.62,6.44A1.28,1.28,0,0,0,10.77,7c.85-.15,1.29-1.63,1-3.29S10.45.89,9.6,1a1.45,1.45,0,0,0-1,1"/><path class="cls-2" d="M8.33,2.21c-4,1.31-4.59,5.7-3,8.73,1.46,2.87,4.1,4.82,7.51,3.68.19-.06.39-.14.58-.22"/><path class="cls-3" d="M9,6.67C7.42,6,7,7.86,7.42,9.21c.45,1.51,2.31,3.44,3.29,1.49"/><path class="cls-3" d="M4.38,10s2.39,5.92-.68,4.88S.5,9.72,2.46,11.26c1.43,1.12,1.26,4.14.08,4.17-.88,0-2-1.11-2-1.11"/></g></svg>