<svg data-name="16_phone" xmlns="http://www.w3.org/2000/svg" width="16" height="16"><path d="M15.7 14.9h-.6a1.51 1.51 0 0 0 1.1-1.4 1.6 1.6 0 0 0-1.6-1.5 1.5 1.5 0 0 0-1.5 1.5 3.09 3.09 0 0 0 .2.9 1.2 1.2 0 0 1-1.5.5l.5-.5c-.2-1.6-1.9-3.5-3.5-4.3a5.67 5.67 0 0 0-2 1.8c-1-.3-1.7-1.4-2.3-2.6a4.9 4.9 0 0 1-1-3.3A4.66 4.66 0 0 0 6 5.2 6.78 6.78 0 0 0 4 0C.9.8-1.9 4.6 1.6 10.9s6.7 5.8 9.2 4.6a1.7 1.7 0 0 0 2.4 0 1.43 1.43 0 0 0 .2-.23 1.8 1.8 0 0 0 2.53.26l.07-.03c.1-.1 0-.5-.3-.6zM2.5 10.3C.5 6.8.3 3 3.7 1.4a5.4 5.4 0 0 1 1.3 3 3.48 3.48 0 0 1-2.6.6 7.28 7.28 0 0 0 1.2 4.8 7.22 7.22 0 0 0 3.6 3.5c.3-.8 1.1-1.8 1.7-1.9a4.51 4.51 0 0 1 2 2.7c-3.1 2.1-6.3-.1-8.4-3.8zM15.1 14h-1v-1h1z" fill="#0089d9" fill-rule="evenodd"/></svg>