<svg xmlns="http://www.w3.org/2000/svg" width="16" height="16" viewBox="0 0 16 16"><defs><style>.cls-1{fill:#d93644;fill-opacity:0;}.cls-2,.cls-3{fill:none;stroke:#445d82;stroke-linecap:round;stroke-linejoin:round;}.cls-2{stroke-width:2px;}</style></defs><g id="_16_Print" data-name="16_Print"><rect id="Container" class="cls-1" width="16" height="16"/><path class="cls-2" d="M4,9c0,.86-.08,5.11.25,5.55s5.93.41,6.37.39c1.27-.05,1.35-.14,1.35-1.71,0-1.37-.07-3.32-.1-4.23"/><path class="cls-2" d="M12.51,10.56c2.46,0,2.4-.41,2.45-1.88C15,8.08,15,7,15,6c-.09-1.58-.48-1.82-2.12-1.91C11.43,4,5.24,4,3.14,4.07,1.35,4.13,1.1,4.43,1,6c0,1,0,2.21,0,2.7.1,1.55,0,1.93,2.45,1.88"/><path class="cls-2" d="M3.68,4c0-.73-.09-2.59.25-2.81.55-.36,7.93-.2,8.14.16A8.52,8.52,0,0,1,12.33,4"/><path class="cls-3" d="M2.93,8.5H13.06"/></g></svg>