<svg data-name="Layer 1" xmlns="http://www.w3.org/2000/svg" width="16" height="16"><path d="M9.2 2.2L8 2H7c-4.1.7-7 5.4-7 5.4s3 4.6 6.8 5.4L8 13l1.3-.2C13 12 15.9 7.7 16 7.5S13.1 3 9.2 2.2zM3.5 9.8a24.06 24.06 0 0 1-2.1-2.3 24.06 24.06 0 0 1 2.1-2.3A5.91 5.91 0 0 0 3 7.5a5.54 5.54 0 0 0 .5 2.3zM8 12a4.3 4.3 0 0 1-4-4.5A4.3 4.3 0 0 1 8 3a4.3 4.3 0 0 1 4 4.5A4.3 4.3 0 0 1 8 12zm4.6-2.2a5.81 5.81 0 0 0 .4-2.3 8.54 8.54 0 0 0-.4-2.3c1 1 1.7 2 2 2.3s-1 1.3-2 2.3zM8 5l-1 .2a1.23 1.23 0 0 1 .4.8 1 1 0 0 1-1 1h-.1a1.09 1.09 0 0 1-.7-.3c0 .3-.1.5-.1.8A2.5 2.5 0 0 0 8 10a2.59 2.59 0 0 0 2.6-2.5A2.59 2.59 0 0 0 8 5z" fill="#0089d9" fill-rule="evenodd"/></svg>