<svg xmlns="http://www.w3.org/2000/svg" width="16" height="16" viewBox="0 0 16 16"><defs><style>.cls-1{fill:#d93644;fill-opacity:0;}.cls-2,.cls-3{fill:none;stroke:#445d82;}.cls-2{stroke-miterlimit:10;stroke-width:2px;}.cls-3{stroke-linecap:round;stroke-linejoin:round;}</style></defs><g id="_16_Platform_mobile" data-name="16_Platform mobile"><rect id="Container" class="cls-1" width="16" height="16"/><path class="cls-2" d="M4.82,1.13a28.32,28.32,0,0,1,5.37,0,1.89,1.89,0,0,1,1.62,1.74,62.6,62.6,0,0,1,0,9.8c-.17,1.4-.82,2.08-1.88,2.21a24.86,24.86,0,0,1-4.88,0c-1-.14-1.71-.81-1.85-2.21a59.34,59.34,0,0,1,0-9.8A1.74,1.74,0,0,1,4.82,1.13Z"/><line class="cls-3" x1="11.72" y1="3.51" x2="3.15" y2="3.51"/><line class="cls-3" x1="11.57" y1="12.5" x2="3" y2="12.5"/></g></svg>