<svg xmlns="http://www.w3.org/2000/svg" width="16" height="16" viewBox="0 0 16 16"><defs><style>.cls-1{fill:#d93644;fill-opacity:0;}.cls-2,.cls-3{fill:none;stroke:#445d82;stroke-linecap:round;stroke-linejoin:round;}.cls-2{stroke-width:2px;}</style></defs><g id="_16_Rotate_CCW" data-name="16_Rotate_CCW"><rect id="Container" class="cls-1" width="16" height="16"/><path class="cls-2" d="M6.61,14A28.61,28.61,0,0,0,12,13.6c.72-.11,1-.26,1-1.15,0-1.71-.24-5.37-.48-7.55C12.33,3.39,12.09,3,11.09,3a36.94,36.94,0,0,0-4.74.36C5.32,3.5,5,3.75,5,4.82c0,1.85.21,5.31.45,7.63C5.59,13.72,5.76,13.9,6.61,14Z"/><polyline class="cls-2" points="2.43 4.56 1.05 5.99 0.99 4.09"/><path class="cls-3" d="M5.68.49c-2.26,0-3.12,1.6-4.3,4.34"/></g></svg>