<svg xmlns="http://www.w3.org/2000/svg" width="16" height="16" viewBox="0 0 16 16"><defs><style>.cls-1{fill:#d93644;fill-opacity:0;}.cls-2{fill:none;stroke:#445d82;stroke-linecap:round;stroke-linejoin:round;stroke-width:2px;}</style></defs><g id="_16_Refresh" data-name="16_Refresh"><rect id="Container" class="cls-1" width="16" height="16"/><path class="cls-2" d="M14,10.11c-.89.72-5.2,0-6.56-.87C7,9,9.29,7.4,9,7,7.34,4.11,3.78,5.59,3.68,8.7c-.09,2.66,1.48,4.88,4.68,5.62.91.21.81.68,0,.68A7.23,7.23,0,0,1,1,7.61C1,.15,9.86-.79,12.14,3.76c.25.5,2.67-1.71,2.73-1.29C15.26,5.05,14.72,9.5,14,10.11Z"/></g></svg>