<svg xmlns="http://www.w3.org/2000/svg" width="16" height="16" viewBox="0 0 16 16"><defs><style>.cls-1{fill:#d93644;fill-opacity:0;}.cls-2,.cls-3{fill:none;stroke:#445d82;stroke-linecap:round;stroke-linejoin:round;}.cls-2{stroke-width:2px;}</style></defs><g id="_16_Rotate_CW" data-name="16_Rotate_CW"><rect id="Container" class="cls-1" width="16" height="16"/><path class="cls-2" d="M9.39,14A28.61,28.61,0,0,1,4,13.6c-.72-.11-1-.26-1-1.15,0-1.71.24-5.37.48-7.55C3.67,3.39,3.91,3,4.91,3a36.94,36.94,0,0,1,4.74.36c1,.15,1.36.4,1.35,1.47,0,1.85-.21,5.31-.45,7.63C10.41,13.72,10.24,13.9,9.39,14Z"/><polyline class="cls-2" points="13.57 4.56 14.95 5.99 15.01 4.09"/><path class="cls-3" d="M10.32.49c2.26,0,3.12,1.6,4.3,4.34"/></g></svg>