<svg xmlns="http://www.w3.org/2000/svg" width="16" height="16" viewBox="0 0 16 16"><defs><style>.cls-1{opacity:0;}.cls-2{fill:#e04c59;}.cls-3,.cls-4{fill:none;stroke:#445d82;stroke-linecap:round;stroke-linejoin:round;}.cls-3{stroke-width:2px;}</style></defs><g id="_16_Alarm" data-name="16_Alarm"><g id="Container" class="cls-1"><rect class="cls-2" y="-0.02" width="16" height="16"/></g><path class="cls-3" d="M14.1,8A6,6,0,0,1,8,14,5.85,5.85,0,0,1,2,7.88a5.77,5.77,0,0,1,6.13-6A6.08,6.08,0,0,1,14.1,8Z"/><path class="cls-4" d="M8.94,4.46a12.06,12.06,0,0,0-1.3,2.32L8.29,7Z"/><path class="cls-4" d="M10.07,9.8A14.24,14.24,0,0,0,8.29,7.5l-.51.39Z"/><rect class="cls-3" x="7.78" y="7.3" transform="translate(-2.66 9.5) rotate(-55.06)"/><path class="cls-4" d="M11.55,7.58s0,0,0,0"/><path class="cls-4" d="M4.57,7.93s0,0,0,0"/><path class="cls-4" d="M8.05,11.49s0,0,0,0"/><path class="cls-3" d="M14.58,4.09c1.52-2.54-2.12-4-3-2.45C11.17,2.39,14.33,4.51,14.58,4.09Z"/><line class="cls-3" x1="3.39" y1="12.98" x2="2.15" y2="14.94"/><line class="cls-3" x1="12.4" y1="12.69" x2="14" y2="14.94"/><path class="cls-3" d="M1.38,4.05C-.13,1.51,3.5,0,4.37,1.6,4.79,2.35,1.63,4.47,1.38,4.05Z"/></g></svg>