<svg xmlns="http://www.w3.org/2000/svg" width="16" height="16" viewBox="0 0 16 16"><defs><style>.cls-1{fill:#d93644;fill-opacity:0;}.cls-2{fill:none;stroke:#445d82;stroke-linecap:round;stroke-linejoin:round;stroke-width:2px;}</style></defs><g id="_16_Replace" data-name="16_Replace"><rect id="Container" class="cls-1" width="16" height="16"/><path class="cls-2" d="M4.52,11.61S2.21,14.25,2.15,14c-.32-1.47-.09-4.43.48-4.82s3.85.3,5.32,1C8.31,10.38,4.52,11.61,4.52,11.61Z"/><path class="cls-2" d="M14,10.19c-.36,5-6.35,7-9.55,1.5"/><path class="cls-2" d="M11.47,4.38S13.78,1.74,13.84,2c.32,1.46.09,4.43-.48,4.82s-3.85-.3-5.32-1C7.68,5.61,11.47,4.38,11.47,4.38Z"/><path class="cls-2" d="M2,5.79c.36-5,6.34-7,9.55-1.49"/><rect id="Container-2" data-name="Container" class="cls-1" y="-0.02" width="16" height="16"/><path class="cls-2" d="M2.65,9.13c.6-.4,3.38.08,4.84.82.37.18-1.12,1.35-1.12,1.35,1.09,2.16,5.59,2.22,7.18-1.17.22-.47.46-.39.45,0-.13,5-7.58,6.35-10.16,2.9,0,0-1.64,1-1.7.71C1.82,12.32,2.08,9.52,2.65,9.13Z"/><path class="cls-2" d="M13.36,6.84c-.6.4-3.39-.08-4.85-.82-.37-.18,1.12-1.35,1.12-1.35C8.54,2.52,4,2.46,2.45,5.84c-.22.47-.48.39-.45,0,.36-5,7.48-6.33,10.16-2.9,0,0,1.64-1,1.7-.7C14.18,3.66,13.93,6.45,13.36,6.84Z"/></g></svg>