<svg id="Layer_1" data-name="Layer 1" xmlns="http://www.w3.org/2000/svg" width="16" height="16"><defs><style>.cls-1{fill:#0089d9;fill-rule:evenodd}</style></defs><g id="Report"><path class="cls-1" d="M15.5 15H1V.5A.5.5 0 0 0 .5 0a.5.5 0 0 0-.5.5v15a.5.5 0 0 0 .5.5h15a.5.5 0 0 0 0-1z"/><path class="cls-1" d="M3.5 6a.5.5 0 0 1 .5.5v6a.5.5 0 0 1-1 0v-6a.5.5 0 0 1 .5-.5zM9.5 5a.5.5 0 0 1 .5.5v7a.5.5 0 0 1-1 0v-7a.5.5 0 0 1 .5-.5zM6.5 3a.5.5 0 0 1 .5.5v9a.5.5 0 0 1-1 0v-9a.5.5 0 0 1 .5-.5zM12.5 0a.5.5 0 0 1 .5.5v12a.5.5 0 0 1-1 0V.5a.5.5 0 0 1 .5-.5z"/></g></svg>