<svg xmlns="http://www.w3.org/2000/svg" width="16" height="16" viewBox="0 0 16 16"><defs><style>.cls-1{fill:#d93644;fill-opacity:0;}.cls-2,.cls-3{fill:none;stroke:#445d82;stroke-linecap:round;stroke-linejoin:round;}.cls-2{stroke-width:2px;}</style></defs><g id="_16_Save" data-name="16_Save"><rect id="Container" class="cls-1" width="16" height="16"/><path class="cls-2" d="M1.05,12.88c0,2.17,1.57,1.95,2.61,2.07s6.23,0,8.76,0c2.06,0,2.4-1.23,2.52-2.08s0-8.29,0-9-2.3-2.57-2.72-2.57H3.07c-.79,0-1.85.31-2,1.37S1.05,11.68,1.05,12.88Z"/><path class="cls-2" d="M4.3,1.45c.47-.05,5.9-.17,6.38-.05s.46,4.8,0,5.25-6,.5-6.38,0S3.82,1.5,4.3,1.45Z"/><path class="cls-3" d="M4.5,10.49c1,0,5.05,0,6,0"/><path class="cls-3" d="M8.5,3.5a4.66,4.66,0,0,1,0,1"/></g></svg>