<svg width="17" height="16" viewBox="0 0 17 16" fill="none" xmlns="http://www.w3.org/2000/svg">
<g clip-path="url(#clip0_7600:21252)">
<path d="M13.9206 14.0686C14.8859 13.1661 15.5865 12.0178 15.9473 10.7474C16.3394 9.36581 16.4092 7.91294 16.1513 6.50024C13.6384 6.50024 11.1257 6.50024 8.61328 6.50024C8.61328 7.54068 8.61328 8.58131 8.61328 9.62219C10.0684 9.62219 11.5233 9.62219 12.9779 9.62219C12.891 10.1207 12.7041 10.5965 12.4284 11.0211C12.1528 11.4457 11.7941 11.8102 11.3739 12.093C12.1333 12.8592 12.9894 13.5235 13.9206 14.0686Z" fill="#4285F4"/>
<path d="M1.45703 11.5917C2.33259 10.9143 3.20748 10.2365 4.08171 9.55786C4.41942 10.5493 5.06194 11.4088 5.91768 12.014C6.45214 12.3915 7.05953 12.6535 7.70105 12.7835C8.33242 12.9026 8.98036 12.9046 9.61239 12.789C10.2423 12.6829 10.843 12.4458 11.3757 12.0936C12.2232 12.7537 13.0719 13.4124 13.9217 14.0693C12.9947 14.9111 11.8647 15.4982 10.6424 15.7731C9.29295 16.09 7.88666 16.0749 6.54435 15.7293C5.48354 15.4462 4.49266 14.9474 3.63371 14.2643C2.72384 13.5405 1.98133 12.6288 1.45703 11.5917Z" fill="#34A853"/>
<path d="M0.760831 6.41887C0.901535 5.72028 1.13559 5.04376 1.45679 4.40747L4.08216 6.44228C3.73867 7.45238 3.73867 8.54762 4.08216 9.55772C3.20749 10.2351 2.3326 10.9129 1.45749 11.5916C0.652963 9.99354 0.4077 8.17239 0.760831 6.41887Z" fill="#FBBC05"/>
<path d="M5.99504 0.438019C7.7463 -0.16226 9.65058 -0.145385 11.391 0.485483C12.3471 0.843396 13.223 1.38637 13.9684 2.08335C13.7191 2.35434 13.4477 2.60577 13.1897 2.8701C12.6986 3.35836 12.2075 3.8484 11.7164 4.34021C11.2274 3.87333 10.6362 3.52661 9.98971 3.32752C9.16185 3.07791 8.28116 3.06082 7.44421 3.2781C6.60727 3.49538 5.84639 3.93868 5.24504 4.55932C4.72031 5.09269 4.32291 5.73746 4.0824 6.44556L1.45703 4.41108C2.39653 2.54912 4.0237 1.1244 5.99504 0.438019Z" fill="#EA4335"/>
</g>
<defs>
<clipPath id="clip0_7600:21252">
<rect width="16" height="16" fill="white" transform="translate(0.5)"/>
</clipPath>
</defs>
</svg>
