<svg xmlns="http://www.w3.org/2000/svg" width="16" height="16" viewBox="0 0 16 16"><defs><style>.cls-1{opacity:0;}.cls-2{fill:#e04c59;}.cls-3{fill:none;stroke:#445d82;stroke-linecap:round;stroke-linejoin:round;stroke-width:2px;}</style></defs><g id="_16_Reply" data-name="16_Reply"><g id="Container" class="cls-1"><rect class="cls-2" width="16" height="16"/></g><path class="cls-3" d="M1,5.62c0,1,2.78,3.47,4.79,4.35.5.22.45-2,.66-2a10.39,10.39,0,0,1,3.92.43c1.71.8,2.54,4.09-1.78,6.14-.65.32-.2.51.41.45,7.89-.75,7.63-10.79,1.48-11.72a28.5,28.5,0,0,0-4-.24C6.16,3,6.2.84,5.83,1,3.92,2,1,4.66,1,5.62Z"/></g></svg>