<svg xmlns="http://www.w3.org/2000/svg" width="16" height="16" viewBox="0 0 16 16"><defs><style>.cls-1{opacity:0;}.cls-2{fill:#e04c59;}.cls-3,.cls-4{fill:none;stroke:#445d82;stroke-linecap:round;stroke-linejoin:round;}.cls-3{stroke-width:2px;}</style></defs><g id="_16_Cogwheel" data-name="16_Cogwheel"><g id="_16_Cogwheel-2" data-name="16_Cogwheel"><g id="Container" class="cls-1"><rect class="cls-2" x="0.02" y="0.01" width="15.98" height="15.98"/></g><path class="cls-3" d="M13.53,3.19c0,.44-1.26,1.37-1.27,1.59A3.59,3.59,0,0,0,13,6.15c.19.14,1.46-.12,1.82.35a5.29,5.29,0,0,1-.14,3.32c-.34.39-1.57.3-1.81.4a2.67,2.67,0,0,0-.72,1.28c0,.26.71,1.26.53,1.94S10.43,15.08,9.83,15s-1.24-1.37-1.46-1.48a1.55,1.55,0,0,0-1,0c-.24.1-.83,1.42-1.38,1.53-1,.22-3.12-1.48-3.25-2.21s1-1.44,1-1.74a2,2,0,0,0-.6-1.12c-.22-.15-1.43-.07-1.89-.34s-.05-3.66.29-4,1.53.1,1.81,0a1.46,1.46,0,0,0,.68-1c0-.29-.58-1.6-.43-2A4.75,4.75,0,0,1,6.2,1.12c.66.09,1.1,1.39,1.26,1.47a9.05,9.05,0,0,0,1.75.06c.24,0,.44-1.58.94-1.64S13.55,2.74,13.53,3.19Z"/><path class="cls-4" d="M9.47,8.42a1.5,1.5,0,0,1-1.93,1,1.48,1.48,0,0,1-1-1.88A1.62,1.62,0,0,1,8.42,6.49C9.32,6.57,9.67,7.36,9.47,8.42Z"/></g></g></svg>