<svg xmlns="http://www.w3.org/2000/svg" width="16" height="16" viewBox="0 0 16 16"><defs><style>.cls-1{fill:#e04c59;opacity:0;}.cls-2,.cls-3{fill:none;stroke:#445d82;stroke-linecap:round;stroke-linejoin:round;}.cls-2{stroke-width:2px;}</style></defs><g id="_16_Share_Folder" data-name="16_Share Folder"><rect id="Container" class="cls-1" width="16" height="16"/><path class="cls-2" d="M13.07,11.15c1.18-.35,2.49.61,1.68,1.22a12.25,12.25,0,0,1-6.12,1.82c-1.5,0-3.49-1.34-6.55-1.34-1.24,0-1.32-2-.72-2.21,2.92-1.16,5.61.15,9.3-1.16"/><path class="cls-2" d="M2,7.41V5.67A1.78,1.78,0,0,1,3.8,3.92h8.4A1.78,1.78,0,0,1,14,5.67V8"/><path class="cls-2" d="M2,6.25V3.82A1.82,1.82,0,0,1,3.8,2H6.11a1.17,1.17,0,0,1,1,.54l.49.74A2.15,2.15,0,0,0,9,3.92"/><path class="cls-3" d="M8.6,11.48a13.31,13.31,0,0,0,4.32-.8"/></g></svg>