<svg xmlns="http://www.w3.org/2000/svg" width="16" height="16" viewBox="0 0 16 16"><defs><style>.cls-1{fill:#d93644;fill-opacity:0;}.cls-2,.cls-3{fill:none;stroke:#445d82;stroke-linecap:round;stroke-linejoin:round;}.cls-2{stroke-width:2px;}</style></defs><g id="_16_Storage-2" data-name="16_Storage"><rect id="Container" class="cls-1" width="16" height="16"/><path class="cls-2" d="M7.68,14s5.09-1.91,5.73-2.55c.31-.31.37-1.57.29-3.21"/><line class="cls-3" x1="7.51" y1="6.99" x2="7.51" y2="13.99"/><line class="cls-3" x1="13.28" y1="4.32" x2="7.55" y2="6.87"/><line class="cls-3" x1="7.54" y1="6.74" x2="13.28" y2="4.32"/><line class="cls-3" x1="1.93" y1="4.44" x2="7.65" y2="6.67"/><polyline class="cls-3" points="13.75 4.04 8 2 1.88 4.15"/><path class="cls-2" d="M7.67,14s-5.11-1.91-5.73-2.55c-.27-.28-.31-1.68-.26-3.15"/><polyline class="cls-2" points="8.54 6.99 9.98 10 15 7.64 13.41 4.46"/><polyline class="cls-2" points="1.96 4.64 1.01 8 5.01 10 6.35 6.87"/></g></svg>