<svg xmlns="http://www.w3.org/2000/svg" width="16" height="16" viewBox="0 0 16 16"><defs><style>.cls-1{opacity:0;}.cls-2{fill:#e04c59;}.cls-3,.cls-4{fill:none;stroke:#445d82;stroke-linecap:round;stroke-linejoin:round;}.cls-3{stroke-width:2px;}</style></defs><g id="_16_key" data-name="16_key"><g id="Container" class="cls-1"><rect class="cls-2" width="16" height="16"/></g><path class="cls-3" d="M3,14.8s-1.38.43-1.76,0S1,12,1.27,11.6C1.7,10.88,4.12,8.53,5.18,7c-1-3.2.94-5.22,3.35-5"/><polyline class="cls-4" points="5.77 11.6 4.2 11.78 4.82 13.32 3.16 13.43 3.51 14.63"/><path class="cls-3" d="M5.58,11a17.2,17.2,0,0,1,2.3-2c4.36,1,6.22-3.65,3.54-6.05"/><path class="cls-4" d="M9.4,3.55c-2.17.35.07,3.13,1.26,1.39"/><path class="cls-4" d="M12.57,4.29C17.14,2.8,15.82-.54,12.23.84,9.24,2,9.34,4.29,10.57,4.52"/></g></svg>