<svg id="_16_Shopping_Cart" data-name="16_Shopping Cart" xmlns="http://www.w3.org/2000/svg" width="16" height="16" viewBox="0 0 16 16"><defs><style>.cls-1{fill:#d93644;fill-opacity:0;}.cls-2,.cls-3{fill:none;stroke:#445d82;stroke-linecap:round;stroke-linejoin:round;}.cls-2{stroke-width:2px;}</style></defs><path id="Container" class="cls-1" d="M0,0H16V16H0Z"/><path id="Op_component_1" data-name="Op component 1" class="cls-2" d="M13.41,3A1.64,1.64,0,0,1,15,4.89a6.62,6.62,0,0,1-1,3.33,3.47,3.47,0,0,1-1.6,1.36c-1,.4-6.35.52-7.49.41-.74-.07-.94-.35-1-1a23.94,23.94,0,0,0-1-6.32C4.7,3.31,11.35,2.92,13.41,3Z"/><path id="Op_component_1-2" data-name="Op component 1" class="cls-2" d="M2,1.05c-.43-.11-.86.6-1,.25S1.63,1,2,1.05Z"/><path class="cls-2" d="M2.9,2.63C2.68,1.87,2.41,1.17,2,1.05"/><path class="cls-3" d="M6.73,7.73c-.05.12-.15.15-.29,0a.22.22,0,0,1-.07-.3c.06-.1.14-.15.29-.06A.26.26,0,0,1,6.73,7.73Z"/><path class="cls-3" d="M10.1,7.73c-.06.12-.16.15-.3,0a.22.22,0,0,1-.07-.3.19.19,0,0,1,.3-.06A.26.26,0,0,1,10.1,7.73Z"/><path class="cls-3" d="M8.47,5.52c-.05.13-.15.15-.29.06a.24.24,0,0,1-.07-.31c.06-.1.14-.14.29,0A.23.23,0,0,1,8.47,5.52Z"/><path class="cls-3" d="M11.72,5.52c-.05.13-.15.15-.29.06a.24.24,0,0,1-.07-.31c.06-.1.14-.14.29,0A.22.22,0,0,1,11.72,5.52Z"/><path class="cls-2" d="M6.38,14a1,1,0,0,1-.92,1c-.49.09-.92-.44-.92-1a1,1,0,0,1,.92-1C6.15,13,6.38,13.42,6.38,14Z"/><path class="cls-2" d="M12,13.91a1,1,0,0,1-1,1,1.08,1.08,0,0,1-1-1.08A.91.91,0,0,1,11,13,1,1,0,0,1,12,13.91Z"/><path class="cls-3" d="M3.4,9c0,.53,0,1.09.05,1.32,0,1,.24,1.39.9,1.58a44.61,44.61,0,0,0,6.53.29,1.9,1.9,0,0,1,1.66.75"/></svg>