<svg xmlns="http://www.w3.org/2000/svg" width="16" height="16" viewBox="0 0 16 16"><defs><style>.cls-1{fill:#d93644;fill-opacity:0;}.cls-2{fill:none;stroke:#445d82;stroke-linecap:round;stroke-linejoin:round;stroke-width:2px;}</style></defs><g id="_16_Tile_View" data-name="16_Tile View"><rect id="Container" class="cls-1" width="16" height="16"/><path class="cls-2" d="M5,6A25.8,25.8,0,0,1,2,6,1,1,0,0,1,1,5a25.44,25.44,0,0,1,0-2.9c.05-.65.33-.94.92-1A18.27,18.27,0,0,1,5,1.08a.92.92,0,0,1,.92,1,17.53,17.53,0,0,1,0,2.9A1,1,0,0,1,5,6Z"/><path class="cls-2" d="M14,6a25.8,25.8,0,0,1-3,0A.94.94,0,0,1,10,5a25.44,25.44,0,0,1,0-2.9c.05-.65.33-.94.92-1a18.27,18.27,0,0,1,3,0c.58.06.86.35.92,1a17.53,17.53,0,0,1,0,2.9A1,1,0,0,1,14,6Z"/><path class="cls-2" d="M5,15C4,15,2.79,15,2,15A1,1,0,0,1,1,14a25.44,25.44,0,0,1,0-2.9c.05-.65.33-1,.92-1a17.37,17.37,0,0,1,3.06,0c.58.06.86.35.92,1a18.7,18.7,0,0,1,0,2.9A1,1,0,0,1,5,15Z"/><path class="cls-2" d="M14,15c-1,0-2.23,0-3.06,0A1,1,0,0,1,10,14a28,28,0,0,1,0-2.9c.05-.65.33-1,.92-1a17.37,17.37,0,0,1,3.06,0c.58.06.86.35.92,1a18.7,18.7,0,0,1,0,2.9A1,1,0,0,1,14,15Z"/></g></svg>