<svg xmlns="http://www.w3.org/2000/svg" width="16" height="16" viewBox="0 0 16 16"><defs><style>.cls-1{fill:#e04c59;opacity:0;}.cls-2,.cls-3{fill:none;stroke:#445d82;}.cls-2{stroke-linecap:round;stroke-linejoin:round;}.cls-3{stroke-miterlimit:10;stroke-width:2px;}</style></defs><g id="_16_Text" data-name="16_Text"><rect id="Container" class="cls-1" width="16" height="16"/><path class="cls-2" d="M2.51,6.9c.12-.83.56-1.27,2.18-1.4,1.25-.1,1.71-.57,1.8-1.81C6.61,2,7,1.53,7.84,1.5"/><path class="cls-3" d="M13.93,12.43A2.49,2.49,0,0,1,11.32,15c-1.14,0-5.53,0-6.66,0s-2.47-.21-2.57-1.8C2,11,2,7.19,2.05,5.91a3,3,0,0,1,.77-1.82A17,17,0,0,1,5.2,1.75,3.2,3.2,0,0,1,7,1c.67,0,3.55,0,4.72,0s2.1.64,2.17,2.55C14,4.81,14,10.34,13.93,12.43Z"/><line class="cls-2" x1="9.53" y1="6.49" x2="10.5" y2="6.49"/><line class="cls-2" x1="5.48" y1="8.5" x2="10.5" y2="8.5"/><line class="cls-2" x1="5.49" y1="10.5" x2="7.47" y2="10.5"/></g></svg>