<svg xmlns="http://www.w3.org/2000/svg" width="16" height="16" viewBox="0 0 16 16"><defs><style>.cls-1{opacity:0;}.cls-2{fill:#e04c59;}.cls-3,.cls-4,.cls-5{fill:none;stroke:#445d82;stroke-width:2px;fill-rule:evenodd;}.cls-3,.cls-5{stroke-linecap:round;}.cls-3,.cls-4{stroke-miterlimit:10;}.cls-5{stroke-linejoin:round;}</style></defs><g id="_16_Users" data-name="16_Users"><g id="Container" class="cls-1"><rect class="cls-2" width="16" height="16"/></g><path class="cls-3" d="M8.32,8.6c0,2,2.37,1.8,3.63,2.59.54.33.93,1.77.93,2.73,0,1.46-11.87,1.46-11.87,0a4.21,4.21,0,0,1,.83-2.67c1.25-.86,3.7-.53,3.7-2.65"/><path class="cls-4" d="M7,9.13C8.2,9.13,9.58,7.74,9.58,5,9.58,3,8.58,2,7,2S4.31,3,4.31,5C4.31,7.74,5.69,9.13,7,9.13Z"/><path class="cls-3" d="M12.09,6.37c.28,1.55,1.29,1.55,2.27,2.37A3.92,3.92,0,0,1,15,11c0,.39-.76,1.06-2.13,1.18"/><path class="cls-5" d="M9.7,6.63A2.08,2.08,0,0,0,10.82,7C11.83,7,13,5.83,13,3.6,13,1.89,12.14,1,10.83,1a2.17,2.17,0,0,0-2,1.13"/></g></svg>