<svg xmlns="http://www.w3.org/2000/svg" width="16" height="16" viewBox="0 0 16 16"><defs><style>.cls-1{fill:#e04c59;opacity:0;}.cls-2,.cls-4,.cls-5{fill:none;stroke:#445d82;stroke-width:2px;}.cls-2,.cls-4{stroke-linecap:round;}.cls-2{stroke-linejoin:round;}.cls-3{fill:#445d82;}.cls-4,.cls-5{stroke-miterlimit:10;fill-rule:evenodd;}</style></defs><g id="_16_User_Settings" data-name="16_User Settings"><rect id="Container" class="cls-1" width="16" height="16"/><path class="cls-2" d="M15,12.71V11.3A1.49,1.49,0,0,0,14.21,10l-1.51-.8a1.51,1.51,0,0,0-1.4,0L9.79,10A1.49,1.49,0,0,0,9,11.3v1.41A1.49,1.49,0,0,0,9.79,14l1.51.8a1.51,1.51,0,0,0,1.4,0l1.51-.8A1.49,1.49,0,0,0,15,12.71Z"/><path class="cls-3" d="M12,11a1,1,0,1,0,1,1,1,1,0,0,0-1-1Z"/><path class="cls-4" d="M7,15c-3.14-.07-6-.44-6-1.13,0-3.33,5.27-2.07,5.27-6.31"/><path class="cls-5" d="M8,8c1.43,0,3-1.28,3-4A2.68,2.68,0,0,0,8,1,2.68,2.68,0,0,0,5,4C5,6.72,6.57,8,8,8Z"/></g></svg>