<svg xmlns="http://www.w3.org/2000/svg" width="16" height="16" viewBox="0 0 16 16"><defs><style>.cls-1{fill:#e04c59;opacity:0;}.cls-2,.cls-3,.cls-4,.cls-5{fill:none;stroke:#445d82;}.cls-2,.cls-3,.cls-4{stroke-linecap:round;}.cls-2,.cls-3{stroke-linejoin:round;}.cls-2,.cls-4,.cls-5{stroke-width:2px;}.cls-4,.cls-5{stroke-miterlimit:10;fill-rule:evenodd;}</style></defs><g id="_16_User_Folder" data-name="16_User_Folder"><rect id="Container" class="cls-1" width="16" height="16"/><path class="cls-2" d="M8.65,3.33c1.61,0,3.19,0,4.19.09a2,2,0,0,1,2.08,2A4.2,4.2,0,0,1,15,7"/><path class="cls-3" d="M1.55,5.9a2.27,2.27,0,0,1,2.27-2c.56-.05,2.39-.09,4.83-.09"/><path class="cls-2" d="M6,13c-.62,0-2.58,0-2.84,0-1.6-.11-2-.34-2.08-2C1,10,1,6.87,1.07,5.39"/><path class="cls-2" d="M1,7.28s0-2.36.1-4.2S2,1,3.15,1H5.79a1.35,1.35,0,0,1,1.13.62l.46,1.13a1.22,1.22,0,0,0,1.07.58"/><path class="cls-4" d="M12.08,12c0,1.67,2.3,1.26,2.3,2.57,0,.6-5.32.6-5.32,0,0-1.31,2.26-.87,2.26-2.53"/><path class="cls-5" d="M11.69,12c.53,0,1.13-.55,1.13-1.71,0-.88-.43-1.28-1.13-1.28s-1.13.4-1.13,1.28C10.56,11.43,11.15,12,11.69,12Z"/></g></svg>