<svg xmlns="http://www.w3.org/2000/svg" width="16" height="16" viewBox="0 0 16 16"><defs><style>.cls-1{opacity:0;}.cls-2{fill:#e04c59;}.cls-3,.cls-4{fill:none;stroke:#445d82;stroke-linecap:round;stroke-linejoin:round;}.cls-3{stroke-width:2px;}</style></defs><g id="_16_Unlock" data-name="16_Unlock"><g id="Container" class="cls-1"><rect class="cls-2" width="16" height="16"/></g><path class="cls-3" d="M4.48,7.11a60.53,60.53,0,0,1,6.92,0,1.56,1.56,0,0,1,1.48,1.4,22.5,22.5,0,0,1,0,4.71,1.61,1.61,0,0,1-1.55,1.68C10.13,15,6.68,15,4.88,15c-1.19,0-1.65-.59-1.69-1a23.94,23.94,0,0,1,0-5.55A1.44,1.44,0,0,1,4.48,7.11Z"/><path class="cls-4" d="M8.5,11.14c-.13.09.08,1.13,0,1.28a1.23,1.23,0,0,1-.94.05c-.1-.07.06-1.21-.11-1.33-.79-.59-.53-1.57.59-1.62S9.27,10.56,8.5,11.14Z"/><path class="cls-3" d="M5.07,7C4.92,5,5,3.25,5.62,2.26a2.9,2.9,0,0,1,4.78,0,3.32,3.32,0,0,1,.47,1.33"/></g></svg>