<svg xmlns="http://www.w3.org/2000/svg" width="16" height="16" viewBox="0 0 16 16"><defs><style>.cls-1,.cls-2{fill:none;}.cls-2{stroke:#445d82;stroke-linecap:round;stroke-linejoin:round;stroke-width:2px;}</style></defs><g id="_16_Upload" data-name="16_Upload"><rect id="Container" class="cls-1" width="16" height="16"/><path class="cls-2" d="M5.92,11c0-2.05.1-3.48.13-5.25,0-.11-.07-.17-.21-.17s-1.17.12-1.2-.29S7.31,1,8,1s3.63,3.73,3.43,4.13-.89.18-1.17.22a.28.28,0,0,0-.21.21c0,1.69.73,5.08-.05,5.44-.45.2-1.65-.7-2-.7S5.93,11.3,5.92,11Z"/><path class="cls-2" d="M1.1,12.11s.31,2.68.79,2.73a91.36,91.36,0,0,0,12.26-.09c.58-.08.77-2.64.77-2.64"/></g></svg>