<svg xmlns="http://www.w3.org/2000/svg" width="16" height="16" viewBox="0 0 16 16"><defs><style>.cls-1{fill:#d93644;fill-opacity:0;}.cls-2{fill:none;stroke:#445d82;stroke-linecap:round;stroke-linejoin:round;stroke-width:2px;}</style></defs><g id="_16_Undefined_Document" data-name="16_Undefined Document"><rect id="Container" class="cls-1" width="16" height="16"/><path class="cls-2" d="M2,6.38c.12-.83,1-1.31,2.63-1.38A1.27,1.27,0,0,0,6,3.66C6.08,2,6.49,1,7.33,1"/><path class="cls-2" d="M8.86,15,4.63,15c-1.12,0-2.44-.21-2.54-1.79C2,11,2,7.13,2.05,5.86a3,3,0,0,1,.76-1.8A17.28,17.28,0,0,1,5.17,1.74,3.13,3.13,0,0,1,7,1c.67,0,3.65,0,4.81,0s2.07.63,2.14,2.52C14,3.94,14,5.06,14,6"/><path class="cls-2" d="M11,10c1-2.18,4.32-.31,2.33,1.62-.57.55-.9.79-1.06,1.17"/><path class="cls-2" d="M12.34,14.94a.06.06,0,1,1-.11,0A.06.06,0,1,1,12.34,14.94Z"/></g></svg>