<svg data-name="Layer 1" xmlns="http://www.w3.org/2000/svg" width="16" height="16"><path d="M14 1H1a.9.9 0 0 0-1 .79A.74.74 0 0 0 0 2v8a.9.9 0 0 0 .79 1H5v-1H2a.9.9 0 0 1-1-.79A.74.74 0 0 1 1 9V3a.9.9 0 0 1 .79-1A.74.74 0 0 1 2 2h11a.9.9 0 0 1 1 .79.74.74 0 0 1 0 .21v6a.9.9 0 0 1-.79 1H10v1h4a.9.9 0 0 0 1-.79.74.74 0 0 0 0-.21V2a.9.9 0 0 0-.79-1A.74.74 0 0 0 14 1zm-3.1 6.9a.5.5 0 0 0 0-.7L8.1 4.4h-.2c0-.2-.2-.3-.4-.3s-.4.1-.4.3h-.2L4.1 7.2a.5.5 0 1 0 .6.8l.1-.1L7 5.7v8.8a.5.5 0 0 0 1 0V5.7l2.2 2.2a.5.5 0 0 0 .7 0z" fill="#0089d9" fill-rule="evenodd"/></svg>