<svg id="Layer_1" data-name="Layer 1" xmlns="http://www.w3.org/2000/svg" width="37" height="16"><defs><style>.cls-1{fill:#0089d9;fill-rule:evenodd}</style></defs><g id="Unread_Comment" data-name="Unread Comment"><path class="cls-1" d="M35 5a2.9 2.9 0 0 1-3-2.8V2a2.8 2.8 0 0 1 .8-2H25a4 4 0 0 0-4 4v4a4 4 0 0 0 4 4c.7 0 1 2.7 1 4h1c0-2 2.4-4 3.3-4H33a4 4 0 0 0 4-4V4.2a2.8 2.8 0 0 1-2 .8zm-8 2h-2V5h2zm3 0h-2V5h2zm3 0h-2V5h2z"/><path class="cls-1" d="M35 0a2 2 0 1 1-2 2 2 2 0 0 1 2-2zM16 3.9V5h-1v3a2.9 2.9 0 0 1-2.8 3H9a3.2 3.2 0 0 0-3 2 1.8 1.8 0 0 0-1.57-2A1.55 1.55 0 0 0 4 11a2.9 2.9 0 0 1-3-2.8V4a2.9 2.9 0 0 1 2.8-3H11V0H4a4 4 0 0 0-4 4v4a4 4 0 0 0 4 4c.7 0 1 2.7 1 4h1c0-2 2.4-4 3.3-4H12a4 4 0 0 0 4-4V3.9zM12 7V5h-2v2zM6 7V5H4v2zm3 0V5H7v2z"/><path class="cls-1" d="M14 0a2 2 0 1 1-2 2 2 2 0 0 1 2-2z"/></g></svg>