<svg xmlns="http://www.w3.org/2000/svg" width="16" height="16" viewBox="0 0 16 16"><defs><style>.cls-1{fill:#d93644;fill-opacity:0;}.cls-2{fill:none;stroke:#445d82;stroke-linecap:round;stroke-linejoin:round;stroke-width:2px;}</style></defs><g id="_16_Unread_Comment" data-name="16_Unread Comment"><rect id="Container" class="cls-1" width="16" height="16"/><path class="cls-2" d="M15,7.44a11.71,11.71,0,0,1-.27,2.13A2.65,2.65,0,0,1,12.11,12c-1.14.14-3.44,0-4.24.27C7.35,12.48,6.65,14,6.12,14c-.82,0-.91-1.16-1.52-1.79s-1.36-.39-2-.64c-.89-.35-1.18-1.15-1.38-2.45S.69,2.57,2,1.7C3.08,1,6.07,1,8.45,1.07"/><path class="cls-2" d="M5,6.47s0,.07,0,0S5.05,6.45,5,6.47Z"/><path class="cls-2" d="M8,6.47s0,.07,0,0S8,6.45,8,6.47Z"/><path class="cls-2" d="M11,6.47s0,.07.05,0S11.05,6.45,11,6.47Z"/><path class="cls-2" d="M15,2.51A1.32,1.32,0,0,1,13.48,4c-.82,0-1.36-.26-1.48-1.48-.09-1,.66-1.44,1.48-1.48A1.33,1.33,0,0,1,15,2.51Z"/></g></svg>