<svg xmlns="http://www.w3.org/2000/svg" width="16" height="16" viewBox="0 0 16 16"><defs><style>.cls-1{fill:#e04c59;opacity:0;}.cls-2,.cls-3{fill:none;stroke:#445d82;}.cls-2{stroke-miterlimit:10;stroke-width:2px;}.cls-3{stroke-linecap:round;stroke-linejoin:round;}</style></defs><g id="_16_Earth" data-name="16_Earth"><rect id="Container" class="cls-1" width="16" height="16"/><circle class="cls-2" cx="8" cy="8" r="7"/><path class="cls-3" d="M5.12,1.78c.14-.07.37.63.08.94S4.36,3.47,4,3.8a.66.66,0,0,1-.86.08c-.05-.11,0,1-.42,1.24A4,4,0,0,0,1.6,6.27"/><path class="cls-3" d="M1.18,6.74c.5,2.27,1.57,2.42,1.74,3s-.34,1.51-.17,2.75"/><path class="cls-3" d="M7.3,3.79c.1,0,.72-.25.79-.6a3.57,3.57,0,0,0,0-.54.59.59,0,0,1,.48-.45c.26,0,.59.44.86.4.46-.06.58-.79.38-1.56"/><path class="cls-3" d="M7.17,3.92c0-.24-.33-.46-.35-.58"/><path class="cls-3" d="M14.92,7c-.12.06-.33.26-.55.21s-.74-1.57-1-1.67a9.51,9.51,0,0,0-1-.06c-.77-.14-1.51-.32-1.28,0,.63,1,1.38.81,1.32.93s-.31.61-.57.61-.9-1-1-1.06-.36,0-.41.21A2.91,2.91,0,0,0,11,7.71c.58.51,1.11.13,1,.31a3.18,3.18,0,0,1-.52,1c-.64.85-.48,1.66-.66,2-.57,1.05-1.49,1.79-2,1.78s-.4-1.4-.47-2.36A2.13,2.13,0,0,0,7.26,8.5c-.45-.23-1,.27-1.81-.08A1.66,1.66,0,0,1,5.89,6a2.92,2.92,0,0,1,1.67-.47c.21,0,.18.16.3.32a3.07,3.07,0,0,0,1.33.26c.39,0,1.23-.11,1.36-.47s.16-.81-.2-.85-.59.06-.66-.06a1.38,1.38,0,0,0-.44-.38c-.07,0-.59.08-.63,0S8.06,4.06,8,4a1.17,1.17,0,0,0-.61,0,2.36,2.36,0,0,0-.75.65c-.1.12-.31.11-.33.05s-.13-.35.61-.47"/><path class="cls-3" d="M8.51,4.74c0-.11-.14-.34-.16-.4"/><path class="cls-3" d="M9.07,4.74c-.05-.11-.13-.34-.15-.4"/></g></svg>