<svg xmlns="http://www.w3.org/2000/svg" width="16" height="16" viewBox="0 0 16 16"><defs><style>.cls-1,.cls-2{fill:none;stroke:#445d82;stroke-linecap:round;stroke-linejoin:round;}.cls-1{stroke-width:2px;}</style></defs><g id="_16_Coding2" data-name="16_Coding2"><path class="cls-1" d="M1.11,3.8c.15-2,1.09-2.58,2.66-2.69S10,1,12.49,1.07c1.61.06,2.34.63,2.41,2.41.11,2.71.08,5.85,0,8.79,0,2.33-.83,2.5-2.82,2.65-1.59.13-6.23.09-8.51,0C2,14.8,1.24,14.6,1.09,12.58A82.74,82.74,0,0,1,1.11,3.8Z"/><path class="cls-2" d="M1.37,3.49c2.88,0,10.43,0,13.29,0"/><path class="cls-1" d="M8.85,5.68c-.43,1.86-1.13,5.42-1.54,7"/><path class="cls-1" d="M11.09,11.1S12.6,9.55,12.6,9.17s-1.51-1.94-1.51-1.94"/><path class="cls-1" d="M4.85,11.1s-1.5-1.55-1.5-1.93,1.5-1.94,1.5-1.94"/></g></svg>