<svg data-name="Layer 1" xmlns="http://www.w3.org/2000/svg" width="16" height="16"><path d="M9.5 7H8V5.5a.5.5 0 0 0-1 0V7H5.5a.5.5 0 0 0 0 1H7v1.5a.5.5 0 0 0 1 0V8h1.5a.5.5 0 0 0 0-1zm6.3 7.8l-2.5-2.6A7 7 0 0 0 15 7.5 7.59 7.59 0 0 0 7.5 0 7.59 7.59 0 0 0 0 7.5 7.59 7.59 0 0 0 7.5 15a8 8 0 0 0 4.8-1.7l2.6 2.5c.2.3.7.2.9 0a.66.66 0 0 0 .13-.94.12.12 0 0 0-.13-.06zM12.2 12l-.2.2A6.71 6.71 0 0 1 7.5 14 6.5 6.5 0 1 1 14 7.5a6.71 6.71 0 0 1-1.8 4.5z" fill="#0089d9" fill-rule="evenodd" data-name="Zoom In"/></svg>