<svg xmlns="http://www.w3.org/2000/svg" width="24" height="24" viewBox="0 0 24 24"><defs><style>.cls-1{fill:#d93644;fill-opacity:0;}.cls-2,.cls-3{fill:none;stroke:#445d82;stroke-linecap:round;stroke-linejoin:round;}.cls-3{stroke-width:2px;}</style></defs><g id="_24_Announcement" data-name="24_Announcement"><rect id="Container" class="cls-1" width="24" height="24"/><path class="cls-2" d="M18.8,17.77A6.53,6.53,0,0,1,17,15.15"/><path class="cls-3" d="M15.55,3.4c.74-2,1.57-2.36,2.28-2.36,1.28,0,4.17,2.3,5,9.35.87,7.94-2,8.41-2.41,8.41a2.56,2.56,0,0,1-1.85-.61"/><path class="cls-2" d="M15.88,10.7c-.6-3.58-.34-5.86.2-7.3"/><path class="cls-3" d="M18.55,18.21c-1.3-1.19-7.43-2.29-7.93-1.47s-.75,3.9-1,4.16-2.89-.36-3.2-.73c-.8-.92-.89-4.37-1.08-4.43s-2-.3-2.52-.38S1.54,15.28,1.15,13a4.92,4.92,0,0,1,.71-4c.41-.46,10.61-2.54,13.5-5.47"/><path class="cls-2" d="M17.49,7.64c0,3,.91,7.21,2.54,7.86"/></g></svg>