<svg id="Layer_1" data-name="Layer 1" xmlns="http://www.w3.org/2000/svg" width="24" height="24"><defs><style>.cls-1{fill:#0089d9;fill-rule:evenodd}</style></defs><g id="Add_comment" data-name="Add comment"><path class="cls-1" d="M18 0H6a6 6 0 0 0-6 6v6a6 6 0 0 0 6 6c1 0 2 3 2 5h1c0-2 1.56-3.51 3-4.33v-.17a6.46 6.46 0 0 1 .41-2.26 5.67 5.67 0 0 0-3.64 3C8.71 17.2 7.77 16 6 16a3.7 3.7 0 0 1-4-3.37A3.32 3.32 0 0 1 2 12V6a3.7 3.7 0 0 1 3.37-4A3.31 3.31 0 0 1 6 2h12a3.7 3.7 0 0 1 4 3.37A3.31 3.31 0 0 1 22 6v6a5.55 5.55 0 0 1-.09 1 6.48 6.48 0 0 1 1.61 1.39A6 6 0 0 0 24 12V6a6 6 0 0 0-6-6zM5 9a2 2 0 1 0 2-2 2 2 0 0 0-2 2zm3 0a1 1 0 1 1-1-1 1 1 0 0 1 1 1zm9-2a2 2 0 1 0 2 2 2 2 0 0 0-2-2zm0 3a1 1 0 1 1 1-1 1 1 0 0 1-1 1zm-5-3a2 2 0 1 0 2 2 2 2 0 0 0-2-2zm0 3a1 1 0 1 1 1-1 1 1 0 0 1-1 1z"/><path class="cls-1" d="M20.5 18H19v-1.5a.5.5 0 0 0-1 0V18h-1.5a.5.5 0 0 0 0 1H18v1.5a.5.5 0 0 0 1 0V19h1.5a.5.5 0 0 0 0-1zm-2-5a5.5 5.5 0 1 0 5.5 5.5 5.5 5.5 0 0 0-5.5-5.5zm0 9.56a4.06 4.06 0 1 1 4.06-4.06 4.06 4.06 0 0 1-4.06 4.06z"/></g></svg>