<svg data-name="Layer 1" xmlns="http://www.w3.org/2000/svg" width="24" height="24"><path d="M13.5 17.8a33.77 33.77 0 0 1 3.1 3.5 81.76 81.76 0 0 1 7.4-8.1l-.7-.7a32.45 32.45 0 0 0-6.7 6.1 9.24 9.24 0 0 0-2.2-1.7zM5 5h4v1H5zm0 3h10v1H5zm4.7 9H5v1h4.5a3.55 3.55 0 0 1 .2-1zm1.4-3H5v1h5.4a8.65 8.65 0 0 1 .7-1zm3.9-2.3V11H5v1h8.9a4.51 4.51 0 0 1 1.1-.3zM12.2 24H0V0h20v12.4a7 7 0 0 0-2-.8V2H2v20h8.4a8.6 8.6 0 0 0 1.8 2zm9.5-7.3a5.47 5.47 0 1 1-7-3.3 5.62 5.62 0 0 1 5.3.9l-1.1 1a4 4 0 1 0 1 5.6 3.69 3.69 0 0 0 .7-2.3v-.5z" fill="#0089d9" fill-rule="evenodd"/></svg>