<svg id="Layer_1" data-name="Layer 1" xmlns="http://www.w3.org/2000/svg" width="53" height="24"><defs><style>.cls-1{fill:#0089d9;fill-rule:evenodd}</style></defs><g id="Alarm"><path class="cls-1" d="M16 8l-3.2 3.2a2 2 0 0 0-1.6 3.6 1.9 1.9 0 0 0 2.6-1 2.21 2.21 0 0 0 0-1.6L17 9a.77.77 0 0 0 .1-1A.78.78 0 0 0 16 8zm-4-6a11 11 0 1 0 11 11A11 11 0 0 0 12 2zm0 20a9 9 0 1 1 9-9 9 9 0 0 1-9 9zM23 2a3.47 3.47 0 0 0-4.9-.1L18 2l5 5c.8-1.1 1.8-3.2 0-5zM1 2C-.8 3.8.3 6 1 7l5-5a3.5 3.5 0 0 0-5 0zM41 2a11 11 0 1 0 11 11A11 11 0 0 0 41 2zm5 7l-3.2 3.2a2 2 0 1 1-3.6 1.6 2 2 0 0 1 1-2.6 2.21 2.21 0 0 1 1.6 0L45 8a.71.71 0 1 1 1 1zm6-7a3.47 3.47 0 0 0-4.9-.1L47 2l5 5c.8-1.1 1.8-3.2 0-5zM30 2c-1.8 1.8-.7 4 0 5l5-5a3.5 3.5 0 0 0-5 0z"/></g></svg>