<svg data-name="Layer 1" xmlns="http://www.w3.org/2000/svg" width="24" height="24"><path d="M22.6 8.9l.87-.5a1 1 0 0 0-1-1.73l-.87.5a1 1 0 0 0 1 1.73zM18 1.7c-2.7 2.07-5.55 5.36-9 5.36H4c-5.41 0-5.34 9 0 9h1.08a4.47 4.47 0 0 0 8.28 1.83c1.67 1.3 3.21 3.05 4.7 4.35 1.64 1.68 2 0 2 0V1.59S19.49.38 18 1.7zM9.53 18.06a2.5 2.5 0 0 1-2.45-2H9a5.69 5.69 0 0 1 2.67.73 2.5 2.5 0 0 1-2.14 1.27zM18 19.69s-4-5.62-9-5.62H4c-2.81 0-2.69-5 0-5h5c5 0 9-4.75 9-4.75zm4-6.62h1a1 1 0 0 0 0-2h-1a1 1 0 0 0 0 2zm1.43 2.66l-.87-.5a1 1 0 0 0-1 1.73l.87.5a1 1 0 0 0 1-1.73z" fill="#0089d9" fill-rule="evenodd"/></svg>