<?xml version="1.0" encoding="utf-8"?>
<!-- Generator: Adobe Illustrator 25.4.1, SVG Export Plug-In . SVG Version: 6.00 Build 0)  -->
<svg version="1.1" id="Layer_1" xmlns="http://www.w3.org/2000/svg" xmlns:xlink="http://www.w3.org/1999/xlink" x="0px" y="0px"
	 width="52.9px" height="24px" viewBox="0 0 52.9 24" enable-background="new 0 0 52.9 24" xml:space="preserve">
<g id="_24_Alert-2">
	<rect id="Container" x="0.1" fill="#D93644" fill-opacity="0" width="24" height="24"/>
	<path fill="none" stroke="#445D82" stroke-width="2" stroke-linecap="round" stroke-linejoin="round" d="M17.3,5.3c0,0,4-5.6,5.5-4
		s-4,5.5-4,5.5"/>
	<path fill="none" stroke="#445D82" stroke-width="2" stroke-linecap="round" stroke-linejoin="round" d="M13.9,21.4
		c-0.1-1.8,0.9-3.1,2-4.3c8.2-9.6-1.5-16.3-9.1-9c-1.3,1.1-3,1.8-4.7,1.8"/>
	<path fill="none" stroke="#445D82" stroke-width="2" stroke-linecap="round" stroke-linejoin="round" d="M1.1,12.4
		c-0.2-0.9,0-2,0.4-2.3C4,8.4,16,20.6,13.7,22.8c-0.7,0.7-4.2-0.2-6.5-2.1"/>
	<path fill="none" stroke="#445D82" stroke-width="2" stroke-linecap="round" stroke-linejoin="round" d="M6.8,17.1L6,18
		c-3.5,2.7-5.6-2.3-1.9-3.4"/>
</g>
<g id="_24_Alert">
	<path fill="#445D82" d="M52.9,2c0.1-0.5-0.1-1-0.5-1.4C52.1,0.2,51.5,0,50.9,0c-1.8,0.1-4.3,3-5.5,4.6c-2.7-1.2-6.8-0.7-10.4,2.8
		c-1.1,1-2.6,1.6-4.1,1.5V9c-0.4,0-0.7,0.1-1,0.4c-1,0.6-1.1,2.1-0.9,3.2c0.1,0.5,0.5,0.8,1,0.8c0.1,0,0.1,0,0.2,0
		c0.5-0.1,0.9-0.6,0.8-1.2c-0.1-0.4-0.1-0.9,0.1-1.3l0,0c2.2,0,10,7.3,10.8,10.7l0,0c0,0.1,0,0.2,0,0.3c-1.8-0.1-3.6-0.8-5-2
		c-0.4-0.3-1-0.3-1.4,0.1c-0.4,0.4-0.3,1.1,0.1,1.4c0,0,0,0,0,0c1.7,1.5,3.9,2.3,6.1,2.5c0.6,0,1.1-0.1,1.6-0.5
		c0.5-0.6,0.7-1.4,0.5-2.1l0,0c-0.1-1.4,0.7-2.4,1.7-3.6c3.7-4.3,3.9-7.9,2.7-10.3C49.9,6.2,52.8,3.8,52.9,2z"/>
	<path fill="#445D82" d="M36.6,16.5c-0.8-1.2-1.9-2.1-3.2-2.8c-0.2-0.1-0.5-0.1-0.7-0.1c-1.4,0.3-2.4,1.4-2.6,2.8
		c-0.2,1.2,0.4,2.4,1.5,3c0.4,0.2,0.9,0.4,1.4,0.4c0.9,0,1.9-0.4,2.6-1l0.9-0.9C37.1,17.2,36.9,17,36.6,16.5z"/>
</g>
</svg>
