<svg xmlns="http://www.w3.org/2000/svg" width="24" height="24" viewBox="0 0 24 24"><defs><style>.cls-1{fill:#d93644;fill-opacity:0;}.cls-2{opacity:0;}.cls-3{fill:#e04c59;}.cls-4,.cls-5{fill:none;stroke:#445d82;stroke-linecap:round;stroke-linejoin:round;}.cls-4{stroke-width:2px;}</style></defs><g id="_24_Agreement" data-name="24_Agreement"><rect id="Container" class="cls-1" width="24" height="24"/><g id="Container-2" data-name="Container" class="cls-2"><rect class="cls-3" width="24" height="24"/></g><path class="cls-4" d="M8.9,19.56c.3-.36,1,1.41.82,2.36C9.34,23.75,6,23.41,5.36,19.57c-.62-4.05,1.23-6.71,1-12.21C6.32,4.83,4.54,2.41,2,3.41,0,4.21,1.32,9,3.34,8.48"/><path class="cls-4" d="M19.86,8.9c-.31,3-1.22,6.3-.68,8.32"/><path class="cls-4" d="M2,3.41C5.06,2.32,12.84,1.25,16.28,1.06"/><path class="cls-4" d="M9.1,19.45c.84-.22,12.11-2,12.74-1.85.92.2,1.59,2.84.34,3.34-1.55.62-9.94,1.81-13.28,2.08"/><path class="cls-4" d="M3.34,8.48a8.88,8.88,0,0,1,3.05-.71"/><path class="cls-5" d="M9.51,7c.58-.12,6-.87,6.77-1"/><path class="cls-5" d="M9.72,10.18c.88-.16,6.66-1,7.17-1.07"/><path class="cls-5" d="M9.92,13.1c1.38-.21,4.21-.67,4.76-.77"/><polygon class="cls-4" points="20.15 1.06 19.67 2.74 17.98 3.31 19.46 4.27 19.48 6.01 20.88 4.92 22.58 5.42 21.97 3.79 23 2.37 21.22 2.45 20.15 1.06"/></g></svg>