<svg data-name="Layer 1" xmlns="http://www.w3.org/2000/svg" width="24" height="24"><path d="M12 17l5-5H7zm11-9V6a2.15 2.15 0 0 0-2-2h-8.5S11 1 9 1H4a3.23 3.23 0 0 0-3 3v4a1 1 0 0 0-1 1c0 .57 1 10 1 10a3.4 3.4 0 0 0 3 3h16a3.4 3.4 0 0 0 3-3s1-9.5 1-10a1.08 1.08 0 0 0-1-1zM3 4a1.08 1.08 0 0 1 1-1h5c1 0 2.5 3 2.5 3H20a1.08 1.08 0 0 1 1 1v1H3zm18 15a1.08 1.08 0 0 1-1 1H4a1.08 1.08 0 0 1-1-1s-1-8.44-1-9a1 1 0 0 1 1-1h18a1.08 1.08 0 0 1 1 1c0 .5-1 9-1 9z" fill="#0089d9" fill-rule="evenodd" data-name="Breadcrumbs Folder"/></svg>