<svg data-name="Layer 1" xmlns="http://www.w3.org/2000/svg" width="24" height="24"><path d="M11.2 2a2.31 2.31 0 0 0-2.4 2.4v.8H7.2v-.8a4 4 0 0 1 4-4h1.6a4 4 0 0 1 4 4v.8h-1.6v-.8A2.31 2.31 0 0 0 12.8 2zM2.4 6A2.31 2.31 0 0 0 0 8.4v6.4a1.87 1.87 0 0 0 .8 1.4v5a2.31 2.31 0 0 0 2.4 2.4h17.6a2.31 2.31 0 0 0 2.4-2.4v-5a1.23 1.23 0 0 0 .8-1.4V8.4A2.31 2.31 0 0 0 21.6 6zm7.2 8.8v-1.6a.74.74 0 0 0-.8-.8H8v-4H6.4v4h-.8a.74.74 0 0 0-.8.8v1.6H1.6V8.4a.74.74 0 0 1 .8-.8h19.2a.74.74 0 0 1 .8.8v6.4h-3.2v-1.6a.74.74 0 0 0-.8-.8h-.8v-4H16v4h-.8a.74.74 0 0 0-.8.8v1.6zM3.2 22a.74.74 0 0 1-.8-.8v-5.6h2.4A2.21 2.21 0 0 0 7.2 18a2.21 2.21 0 0 0 2.4-2.4h4.8a2.21 2.21 0 0 0 2.4 2.4 2.21 2.21 0 0 0 2.4-2.4h2.4v5.6a.74.74 0 0 1-.8.8zm3.2-6.4V14H8v1.6a.74.74 0 0 1-.8.8.74.74 0 0 1-.8-.8zm10.4.8a.74.74 0 0 1-.8-.8V14h1.6v1.6a.79.79 0 0 1-.8.8z" fill="#0089d9" data-name="Layer 2"/></svg>