<svg xmlns="http://www.w3.org/2000/svg" width="24" height="24" viewBox="0 0 24 24"><defs><style>.cls-1{fill:#d93644;fill-opacity:0;}.cls-2{fill:none;stroke:#445d82;stroke-linecap:round;stroke-linejoin:round;stroke-width:2px;}</style></defs><g id="_24_Briefcase" data-name="24_Briefcase"><rect id="Container" class="cls-1" width="24" height="24"/><path class="cls-2" d="M7,4c-2,0-4.43-.06-4.7,1.75A68.67,68.67,0,0,0,2.1,17.67c.2,1.5,1.19,2.34,3.55,2.47s13.88-.27,14.06-.29c1.3-.1,2-.94,2.17-2.61.25-2.88.16-8.77.1-9.71S21.33,4,18.84,4,8.51,4,7,4Z"/><path class="cls-2" d="M8,3.71C8,2,8.49,1.12,12,1.12c2.66,0,3.91.63,4,2.59"/><path class="cls-2" d="M1.91,11.14A33.34,33.34,0,0,0,12,12.8c2.87,0,8.71-1,10-1.69"/><circle class="cls-2" cx="12.01" cy="13.88" r="0.89"/></g></svg>