<svg data-name="Layer 1" xmlns="http://www.w3.org/2000/svg" width="24" height="24"><path d="M9 15h2v-2H9zm0-4h2V9H9zm0 8h2v-2H9zm-4 0h2v-2H5zm0-4h2v-2H5zm8-4h2V9h-2zm0 8h2v-2h-2zm4-8h2V9h-2zm-4 4h2v-2h-2zm8-12h-2V2a1 1 0 0 0-2 0v1H7V2a.94.94 0 0 0-1-1 .94.94 0 0 0-1 1v1H3a2 2 0 0 0-2 2v16a2 2 0 0 0 2 2h18a2 2 0 0 0 2-2V5a2 2 0 0 0-2-2zm0 17a.94.94 0 0 1-1 1H4a.94.94 0 0 1-1-1V6a.94.94 0 0 1 1-1h1v1a.94.94 0 0 0 1 1 .94.94 0 0 0 1-1V5h10v1a1 1 0 0 0 2 0V5h1a.94.94 0 0 1 1 1zm-4-5h2v-2h-2z" fill="#0089d9" fill-rule="evenodd"/></svg>