<svg data-name="Layer 1" xmlns="http://www.w3.org/2000/svg" width="24" height="24"><path d="M0 12A12 12 0 1 0 12 0 12 12 0 0 0 0 12zm2 0a10 10 0 1 1 10 10A10 10 0 0 1 2 12zm8.92.9l4 4a1 1 0 1 0 1.52-1.3.57.57 0 0 0-.11-.11L12.85 12l3.55-3.58a1 1 0 0 0-1.29-1.53A1.14 1.14 0 0 0 15 7l-4.07 4.1a1.14 1.14 0 0 0-.23.15 1 1 0 0 0 .22 1.65zm-5.23-1.65a1.12 1.12 0 0 0 0 1.49 1.19 1.19 0 0 0 .23.16l4 4a1 1 0 0 0 1.41-1.41L7.85 12l3.55-3.58A1 1 0 0 0 10 7l-4.08 4.1a1.14 1.14 0 0 0-.23.15z" fill="#0089d9" fill-rule="evenodd"/></svg>