<svg xmlns="http://www.w3.org/2000/svg" width="24" height="24" viewBox="0 0 24 24"><defs><style>.cls-1{fill:#e04c59;opacity:0;}.cls-2{fill:none;stroke:#445d82;stroke-linecap:round;stroke-linejoin:round;stroke-width:2px;}</style></defs><g id="_24_Paste" data-name="24_Paste"><rect id="Container" class="cls-1" width="24" height="24"/><path class="cls-2" d="M16.36,21.46c-.63.67-1.59.54-2.73.54h-7c-1.93,0-3.36-.82-3.51-3.4-.16-2.79-.11-8.55,0-10.2A3.24,3.24,0,0,1,4.56,5.47"/><path class="cls-2" d="M20.93,8.79C20.85,8.28,21,7,19.2,7.09H17.47a1.71,1.71,0,0,1-1.73-1.7V3.68A1.72,1.72,0,0,0,14,2"/><path class="cls-2" d="M7.09,15.61c.14,2.58,1.55,3.4,3.46,3.4h6.92c1.9,0,3.31.36,3.46-3.4s0-6.67,0-6.82V8.5a3.39,3.39,0,0,0-1-2.41L16.75,3A3.49,3.49,0,0,0,14.3,2H10.55c-1.91,0-3.38.87-3.46,3.41C7,7,6.93,12.81,7.09,15.61Z"/></g></svg>