<svg data-name="Layer 1" xmlns="http://www.w3.org/2000/svg" width="140" height="24"><path d="M24 9l-6 6v-4c-1.88 0-3.53-.1-5 0v1h2v10a2.15 2.15 0 0 1-2 2H3a2.15 2.15 0 0 1-2-2V2a2.15 2.15 0 0 1 2-2h10a2.15 2.15 0 0 1 2 2v4h-2v1.43A27 27 0 0 1 18 7V3zM3 21c0 1 .71 1 1 1h8c.29 0 1 0 1-1v-3H3zM13 3c0-1-.71-1-1-1H4c-.29 0-1 0-1 1v2h10zm0 3H3v11h10v-5.9c-4 .26-6.54 1.24-8 4.9 0-5.24 3.37-7.68 8-8.57zM7 3h2c1 0 1 .21 1 .49S10 4 9 4H7c-1 0-1-.24-1-.51S6 3 7 3zm1 19a2 2 0 1 1 2-2 2 2 0 0 1-2 2zm0-3.47A1.49 1.49 0 1 0 9.51 20 1.49 1.49 0 0 0 8 18.53z" fill="#0089d9" fill-rule="evenodd" data-name="Comment Web Reply"/></svg>