<svg data-name="Comment Chat" xmlns="http://www.w3.org/2000/svg" width="24" height="24"><path d="M22.79 18.47a.6.6 0 0 0-.19.59 4.4 4.4 0 0 0 1.32 1.73V21a7.34 7.34 0 0 1-3.25-.48.73.73 0 0 0-.78 0 7 7 0 0 1-2.39.48 6.26 6.26 0 0 1-6.5-6 6.26 6.26 0 0 1 6.5-6 6.26 6.26 0 0 1 6.5 6 5.67 5.67 0 0 1-1.21 3.47zM17.5 11a4.32 4.32 0 0 0-4.5 4 4.34 4.34 0 0 0 4.51 4 4.71 4.71 0 0 0 1.7-.28 1 1 0 0 1 .89 0 3 3 0 0 0 1.19.57 1.94 1.94 0 0 1-.51-1.09.83.83 0 0 1 .3-.83A3.83 3.83 0 0 0 22 15a4.31 4.31 0 0 0-4.5-4zm-1.88-2.86A7 7 0 0 0 9 4c-3.8 0-7 2.71-7 6a5.62 5.62 0 0 0 1.44 3.64 2.34 2.34 0 0 1 .36 1.76 1.2 1.2 0 0 1-.43.69 4.29 4.29 0 0 0 1.48-.66c.59-.32 1.27.09 1.5.17a7.75 7.75 0 0 0 3.73.32 7 7 0 0 0 .54 2A9.77 9.77 0 0 1 9 18a9.91 9.91 0 0 1-3.37-.58 1.07 1.07 0 0 0-1.08-.05A10.68 10.68 0 0 1 0 18a2.68 2.68 0 0 1 .07-.27 5.94 5.94 0 0 0 1.82-2.3.79.79 0 0 0-.26-.79A7.37 7.37 0 0 1 0 10c0-4.42 4-8 9-8a8.85 8.85 0 0 1 8.72 6.07A5.85 5.85 0 0 0 17 8a7.1 7.1 0 0 0-1.38.14z" fill="#0089d9" fill-rule="evenodd"/></svg>