<svg xmlns="http://www.w3.org/2000/svg" width="24" height="24" viewBox="0 0 24 24"><defs><style>.cls-1{fill:#e04c59;fill-opacity:0;}.cls-2,.cls-3{fill:none;stroke:#445d82;stroke-linecap:round;stroke-linejoin:round;}.cls-2{stroke-width:2px;}</style></defs><g id="_24_Calendar_2" data-name="24_Calendar 2"><rect id="Container" class="cls-1" width="24" height="24"/><path id="Rectangle_271" data-name="Rectangle 271" class="cls-2" d="M7.08,3c3.31,0,7.9-.21,10,0a4.31,4.31,0,0,1,4,4c.13,2.69.19,8,0,10s-.7,3.88-4,4c-3.64.14-7.87.15-10,0-1.72-.12-3.85,0-4-4S3,9.21,3.08,7,3.77,3,7.08,3Z"/><line id="Line_373" data-name="Line 373" class="cls-2" x1="8.08" y1="2" x2="8.08" y2="4"/><line id="Line_374" data-name="Line 374" class="cls-2" x1="16.08" y1="2" x2="16.08" y2="3.82"/><path class="cls-3" d="M15.71,12.28c.27.55,1.27,0,.72-.61C16,11.2,15.4,11.66,15.71,12.28Z"/><path class="cls-3" d="M15.71,8.29c.43.43,1.27,0,.72-.62C16,7.21,15.23,7.81,15.71,8.29Z"/><path class="cls-3" d="M11.68,8.29c.27.54,1.39-.09.72-.62C11.92,7.29,11.37,7.67,11.68,8.29Z"/><path class="cls-3" d="M11.62,12.3c.25.49,1.33,0,.78-.63C12,11.21,11.38,11.82,11.62,12.3Z"/><path class="cls-3" d="M7.68,12.29c.27.54,1.16.16.81-.61C8.31,11.29,7.37,11.67,7.68,12.29Z"/><path class="cls-3" d="M7.68,16.29c.27.54,1.39-.35.62-.72C7.75,15.31,7.37,15.67,7.68,16.29Z"/><path class="cls-3" d="M11.57,16.26c0,.53,1.46.2.86-.59C12.06,15.19,11.51,15.58,11.57,16.26Z"/></g></svg>