<svg xmlns="http://www.w3.org/2000/svg" width="24" height="24" viewBox="0 0 24 24"><defs><style>.cls-1{fill:#d93644;fill-opacity:0;}.cls-2{fill:none;stroke:#445d82;stroke-linecap:round;stroke-linejoin:round;stroke-width:2px;}</style></defs><g id="_24_Comment_Comunity" data-name="24_Comment Comunity"><rect id="Container" class="cls-1" width="24" height="24"/><path class="cls-2" d="M2.13,1.75C3.87.64,12.22,1,13.79,1.26a3.29,3.29,0,0,1,3.16,3,27.9,27.9,0,0,1-.27,5.86,3,3,0,0,1-3,2.71c-1.3.14-3.92,0-4.83.29-.6.21-1.4,1.86-2,1.87-.93,0-1-1.17-1.73-1.86s-1.55-.53-2.3-.82c-1-.38-1.38-1.26-1.61-2.69S.62,2.7,2.13,1.75Z"/><path class="cls-2" d="M5,7Z"/><path class="cls-2" d="M9,7Z"/><path class="cls-2" d="M13,7Z"/><path class="cls-2" d="M12.29,16.1a2,2,0,0,0,1.9,1.34,25.55,25.55,0,0,1,3.35.21c.42.15,1,1.34,1.4,1.35.64,0,.72-.84,1.2-1.34s1.08-.39,1.59-.59c.71-.28,1-.91,1.12-1.94s.41-5-.63-5.7A4.33,4.33,0,0,0,20.46,9"/><path class="cls-2" d="M11,20.07c-.57,2.33-3.41,1.48-4,1.69C6.62,21.9,6.11,23,5.73,23c-.6,0-.67-.77-1.11-1.23s-1-.35-1.46-.54c-.65-.26-.88-.83-1-1.78a16.06,16.06,0,0,1,0-3.74"/></g></svg>