<svg xmlns="http://www.w3.org/2000/svg" width="24" height="24" viewBox="0 0 24 24"><defs><style>.cls-1{fill:#d7df23;opacity:0;}.cls-2,.cls-3{fill:none;stroke:#445d82;stroke-linecap:round;stroke-linejoin:round;}.cls-2{stroke-width:2px;}</style></defs><g id="_24_Coffee_Break" data-name="24_Coffee_Break"><rect id="Container" class="cls-1" width="24" height="24"/><path class="cls-2" d="M5.07,6.5C2.69,6.93,1,7.67,1,8.7s-.22,7,1.29,10c3.12,6.07,13.46,5.43,16.46.43"/><path class="cls-2" d="M20.42,10.44c0-.78,0-1.39,0-1.74,0-1.06-1.61-1.8-4-2.23"/><path class="cls-3" d="M1.48,8.39c-1.69,3.52,19.93,3.45,18.46-.07"/><path class="cls-2" d="M20.42,10.44a2.17,2.17,0,0,1,1.9.55c1.17,1.08,1.6,7.83-5.26,8.18"/><path class="cls-3" d="M17.89,13c.58.82,1.82,0,2.34.21s.65,3.17-2.68,3.63"/><path class="cls-3" d="M3,10.12C6.17,8.45,16,8.21,18.35,10"/><path class="cls-3" d="M11.15.49s-1.05,1,.08,2.57C12.59,5,9.46,4.18,8.77,4.79,7.39,6,10.26,6.87,10.26,6.87"/><path class="cls-3" d="M13.5,1.69s2.68,1.57,0,3.93"/></g></svg>