<svg xmlns="http://www.w3.org/2000/svg" width="24" height="24" viewBox="0 0 24 24"><defs><style>.cls-1,.cls-2{fill:none;stroke:#445d82;stroke-linecap:round;stroke-linejoin:round;}.cls-1{stroke-width:2px;}</style></defs><g id="_24_Contract" data-name="24_Contract"><path class="cls-1" d="M4.06,10.06C4.24,8.82,5.58,8.1,8,8a1.91,1.91,0,0,0,2-2c.12-2.51.73-3.94,2-4"/><path class="cls-1" d="M9.12,22l-1.18,0c-1.68-.06-3.66-.32-3.81-2.68-.2-3.23-.14-8.07,0-10A4.39,4.39,0,0,1,5.21,6.59,24.8,24.8,0,0,1,8.75,3.11,4.88,4.88,0,0,1,11.48,2c1,0,3.48,0,5.22,0s3.11.94,3.22,3.78C20,6.4,20,7.57,20,9"/><path class="cls-1" d="M13.75,20.49A12.92,12.92,0,0,0,12.49,23"/><path class="cls-2" d="M18.75,15.38a19.23,19.23,0,0,0-5,5.11"/><path class="cls-1" d="M19,17.39l1.32.87s-3.84,3.89-6.51,2.31C10.9,18.85,16.57,11.42,23,12c.27,0-.92,3.1-1.76,4.44"/></g></svg>