<svg id="Layer_1" data-name="Layer 1" xmlns="http://www.w3.org/2000/svg" width="53" height="24"><defs><style>.cls-1{fill:#0089d9;fill-rule:evenodd}</style></defs><g id="Comment"><path class="cls-1" d="M47 1H35a6 6 0 0 0-6 6v6a6 6 0 0 0 6 6c1 0 2 3 2 5h1c0-3 3.61-5 4.94-5H47a6 6 0 0 0 6-6V7a6 6 0 0 0-6-6zM36 12a2 2 0 1 1 2-2 2 2 0 0 1-2 2zm5 0a2 2 0 1 1 2-2 2 2 0 0 1-2 2zm5 0a2 2 0 1 1 2-2 2 2 0 0 1-2 2zM7 8a2 2 0 1 0 2 2 2 2 0 0 0-2-2zm0 3a1 1 0 1 1 1-1 1 1 0 0 1-1 1zm10-3a2 2 0 1 0 2 2 2 2 0 0 0-2-2zm0 3a1 1 0 1 1 1-1 1 1 0 0 1-1 1zm1-10H6a6 6 0 0 0-6 6v6a6 6 0 0 0 6 6c1 0 2 3 2 5h1c0-3 3.61-5 4.94-5H18a6 6 0 0 0 6-6V7a6 6 0 0 0-6-6zm4 12a3.7 3.7 0 0 1-3.37 4 3.32 3.32 0 0 1-.63 0h-4a5.92 5.92 0 0 0-5.23 3.19C8.71 18.2 7.77 17 6 17a3.7 3.7 0 0 1-4-3.37A3.32 3.32 0 0 1 2 13V7a3.7 3.7 0 0 1 3.37-4A3.31 3.31 0 0 1 6 3h12a3.7 3.7 0 0 1 4 3.37A3.31 3.31 0 0 1 22 7zM12 8a2 2 0 1 0 2 2 2 2 0 0 0-2-2zm0 3a1 1 0 1 1 1-1 1 1 0 0 1-1 1z"/></g></svg>