<svg data-name="Layer 1" xmlns="http://www.w3.org/2000/svg" width="24" height="24"><path d="M23.53 17.77A54.61 54.61 0 0 0 18.89 22c-2.41.49-3.41.64-5.84 1-4.8-.79-6.82-2.55-9.22-2.89a4.12 4.12 0 0 0-.83.09 1 1 0 0 1-1 .8H1a1 1 0 0 1-1-1v-5a1 1 0 0 1 1-1h1a1 1 0 0 1 1 1c1.63-.44 2.84-1.81 8.18.06a7.83 7.83 0 0 0 4.24-.06c2.41-.21 4.13 1.43.62 3a19.92 19.92 0 0 1-5 0c1.93 1 4.6.73 5.84.78A26.42 26.42 0 0 0 21.61 16c1.83-.84 2.64.58 1.92 1.77zM11.5 12h7a.5.5 0 0 1 .5.5.47.47 0 0 1-.47.47h-7a.47.47 0 0 1-.5-.44.5.5 0 0 1 .47-.53zm0-3h7a.5.5 0 0 1 .5.5.47.47 0 0 1-.47.47h-7a.47.47 0 0 1-.5-.44.5.5 0 0 1 .47-.53zm9.5 6V7h-4V3H9v10H7V1h11l5 5v9zM19 4v1h1z" fill="#0089d9" fill-rule="evenodd" data-name="Change Owner"/></svg>