<svg xmlns="http://www.w3.org/2000/svg" width="24" height="24" viewBox="0 0 24 24"><defs><style>.cls-1{fill:#d93644;fill-opacity:0;}.cls-2{fill:none;stroke:#445d82;stroke-linecap:round;stroke-linejoin:round;stroke-width:2px;}</style></defs><g id="_24_Comment_chat" data-name="24_Comment chat"><rect id="Container" class="cls-1" width="24" height="24"/><path class="cls-2" d="M2.28,1.92c2-1.28,11.34-.84,13.11-.56a3.75,3.75,0,0,1,3.55,3.49,33.29,33.29,0,0,1-.31,6.76c-.46,2-1.3,2.88-3.36,3.12-1.46.17-4.41,0-5.43.34-.67.24-1.57,2.15-2.25,2.15-1,0-1.17-1.34-1.95-2.14s-1.74-.62-2.58-.94C1.92,13.69,1.5,12.68,1.25,11S.59,3,2.28,1.92Z"/><path class="cls-2" d="M5.22,8.38a.44.44,0,1,0,.69.53C6.32,8.15,5.37,8.12,5.22,8.38Z"/><path class="cls-2" d="M9.66,8.37a.43.43,0,1,0,.68.53C10.75,8.14,9.8,8.11,9.66,8.37Z"/><path class="cls-2" d="M14.13,8.38c-.41.7.49.89.69.53C15.22,8.15,14.28,8.12,14.13,8.38Z"/><path class="cls-2" d="M12.62,18.78a7.5,7.5,0,0,0,.13.92,2,2,0,0,0,1.95,1.83,24.48,24.48,0,0,1,3.16.2c.39.14.92,1.27,1.32,1.27.6,0,.67-.79,1.13-1.26s1-.37,1.5-.56c.66-.26.9-.85,1.05-1.82s.39-4.72-.6-5.37a1.43,1.43,0,0,0-.41-.18"/></g></svg>