<svg data-name="Layer 1" xmlns="http://www.w3.org/2000/svg" width="24" height="24"><path d="M19.36 18.37a4.07 4.07 0 0 0-4.24-2.27L13 14h1c5-4 5-14 5-14h-1s-1.67 8.3-6.51 12.8C6.69 8.3 5 0 5 0H4s0 10 5 14h1l-2.07 2.1a4.07 4.07 0 0 0-4.24 2.27c-1.16 2-.83 4.37.73 5.28s3.75 0 4.91-2a4.41 4.41 0 0 0 .27-4.21l1.4-1.35.58-.3.58.3 1.35 1.35a4.41 4.41 0 0 0 .27 4.21c1.16 2 3.35 2.91 4.91 2s1.82-3.27.67-5.28zM7.65 20.92c-.48 1-1.39 1.38-2 1a2 2 0 0 1-.3-2.5c.48-1 1.52-1.68 2.17-1.25s.61 1.83.13 2.75zM12 15h-1v-1h1zm5.42 6.87c-.65.43-1.56 0-2-1s-.48-2.37.17-2.8 1.69.3 2.17 1.25a2 2 0 0 1-.32 2.56z" fill="#0089d9" fill-rule="evenodd"/></svg>