<svg xmlns="http://www.w3.org/2000/svg" width="24" height="24" viewBox="0 0 24 24"><defs><style>.cls-1{fill:#d93644;fill-opacity:0;}.cls-2,.cls-3,.cls-4{fill:none;stroke:#445d82;}.cls-2,.cls-4{stroke-linecap:round;stroke-linejoin:round;}.cls-2{stroke-width:2px;}.cls-3{stroke-miterlimit:10;}</style></defs><g id="_24_Comment_Web" data-name="24_Comment Web"><rect id="Container" class="cls-1" y="0.03" width="24" height="24"/><path class="cls-2" d="M14.93,16a30.12,30.12,0,0,1-.22,3.34c-.27,2.2-1.28,3.27-2.92,3.46a36.41,36.41,0,0,1-7.6,0c-1.6-.2-2.66-1.26-2.88-3.46a95.33,95.33,0,0,1,0-15.4A2.74,2.74,0,0,1,3.83,1.2a43.22,43.22,0,0,1,8.36,0,3,3,0,0,1,2.52,2.74c0,.53,0,.62.08,1.24"/><ellipse class="cls-3" cx="8" cy="20" rx="0.48" ry="0.49"/><line class="cls-4" x1="14.79" y1="5.5" x2="1.23" y2="5.5"/><line class="cls-4" x1="15.23" y1="17.5" x2="1.67" y2="17.5"/><line class="cls-4" x1="9.5" y1="3.5" x2="6.52" y2="3.5"/><path class="cls-2" d="M16.72,8.19c.59,0,.44-2,1.31-2.36s5,3.31,5,5.07-3.6,5.23-4.67,4.9c-.86-.26-.74-2.14-1-2.55-.51-.79-3.54-1.25-7.26,1.39C9.63,14.94,9.81,7.78,16.72,8.19Z"/></g></svg>