<svg data-name="Layer 1" xmlns="http://www.w3.org/2000/svg" width="24" height="24"><path d="M11 9c-2.08-2.2 5.64-5.53-1-8 3.26 3-4.39 4.78 1 8zM7 9c-2.3-2.6 4-4.35-1-6 2 2-4 3.59 1 6zm16.45 3.22c-1-1.8-3.58-1.34-4.44-.28v-.46A1.41 1.41 0 0 0 17.67 10H3.52A1.38 1.38 0 0 0 2 11.24a1.71 1.71 0 0 0 0 .32V14a7.58 7.58 0 0 0 4.22 7H1c-.55 0-1 0-1 .56S3 23 6 23h9c3 0 6-.89 6-1.44s-.42-.56-1-.56h-5a7.47 7.47 0 0 0 2.11-1.59 1.43 1.43 0 0 1-.07.28c2.57-2.19 8.82-3.15 6.42-7.48zM19 14.29c.56-1 2.17-1.92 2.84-.88s-.74 2.75-3.15 3a8.9 8.9 0 0 0 .31-2.12zM17 15c0 2-2.53 5-6.53 5S4 17 4 15v-3h13zm-2-6c-2.3-2.6 4-4.35-1-6 2 2-4 3.59 1 6z" fill="#0089d9" fill-rule="evenodd" data-name="Coffee Break"/></svg>