<svg xmlns="http://www.w3.org/2000/svg" width="24" height="24" viewBox="0 0 24 24"><defs><style>.cls-1{fill:#d93644;fill-opacity:0;}.cls-2,.cls-3{fill:none;stroke:#445d82;stroke-linecap:round;stroke-linejoin:round;}.cls-2{stroke-width:2px;}</style></defs><g id="_24_Cut" data-name="24_Cut"><rect id="Container" class="cls-1" width="24" height="24"/><path class="cls-2" d="M1.68,18.56C-.66,22,3.6,24.89,5.94,21.49S4,15.16,1.68,18.56Z"/><path class="cls-2" d="M5.94,21.49c2.92-5,5.47-5.55,7.33-7.09C22.75,6.52,19.68.5,19,1A61.82,61.82,0,0,0,8.36,11c-1,1.3.79,4.7-1.76,8.77"/><path class="cls-3" d="M11.58,11.55a.41.41,0,1,0,.81,0C12.39,10.77,11.58,11,11.58,11.55Z"/><path class="cls-2" d="M22.32,18.56c2.34,3.4-1.91,6.33-4.25,2.93S20,15.16,22.32,18.56Z"/><path class="cls-2" d="M15,13a9.07,9.07,0,0,0,.4,3.32,10.38,10.38,0,0,0,2,3.45"/><path class="cls-2" d="M5.5,9.29C1.46,4.77,3.39.63,3.94,1a69.35,69.35,0,0,1,7.56,6.4"/><path class="cls-2" d="M18.07,21.49a15.15,15.15,0,0,0-3.53-4.3,23.1,23.1,0,0,0-2.28-1.59"/></g></svg>