<svg xmlns="http://www.w3.org/2000/svg" width="24" height="24" viewBox="0 0 24 24"><defs><style>.cls-1{fill:#e04c59;fill-opacity:0;}.cls-2{fill:none;stroke:#445d82;stroke-linecap:round;stroke-linejoin:round;stroke-width:2px;}</style></defs><g id="_24_Trash_Can" data-name="24_Trash Can"><g id="Grid_Icons_32" data-name="Grid Icons 32"><rect id="Container" class="cls-1" width="24" height="24"/><path class="cls-2" d="M2,5.77C6.63,4.71,17.4,5,22,5.08"/><path class="cls-2" d="M20,7.93c0,5.05-1.17,11.24-2.59,13.66-1.12,1.91-10.13,1.91-11-.18C5.1,18.51,4,11.93,4,8.57"/><path class="cls-2" d="M9,2.3C9.07,1.16,9.25.94,12.25,1c2.55.06,2.87.26,3.27,1.3"/><path class="cls-2" d="M16.06,11.39A45.61,45.61,0,0,1,14.59,20"/><path class="cls-2" d="M8,11.39A43.53,43.53,0,0,0,9.54,20"/></g></g></svg>