<svg xmlns="http://www.w3.org/2000/svg" width="24" height="24" viewBox="0 0 24 24"><defs><style>.cls-1{fill:#d93644;fill-opacity:0;}.cls-2,.cls-3{fill:none;stroke:#445d82;stroke-width:2px;}.cls-2{stroke-miterlimit:10;}.cls-3{stroke-linecap:round;stroke-linejoin:round;}</style></defs><g id="_24_Detach" data-name="24_Detach"><rect id="Container" class="cls-1" y="0.02" width="24" height="24"/><path class="cls-2" d="M19.47,18.85a100.65,100.65,0,0,1-11,0c-1.79-.11-3.13-1.26-3.32-3.57a93.72,93.72,0,0,1,0-10.48c.16-2.34,1.17-3.4,3.32-3.57a66.23,66.23,0,0,1,11,0c2.09.21,3.12,1.26,3.32,3.57a65.4,65.4,0,0,1,0,10.48C22.61,17.2,21.63,18.73,19.47,18.85Z"/><path class="cls-3" d="M11,19c0,.7-.05,1.36-.11,1.93a1.93,1.93,0,0,1-1.84,2,59.15,59.15,0,0,1-6.11,0,1.92,1.92,0,0,1-1.84-2,49,49,0,0,1,0-5.82c.08-1.3.64-1.89,1.84-2C3.56,13.08,4.27,13,5,13"/><path class="cls-3" d="M12,12c2-2,4.76-4.8,5-5"/><path class="cls-3" d="M13,6.18c1.7-.12,4.32-.39,4.78.13s.12,3.37,0,4.65"/></g></svg>