<svg xmlns="http://www.w3.org/2000/svg" width="24" height="24" viewBox="0 0 24 24"><defs><style>.cls-1{fill:#c2d5ef;opacity:0;}.cls-2,.cls-3{fill:none;stroke:#445d82;stroke-linecap:round;stroke-linejoin:round;}.cls-3{stroke-width:2px;}</style></defs><g id="_24_Document_Production" data-name="24_Document Production"><rect id="_Container_" data-name="&lt;Container&gt;" class="cls-1" width="24" height="24"/><path class="cls-2" d="M9.54,14.65a31.25,31.25,0,0,1,4.93-.05c.12.15-.41.83-.69.9a27.78,27.78,0,0,1-3.65,0C9.91,15.41,9.39,14.76,9.54,14.65Z"/><path class="cls-3" d="M19.8,8.14a17.13,17.13,0,0,1,1.34,3.26"/><path class="cls-3" d="M2.31,10C3,8.39,3.27,7.64,4,6.21"/><path class="cls-3" d="M8.37,11c4.32-.06,9.78.12,11.78.21A2,2,0,0,1,22,13.34a30,30,0,0,1-.51,5.92c-.41,1.94-1.23,2.44-2.76,2.65s-10.49.23-13.43,0c-1.19-.1-2-.25-2.76-2.65a36.52,36.52,0,0,1-.46-8.52A1.76,1.76,0,0,1,3.43,9.1,27.49,27.49,0,0,1,6.55,9C7.2,9.06,8.08,10.58,8.37,11Z"/><path class="cls-3" d="M20,9.3c-.18-1.14-1.13-1.74-3.55-1.84-1.19,0-2.28-.64-2.34-1.84C14,3.31,13.46,2.05,12.19,2"/><path class="cls-3" d="M20.05,11.17c0-.81,0-1.5-.06-2a4.32,4.32,0,0,0-1.14-2.66,25.74,25.74,0,0,0-3.56-3.43A5,5,0,0,0,12.54,2c-1,0-3.47,0-5.22,0S4.19,3,4.08,5.75c0,.65,0,1.6,0,3.19"/></g></svg>