<svg xmlns="http://www.w3.org/2000/svg" width="24" height="24" viewBox="0 0 24 24"><defs><style>.cls-1{fill:#d93644;fill-opacity:0;}.cls-2,.cls-3{fill:none;stroke:#445d82;stroke-linecap:round;stroke-linejoin:round;}.cls-2{stroke-width:2px;}</style></defs><g id="_24_Download" data-name="24_Download"><rect id="Container" class="cls-1" width="24" height="24"/><path class="cls-2" d="M9,1.1c0,3,0,5.57.08,8.17,0,.15-.11.24-.31.24C8.36,9.5,7,9.32,7,9.93c-.06.8,4,6,5,6.07s5.3-5.22,5-5.8-1.31-.28-1.72-.34A.45.45,0,0,1,15,9.54c0-2.46,1.19-7.91,0-8.44-.66-.31-2.42,1-3,1S9,.61,9,1.1Z"/><polyline class="cls-3" points="22 15.54 19 15.54 18.29 19.54 6.06 19.54 5.01 15.54 2.03 15.57"/><path class="cls-2" d="M2,16.07s.44,6.63,1.14,6.71a136.51,136.51,0,0,0,17.73-.14C21.72,22.52,22,16,22,16"/></g></svg>