<svg data-name="Layer 1" xmlns="http://www.w3.org/2000/svg" width="24" height="24"><path d="M12 0C7.53 0 2 1.35 2 4v16c0 2.64 5.53 4 10 4s10-1.38 10-4V4c0-2.62-5.53-4-10-4zm8 10.22c-1.23.94-4.58 1.79-8 1.79s-6.75-.84-8-1.78V6.39A18.37 18.37 0 0 0 12 8a18.38 18.38 0 0 0 8-1.62zM4 11.39A18.37 18.37 0 0 0 12 13a18.38 18.38 0 0 0 8-1.62v3.84c-1.23.94-4.58 1.79-8 1.79s-6.75-.84-8-1.78zM12 2c4.55 0 8 1.43 8 2v1.2c-1.23 1-4.58 1.8-8 1.8s-6.75-.83-8-1.77V4c0-.59 3.45-2 8-2zm0 20c-4.55 0-8-1.41-8-2v-3.6a18.5 18.5 0 0 0 8 1.6 18.38 18.38 0 0 0 8-1.62V20c0 .55-3.45 2-8 2z" fill="#0089d9"/></svg>