<svg data-name="Layer 1" xmlns="http://www.w3.org/2000/svg" width="24" height="24"><path d="M10 17V9a1 1 0 0 0-2 0v8a1 1 0 0 0 2 0zm3 0V9a1 1 0 0 0-2 0v8a1 1 0 0 0 2 0zm3 0V9a1 1 0 0 0-2 0v8a1 1 0 0 0 2 0zm6-13h-6c0-2-1-4-3-4h-2C9 0 8 2 8 4H2a2.15 2.15 0 0 0-2 2v1a1 1 0 0 0 2 0 1 1 0 0 1 1-1h18a1 1 0 0 1 1 1 1 1 0 0 0 2 0V6a2.15 2.15 0 0 0-2-2zm-8 0h-4V3c0-.09.28-1 1-1h2c.72 0 1 .9 1 1zm6.09 3a1 1 0 0 0-1.09.9s-.48 8.12-.75 12.56c0 .7-.41 1.53-1.85 1.53H7.59c-1.44 0-1.82-.83-1.85-1.53C5.53 16 5 7.91 5 7.91a1 1 0 0 0-2 .18L3.85 22A2.6 2.6 0 0 0 6 24h12a2.6 2.6 0 0 0 2.15-2L21 8.09A1 1 0 0 0 20.1 7z" fill="#0089d9" fill-rule="evenodd"/></svg>