<svg xmlns="http://www.w3.org/2000/svg" width="24" height="24" viewBox="0 0 24 24"><defs><style>.cls-1{opacity:0;}.cls-2{fill:#e04c59;}.cls-3,.cls-4{fill:none;stroke:#445d82;stroke-linecap:round;stroke-linejoin:round;}.cls-3{stroke-width:2px;}</style></defs><g id="_24_Dislike" data-name="24_Dislike"><g id="Container" class="cls-1"><rect class="cls-2" width="24" height="24"/></g><g id="Container-2" data-name="Container" class="cls-1"><rect class="cls-2" width="24" height="24"/></g><path class="cls-3" d="M6.58,11c1.72-.08,3,2.23,4.23,3.3C13,16.17,15.46,18,15.18,22.05c-.08,1.2,2.36,1.33,3,.25,2.18-3.59-.72-6.9-1-8.87"/><path class="cls-4" d="M21.67,10.32a9.66,9.66,0,0,0-1.57-.21"/><path class="cls-3" d="M16.33,13.32a27.11,27.11,0,0,1,4.8.07c1.64,0,1.95-2.46,1.2-3"/><path class="cls-4" d="M21.53,7.14a8.42,8.42,0,0,0-1.39-.2"/><path class="cls-3" d="M22.33,10.4c1-.17.91-2.62,0-3.2"/><path class="cls-4" d="M21.14,4.19l-1.85,0"/><path class="cls-3" d="M22.38,7.2c.76-.08.48-3.11-1-3.16"/><path class="cls-3" d="M21.4,4c.35-.27.42-1.85-1.43-2.35C12.38-.37,8.51,3.17,6.11,3"/><path class="cls-3" d="M5.63,11.65c-.56.54-3.77.5-4.12-.26-.69-1.52-.5-8.5.09-9s3.27-.42,3.92,0C5.87,2.6,6.31,11,5.63,11.65Z"/></g></svg>