<svg xmlns="http://www.w3.org/2000/svg" width="24" height="24" viewBox="0 0 24 24"><defs><style>.cls-1{fill:#e04c59;opacity:0;}.cls-2{fill:none;stroke:#445d82;stroke-linecap:round;stroke-linejoin:round;stroke-width:2px;}</style></defs><g id="_24_Document_info" data-name="24_Document_info"><rect id="Container" class="cls-1" width="24" height="24"/><path class="cls-2" d="M4.06,10.07C4.24,8.83,5.59,8.1,8,8a1.89,1.89,0,0,0,2-2c.12-2.5.73-3.93,2-4"/><path class="cls-2" d="M9.84,22c-.77,0-1.44,0-1.89,0-1.69-.06-3.67-.32-3.82-2.68-.2-3.23-.14-8.07,0-10a4.39,4.39,0,0,1,1.13-2.7A25.91,25.91,0,0,1,8.75,3.11,4.8,4.8,0,0,1,11.49,2c1,0,3.45,0,5.18,0s3.12.94,3.22,3.78c0,.56.06,1.61.08,2.9"/><path class="cls-2" d="M23,17.86A5.73,5.73,0,0,1,17.5,23,5.27,5.27,0,0,1,12,17.49c0-3,2.85-5.37,5.8-5.49C21.23,11.87,23.09,14.82,23,17.86Z"/><line class="cls-2" x1="17.5" y1="18.67" x2="17.5" y2="20"/><circle class="cls-2" cx="17.5" cy="15.5" r="0.5"/></g></svg>