<svg xmlns="http://www.w3.org/2000/svg" width="24" height="24" viewBox="0 0 24 24"><defs><style>.cls-1{fill:#d93644;fill-opacity:0;}.cls-2,.cls-3{fill:none;stroke:#445d82;stroke-linecap:round;stroke-linejoin:round;}.cls-2{stroke-width:2px;}</style></defs><g id="_24_Drag" data-name="24_Drag"><rect id="Container" class="cls-1" width="24" height="24"/><path class="cls-2" d="M15.68,6.23C16.39,5.6,13.22,1,12.15,1S7.56,5.59,8.32,6.26"/><path class="cls-3" d="M8.12,6.53c.43.65,3.42-1.67,3.89-1.68s3.22,2.4,3.86,1.63"/><path class="cls-2" d="M12,9.44c.08-1-.09-2.7,0-4.12"/><path class="cls-2" d="M15.68,17.8c.71.63-2.46,5.24-3.53,5.21s-4.59-4.57-3.83-5.24"/><path class="cls-3" d="M8.12,17.51c.43-.64,3.42,1.66,3.89,1.67s3.22-2.39,3.86-1.62"/><path class="cls-2" d="M12,14.59c.08,1-.09,2.7,0,4.12"/><path class="cls-2" d="M17.78,15.7c.63.71,5.24-2.46,5.21-3.53s-4.57-4.59-5.24-3.83"/><path class="cls-3" d="M17.49,8.14c-.65.43,1.67,3.42,1.67,3.89s-2.4,3.22-1.63,3.86"/><path class="cls-2" d="M14.57,12.05c1,.08,2.7-.09,4.12,0"/><path class="cls-2" d="M6.21,15.7C5.58,16.41,1,13.24,1,12.17S5.57,7.58,6.24,8.34"/><path class="cls-3" d="M6.48,8.11c.65.43-1.64,3.45-1.65,3.92s2.36,3.24,1.59,3.88"/><path class="cls-2" d="M9.42,12.05c-1,.08-2.69-.09-4.12,0"/></g></svg>