<svg data-name="Layer 1" xmlns="http://www.w3.org/2000/svg" width="24" height="24"><path d="M14 2a2 2 0 1 0-2 2 2 2 0 0 0 2-2zm0 14a5.84 5.84 0 0 0 5 2 5.93 5.93 0 0 0 5-2h-1.3l-3-10A1.4 1.4 0 0 0 21 4.5a.5.5 0 0 0-1 0c0 .23-.34.38-.65.45a.53.53 0 0 0-.69 0c-.31-.08-.66-.24-.66-.45a.5.5 0 0 0-.5-.5h-11a.5.5 0 0 0-.5.5c0 .23-.34.38-.65.45a.53.53 0 0 0-.69 0C4.35 4.87 4 4.71 4 4.5a.5.5 0 0 0-1 0 1.4 1.4 0 0 0 1.28 1.43L1.28 16H0a5.93 5.93 0 0 0 5 2 5.87 5.87 0 0 0 5-2H8.7l-3-10a1.27 1.27 0 0 0 1.24-1H11v17h-1c-1 0-3 .89-3 1.44s.45.56 1 .56h8c.55 0 1 0 1-.56S15 22 14 22h-1V5h4.06a1.29 1.29 0 0 0 1.21 1l-3 10zm-6.72 0H2.61L5 8zM19 8l2.28 8h-4.67z" fill="#0089d9" fill-rule="evenodd"/></svg>