<svg id="Layer_1" data-name="Layer 1" xmlns="http://www.w3.org/2000/svg" width="53" height="24"><defs><style>.cls-1{fill:#0089d9;fill-rule:evenodd}</style></defs><g id="Export"><path class="cls-1" d="M18 21a1 1 0 0 1-1 1H3a1 1 0 0 1-1-1V7a1 1 0 0 1 1-1h10l2-2H2a2 2 0 0 0-2 2v16a2 2 0 0 0 2 2h16a2 2 0 0 0 2-2V9l-2 2zm5-21h-7a1 1 0 0 0 0 2h4.5L9.41 13.09a1 1 0 1 0 1.3 1.52l.11-.11L22 3.33V8a1 1 0 0 0 2 0V1a1 1 0 0 0-1-1zM52 0h-7a1 1 0 0 0 0 2h4.5L38.41 13.09a1 1 0 1 0 1.3 1.52l.11-.11L51 3.33V8a1 1 0 0 0 2 0V1a1 1 0 0 0-1-1zM37.56 15.56C36 14 38 12 38 12l8-8H31a2 2 0 0 0-2 2v16a2 2 0 0 0 2 2h16a2 2 0 0 0 2-2V7l-8 8s-2 2-3.44.56z"/></g></svg>