<svg xmlns="http://www.w3.org/2000/svg" width="24" height="24" viewBox="0 0 24 24"><defs><style>.cls-1{fill:#d93644;fill-opacity:0;}.cls-2,.cls-3{fill:none;stroke:#445d82;stroke-linecap:round;stroke-linejoin:round;}.cls-2{stroke-width:2px;}</style></defs><g id="_24_Expand" data-name="24_Expand"><rect id="Container" class="cls-1" width="24" height="24"/><path class="cls-2" d="M4.27,14c-1.15,0-2.92,6.9-2,7.75S10,21.46,10,20.24"/><path class="cls-3" d="M10.45,20.25c0-1.15-3.92-2-4.24-2.46s-.76-4.25-1.93-4.25"/><path class="cls-2" d="M9.63,14.38c-1,1-2,2-3,3"/><path class="cls-2" d="M14,4.26c0-1.14,6.9-2.91,7.74-2S21.45,10,20.22,10"/><path class="cls-3" d="M20.24,10.45c-1.15,0-2-3.92-2.46-4.24s-4.25-.76-4.25-1.93"/><path class="cls-2" d="M14.36,9.63c1-1,2-2,3-3"/><path class="cls-2" d="M10,4.27c0-1.14-6.9-2.91-7.74-2S2.55,10,3.77,10"/><path class="cls-3" d="M3.76,10.46c1.14,0,2-3.92,2.46-4.24s4.25-.77,4.25-1.93"/><path class="cls-2" d="M9.63,9.63c-1-1-2-2-3-3"/><path class="cls-2" d="M19.74,14c1.14,0,2.92,6.9,2,7.74S14,21.45,14,20.23"/><path class="cls-3" d="M13.55,20.24c0-1.14,3.92-2,4.25-2.46s.76-4.25,1.92-4.25"/><path class="cls-2" d="M14.38,14.37c1,1,2,2,3,3"/></g></svg>