<svg xmlns="http://www.w3.org/2000/svg" width="24" height="24" viewBox="0 0 24 24"><defs><style>.cls-1{fill:#d93644;fill-opacity:0;}.cls-2,.cls-3{fill:none;stroke:#445d82;stroke-linecap:round;stroke-linejoin:round;}.cls-2{stroke-width:2px;}</style></defs><g id="_24_Evaluate_Balance" data-name="24_Evaluate / Balance"><rect id="Container" class="cls-1" width="24" height="24"/><line class="cls-2" x1="10.48" y1="5.59" x2="11.47" y2="19.4"/><line class="cls-2" x1="12.65" y1="4.87" x2="11.65" y2="19.4"/><path class="cls-2" d="M12.81,2.78s0-.6.1-1.31-2.72-.51-2.7,0,.12,2,.12,2"/><path class="cls-2" d="M9.11,19.7c-1.28.2-2.14.61-2.26,1a2.65,2.65,0,0,0,.09,1.2c.49,1.51,8.82,1.51,9.35-.18a2.9,2.9,0,0,0,0-1c-.07-.51-.93-1-2.19-1"/><path class="cls-2" d="M9.19,19.72a.71.71,0,0,1,.11-.28c.28-.39,1-.47,1.57-.5"/><path class="cls-2" d="M12.41,18.94c.57,0,1.3.11,1.57.5a.82.82,0,0,1,.11.25"/><path class="cls-2" d="M1.1,12.89c.74-.91,6.74-1,7.49-.08.34.43.17,3.62-3.59,3.59S.74,13.34,1.1,12.89Z"/><path class="cls-2" d="M14.9,9.6c.78-1,7.18-1.08,8-.08.37.45.18,3.86-3.82,3.82S14.51,10.08,14.9,9.6Z"/><path class="cls-3" d="M4.51,7.76l-3.17,5"/><path class="cls-3" d="M5.05,7.82a43.21,43.21,0,0,1,3.19,4.75"/><path class="cls-3" d="M18.56,3.74S16.29,7.4,15.15,9.41"/><path class="cls-3" d="M18.9,3.56s3.42,4.2,3.73,5.85"/><path class="cls-2" d="M10.33,3.45A19.14,19.14,0,0,0,5.81,6.93c-1.9,1.8-4.13.89-3.7-.29"/><path class="cls-2" d="M20.7,1c.77,1.16,0,2.73-3.09,2.18a20.36,20.36,0,0,0-4.74-.41"/><path class="cls-2" d="M10.48,5.59a53.7,53.7,0,0,0-5.56,2"/><path class="cls-2" d="M19.52,3.24c-2.56.5-4.9,1.13-6.8,1.63"/></g></svg>