<svg xmlns="http://www.w3.org/2000/svg" width="24" height="24" viewBox="0 0 24 24"><defs><style>.cls-1{fill:#e04c59;opacity:0;}.cls-2{fill:none;stroke:#445d82;stroke-linecap:round;stroke-linejoin:round;stroke-width:2px;}</style></defs><g id="_24_Email" data-name="24_Email"><rect id="Container" class="cls-1" width="24" height="24"/><path class="cls-2" d="M17.82,19.78a78.09,78.09,0,0,1-11.65,0,4.69,4.69,0,0,1-4-4,41.94,41.94,0,0,1,0-7.6,4.08,4.08,0,0,1,4-4,94.31,94.31,0,0,1,11.65,0,4.71,4.71,0,0,1,4,4,40.18,40.18,0,0,1,0,7.6A5,5,0,0,1,17.82,19.78Z"/><path class="cls-2" d="M3.36,5.38S9.59,12,12,12s8.48-6.5,8.48-6.5"/></g></svg>