<svg xmlns="http://www.w3.org/2000/svg" width="24" height="24" viewBox="0 0 24 24"><defs><style>.cls-1{fill:#d93644;fill-opacity:0;}.cls-2,.cls-3{fill:none;stroke:#445d82;stroke-linecap:round;stroke-linejoin:round;}.cls-2{stroke-width:2px;}</style></defs><g id="_24_Collapse" data-name="24_Collapse"><rect id="Container" class="cls-1" width="24" height="24"/><path class="cls-2" d="M7.74,22c1.14,0,2.91-6.9,2-7.74S2,14.55,2,15.78"/><path class="cls-3" d="M1.55,15.76c0,1.15,3.92,2,4.24,2.46s.76,4.25,1.93,4.25"/><path class="cls-2" d="M2.37,21.64c1-1,2-2,3-3"/><path class="cls-2" d="M16.26,2c-1.14,0-2.91,6.9-2,7.74S22,9.45,22,8.22"/><path class="cls-3" d="M22.45,8.24c0-1.15-3.92-2-4.24-2.46s-.76-4.25-1.93-4.25"/><path class="cls-2" d="M21.63,2.36c-1,1-2,2-3,3"/><path class="cls-2" d="M2,7.74c0,1.14,6.9,2.91,7.74,2S9.45,2,8.22,2"/><path class="cls-3" d="M8.24,1.55c-1.15,0-2,3.92-2.46,4.24s-4.25.76-4.25,1.93"/><path class="cls-2" d="M2.36,2.37c1,1,2,2,3,3"/><path class="cls-2" d="M22,16.26c0-1.14-6.9-2.91-7.74-2S14.55,22,15.78,22"/><path class="cls-3" d="M15.76,22.45c1.15,0,2-3.92,2.46-4.24s4.25-.76,4.25-1.93"/><path class="cls-2" d="M21.64,21.63c-1-1-2-2-3-3"/></g></svg>