<svg xmlns="http://www.w3.org/2000/svg" width="24" height="24" viewBox="0 0 24 24"><defs><style>.cls-1{fill:#d93644;fill-opacity:0;}.cls-2{fill:none;stroke:#445d82;stroke-linecap:round;stroke-linejoin:round;stroke-width:2px;}</style></defs><g id="_24_Exclude" data-name="24_Exclude"><rect id="Container" class="cls-1" width="24" height="24"/><path class="cls-2" d="M2,11.18c.12-1.79.89-2.6,2.53-2.73C5.71,8.36,7,8.3,8.34,8.28c0,0,.07-2.74.12-3.51C8.59,3,9.35,2.17,11,2a50.13,50.13,0,0,1,8.4,0c1.6.16,2.38,1,2.53,2.73a48.51,48.51,0,0,1,0,8A2.64,2.64,0,0,1,19.4,15.5c-1.35.07-2.34.11-3.73.11h0c0,1.3-.07,2.55-.16,3.57A2.65,2.65,0,0,1,13,21.91c-1.35.08-7.21.08-8.41,0A2.63,2.63,0,0,1,2,19.18C1.93,17.86,2,12,2,11.18Z"/><line class="cls-2" x1="11" y1="7.95" x2="12" y2="7.95"/><polyline class="cls-2" points="15 7.95 16 7.95 16 8.95"/><line class="cls-2" x1="16" y1="11.95" x2="16" y2="12.95"/><line class="cls-2" x1="8" y1="10.95" x2="8" y2="11.95"/><polyline class="cls-2" points="8 14.95 8 15.95 9 15.95"/><line class="cls-2" x1="12" y1="15.95" x2="13" y2="15.95"/></g></svg>