<svg xmlns="http://www.w3.org/2000/svg" width="24" height="24" viewBox="0 0 24 24"><defs><style>.cls-1{fill:#d93644;fill-opacity:0;}.cls-2,.cls-3{fill:none;stroke:#445d82;stroke-linecap:round;stroke-linejoin:round;}.cls-2{stroke-width:2px;}</style></defs><g id="_24_Education" data-name="24_Education"><rect id="Container" class="cls-1" width="24" height="24"/><path class="cls-2" d="M11.86,4C10.14,4.21,1.64,7.45,1,8.6.49,9.6,10.13,13.94,11.6,14c2.16.1,11.26-4.12,11.4-4.69C23.25,8.22,13.55,3.82,11.86,4Z"/><path class="cls-2" d="M5.06,11.87c.11,2-.48,3.93.14,5.22S9.94,20,12,20a10.39,10.39,0,0,0,5.82-2.84c.52-.81,0-2.87,0-4.89"/><path class="cls-2" d="M20,22c1.56-1.9,0-4.82,1.44-4.82s.24,3,1.32,4.44"/><path class="cls-3" d="M12.21,8.61s8.71,1.69,9,2.34.25,5.77.25,5.77"/></g></svg>