<svg id="Layer_1" data-name="Layer 1" xmlns="http://www.w3.org/2000/svg" width="53.92" height="24.1" viewBox="0 0 53.92 24.1"><defs><style>.cls-1{fill:#d93644;fill-opacity:0;}.cls-2{fill:none;stroke:#445d82;stroke-linecap:round;stroke-linejoin:round;stroke-width:2px;}.cls-3{fill:#445d82;}</style></defs><g id="_24_Export" data-name=" 24 Export"><path id="Container" class="cls-1" d="M-.94,0h24V24h-24Z" transform="translate(0.94)"/><path class="cls-2" d="M19.06,11.3a64.66,64.66,0,0,1-.15,6.91c-.16,2.35-1.17,3.41-3.32,3.58a67.33,67.33,0,0,1-11,0c-2.09-.22-3.12-1.26-3.32-3.58a65.73,65.73,0,0,1,0-10.5c.18-1.93,1.17-3.45,3.32-3.58C7.5,4,9.9,3.94,12.62,4" transform="translate(0.94)"/><path class="cls-2" d="M13.79,9.2c1.39-1.52,6.33-6.27,7.54-7.45" transform="translate(0.94)"/><path class="cls-2" d="M17.5,1.24c1.29-.22,3.92-.44,4.37.08s0,3-.26,4.1" transform="translate(0.94)"/></g><g id="_24_Export-2" data-name=" 24 Export"><path id="Container-2" data-name="Container" class="cls-1" d="M29,.1H53v24H29Z" transform="translate(0.94)"/><path class="cls-2" d="M43.71,9.3C45.1,7.78,50,3,51.25,1.85" transform="translate(0.94)"/><path class="cls-2" d="M47.42,1.34c1.29-.22,3.92-.44,4.37.08s0,3-.26,4.1" transform="translate(0.94)"/><path class="cls-3" d="M50,7.49a1.59,1.59,0,0,0-.71-.76c-.46-.13-2.83,2.66-3.76,3.7a2.36,2.36,0,0,1-3.29.6,2.39,2.39,0,0,1-.35-.28c-.67-.81-.71-2.09.66-3.26C43,7.1,44.89,5,46.25,3.66c.56-.56.15-.7-.07-.7-.41,0-8.93,0-12,.22-2.31.13-3.78,1.67-4,4.24a68.19,68.19,0,0,0,0,11.07c.23,2.64,1.5,4,4,4.25,1.7.17,3.59.24,5.45.24,2.28,0,4.49-.1,6.24-.24,2.55-.2,3.83-1.56,4-4.26C50,17,50.09,7.91,50,7.49Z" transform="translate(0.94)"/></g></svg>