<svg data-name="Layer 1" xmlns="http://www.w3.org/2000/svg" width="24" height="24"><path d="M12 0a12 12 0 1 0 12 12A12 12 0 0 0 12 0zm0 22a10 10 0 1 1 10-10 10 10 0 0 1-10 10zm1.31-9.25a1.12 1.12 0 0 0 0-1.49 1.14 1.14 0 0 0-.23-.15L9 7a1 1 0 0 0-1.4 1.42L11.15 12l-3.52 3.52A1 1 0 0 0 9 16.93l4-4a1 1 0 0 0 .31-.18zm4.77-1.64L14 7a1 1 0 0 0-1.4 1.42L16.15 12l-3.52 3.52A1 1 0 0 0 14 16.93l4-4a1.19 1.19 0 0 0 .23-.16 1.12 1.12 0 0 0 0-1.49.65.65 0 0 0-.15-.18z" fill="#0089d9" fill-rule="evenodd"/></svg>