<svg xmlns="http://www.w3.org/2000/svg" width="24" height="24" viewBox="0 0 24 24"><defs><style>.cls-1{fill:#e04c59;opacity:0;}.cls-2,.cls-3{fill:none;stroke:#445d82;stroke-linecap:round;stroke-linejoin:round;}.cls-2{stroke-width:2px;}</style></defs><g id="_24_Folder_building" data-name="24_Folder_building"><rect id="Container" class="cls-1" width="24" height="24"/><rect id="Container-2" data-name="Container" class="cls-1" width="24" height="24"/><path class="cls-2" d="M10,21c-2.19,0-4.19,0-4.91,0-2.3-.17-2.84-.53-3-3.08-.09-1.56-.18-7.43,0-9.74a3.09,3.09,0,0,1,3-3.08c1.33-.12,10.3-.25,13.92,0,1.2.08,2.75.61,3,3.09A5.6,5.6,0,0,1,22,9"/><path class="cls-2" d="M2,11.07S2,7.66,2.14,5,3.46,2,5.09,2H8.88a2,2,0,0,1,1.64.9l.65,1.18a1.75,1.75,0,0,0,1.54.84"/><path class="cls-2" d="M12,23c.87,0,9.16,0,11,0"/><path class="cls-2" d="M22,22.83c0-3.57.23-10.52-.3-10.79s-8.2,1.85-8.45,2.46S13,20.55,13,22.83"/><path class="cls-3" d="M15.84,16.49c1.3,0,2.33,0,3.12,0"/><path class="cls-3" d="M15.84,18.51c.92,0,2.14,0,3.14,0"/><path class="cls-3" d="M15.51,22.76a13.29,13.29,0,0,1,.06-2.24,25.15,25.15,0,0,1,3.88,0,14.27,14.27,0,0,1,0,2.2"/><path class="cls-2" d="M17.05,11.67c0,.24,0,.89,0,1.2"/></g></svg>