<svg xmlns="http://www.w3.org/2000/svg" width="24" height="24" viewBox="0 0 24 24"><defs><style>.cls-1{fill:#d93644;fill-opacity:0;}.cls-2,.cls-3{fill:none;stroke:#445d82;stroke-linecap:round;stroke-linejoin:round;}.cls-2{stroke-width:2px;}</style></defs><g id="_24_Control_Panel" data-name="24_Control Panel"><rect id="Container" class="cls-1" width="24" height="24"/><path class="cls-2" d="M3.06,6.54C3.18,4.42,4.2,3,5.92,3H17.17A2.52,2.52,0,0,1,20,5.79c.07,3.09,0,5.43,0,10.8,0,3.94-.45,4.41-4.14,4.41H5.92c-1.56,0-2.75-.16-2.83-3.51C3.05,16.14,2.93,8.83,3.06,6.54Z"/><line class="cls-3" x1="7.51" y1="13.21" x2="7.51" y2="18"/><line class="cls-3" x1="7.51" y1="6.02" x2="7.51" y2="6.84"/><path class="cls-2" d="M7.55,9a1,1,0,0,1,0,2C6.51,11.06,6.07,9,7.55,9Z"/><line class="cls-3" x1="11.5" y1="10.5" x2="11.5" y2="6.02"/><line class="cls-3" x1="11.5" y1="18" x2="11.5" y2="17.21"/><path class="cls-2" d="M11.5,15c.61,0,1.5-2,0-2C9.82,13,10.31,15.05,11.5,15Z"/><line class="cls-3" x1="15.52" y1="14.2" x2="15.52" y2="18"/><line class="cls-3" x1="15.5" y1="6" x2="15.5" y2="7.58"/><path class="cls-2" d="M15.52,10c1.4,0,.78,2,0,2C14.5,12,14,10,15.52,10Z"/></g></svg>