<svg xmlns="http://www.w3.org/2000/svg" width="24" height="24"><path d="M2 7V2.5A1.54 1.54 0 0 1 3.5 1 1.54 1.54 0 0 1 5 2.5V7zm0 7v7.5A1.54 1.54 0 0 0 3.5 23 1.54 1.54 0 0 0 5 21.5V14zm19-9V2.5a1.5 1.5 0 0 0-3 0V5zm-3 7v9.5a1.5 1.5 0 0 0 3 0V12zm-5 0V2.5a1.5 1.5 0 0 0-3 0V12zm-3 7v2.5a1.5 1.5 0 0 0 3 0V19zM7 9v3a.94.94 0 0 1-1 1H1a.94.94 0 0 1-1-1V9a.94.94 0 0 1 1-1h5a.94.94 0 0 1 1 1zM2 9H1v3h1zm2 0H3v3h1zm2 0H5v3h1zm9 5v3a.94.94 0 0 1-1 1H9a.94.94 0 0 1-1-1v-3a.94.94 0 0 1 1-1h5a.94.94 0 0 1 1 1zm-5 0H9v3h1zm2 0h-1v3h1zm2 0h-1v3h1zm9-7v3a.94.94 0 0 1-1 1h-5a.94.94 0 0 1-1-1V7a.94.94 0 0 1 1-1h5a.94.94 0 0 1 1 1zm-5 0h-1v3h1zm2 0h-1v3h1zm2 0h-1v3h1z" fill="#0089d9" fill-rule="evenodd"/></svg>