<svg data-name="Layer 1" xmlns="http://www.w3.org/2000/svg" width="24" height="24"><path d="M21 3h-9.5S10 0 8 0H3a3.23 3.23 0 0 0-3 3v14a3.23 3.23 0 0 0 3 3h5v-2H3a1.08 1.08 0 0 1-1-1V5h19a1.08 1.08 0 0 1 1 1v11a1.08 1.08 0 0 1-1 1v2a3.23 3.23 0 0 0 3-3V6a3.23 3.23 0 0 0-3-3zM2 4V3a1.08 1.08 0 0 1 1-1h5c1 0 2 2 2 2zm16 8v-2h-3V8h-1v2h-3v2H9v12h11V12zm-3 2h1v1h-1zm0 2h1v1h-1zm0 2h1v1h-1zm-2-4h1v1h-1zm0 2h1v1h-1zm0 2h1v1h-1zm-2-4h1v1h-1zm0 2h1v1h-1zm0 2h1v1h-1zm7 4h-7v-1h7zm0-3h-1v-1h1zm0-2h-1v-1h1zm0-2h-1v-1h1z" fill="#0089d9" data-name="Folder Building"/></svg>