<svg data-name="Layer 1" xmlns="http://www.w3.org/2000/svg" width="24" height="24"><path d="M11.47 12a3.65 3.65 0 0 0-1.25-2.12C7.3 6.74 6.55 5.16 7.1 2h9.8c.55 3.16-.2 4.74-3.12 7.87A3.68 3.68 0 0 0 12.53 12h2c0-.37.69-1.08.69-1.08A8.89 8.89 0 0 0 18.91 2h1.15a1 1 0 0 0 0-2H3.94a1 1 0 1 0 0 2h1.15a8.9 8.9 0 0 0 3.66 8.92s.66.71.69 1.08zm8.47 10h-1a8.9 8.9 0 0 0-3.66-8.92s-.66-.71-.69-1.08h-2a3.68 3.68 0 0 0 1.25 2.13c2.92 3.14 3.67 4.71 3.16 7.87H7.1c-.55-3.17.2-4.74 3.12-7.88A3.68 3.68 0 0 0 11.47 12h-2c0 .37-.69 1.08-.69 1.08A8.89 8.89 0 0 0 5.09 22H3.94a1 1 0 0 0 0 2h16a1 1 0 0 0 0-2zM8.32 3c-.84 0-.07 2.75 1.41 4.26C9.23 5.76 9.68 3 8.32 3zm0 18c1.35 0 .91-2.76 1.41-4.26C8.25 18.26 7.48 21 8.32 21z" fill="#0089d9"/></svg>