<svg xmlns="http://www.w3.org/2000/svg" width="24" height="24" viewBox="0 0 24 24"><defs><style>.cls-1{fill:#d93644;fill-opacity:0;}.cls-2,.cls-3{fill:none;stroke:#445d82;stroke-linecap:round;stroke-linejoin:round;}.cls-2{stroke-width:2px;}</style></defs><g id="_24_Home" data-name="24_Home"><rect id="Container" class="cls-1" width="24" height="24"/><path class="cls-2" d="M22.89,11.09c-1.5-2.14-6.4-7.71-8.52-9.15-1.93-1.3-3.1-1.28-5,.16A48.66,48.66,0,0,0,1.2,11c-.92,1.45,1.87,1.57,1.86,2a43.55,43.55,0,0,0,.21,6.65,2.3,2.3,0,0,0,2.42,2.18,103.45,103.45,0,0,0,13.12-.06,2.34,2.34,0,0,0,1.9-2.16c.35-2.53.19-5.11.29-6.68C21.06,12.1,23.63,12.15,22.89,11.09Z"/><path class="cls-3" d="M7.09,21.84a1.56,1.56,0,0,0,1.39-1.61,45.46,45.46,0,0,1,.26-5.64,1.16,1.16,0,0,1,1-.93,18.59,18.59,0,0,1,4.34-.06,1.55,1.55,0,0,1,1.28,1.19c.25,1.08.12,4.5.23,5.72a1.36,1.36,0,0,0,1.18,1.38"/></g></svg>