<svg xmlns="http://www.w3.org/2000/svg" width="24" height="24" viewBox="0 0 24 24"><defs><style>.cls-1{fill:#d93644;fill-opacity:0;}.cls-2,.cls-3{fill:none;stroke:#445d82;stroke-linecap:round;stroke-linejoin:round;}.cls-2{stroke-width:2px;}</style></defs><g id="_24_Hourglass" data-name="24_Hourglass"><rect id="Container" class="cls-1" width="24" height="24"/><path class="cls-2" d="M3,22.83c5.24.25,13.35.21,18,0"/><path class="cls-2" d="M4.5,1.42C4.5,9,11.06,11,11.06,12S4.5,14.85,4.5,22.6"/><path class="cls-2" d="M19.5,1.35c0,8-6.5,9.73-6.5,10.65s6.5,2.82,6.5,10.49"/><path class="cls-3" d="M5.21,19.17c5.27-.91,5.49-3.69,6.81-3.68a15.24,15.24,0,0,1,6.17,2.18"/><path class="cls-2" d="M21,1.28a145.43,145.43,0,0,0-18,0"/></g></svg>