<svg id="Layer_1" data-name="Layer 1" xmlns="http://www.w3.org/2000/svg" width="169" height="24" viewBox="0 0 169 24"><defs><style>.cls-1{fill:#0089d9;}</style></defs><path class="cls-1" d="M41,0A12,12,0,1,0,53,12,12,12,0,0,0,41,0Zm.91,18H40.07V16h1.84ZM43,12.68A2.92,2.92,0,0,0,41.72,15H40a4.56,4.56,0,0,1,2-3.52,2.09,2.09,0,0,0-1-3.84C39.15,7.68,39,10,39,10H37.32c.21-2,1.39-3.91,3.68-4h.1a3.57,3.57,0,0,1,3.59,3.57A3.53,3.53,0,0,1,43,12.68Z"/><path class="cls-1" d="M12,0A12,12,0,1,0,24,12,12,12,0,0,0,12,0Zm0,22A10,10,0,1,1,22,12,10,10,0,0,1,12,22Z"/><rect class="cls-1" x="11.07" y="15.98" width="1.84" height="2"/><path class="cls-1" d="M12,6c-2.3.1-3.48,2-3.69,4H10s.15-2.32,2-2.38a2.09,2.09,0,0,1,1,3.84A4.56,4.56,0,0,0,11,15h1.72A2.92,2.92,0,0,1,14,12.68a3.53,3.53,0,0,0,1.69-3.11A3.57,3.57,0,0,0,12.1,6Z"/></svg>