<svg xmlns="http://www.w3.org/2000/svg" width="24" height="24" viewBox="0 0 24 24"><defs><style>.cls-1{fill:#e04c59;opacity:0;}.cls-2,.cls-3{fill:none;stroke:#445d82;stroke-width:2px;}.cls-2{stroke-linecap:round;stroke-linejoin:round;}.cls-3{stroke-miterlimit:10;}</style></defs><g id="_24_Image_Document" data-name="24_Image Document"><rect id="Container" class="cls-1" width="24" height="24" transform="translate(24 24) rotate(-180)"/><path class="cls-2" d="M4.06,10.07C4.24,8.83,5.59,8.11,8,8a1.9,1.9,0,0,0,2-2c.12-2.51.73-3.94,2-4"/><path class="cls-3" d="M19.89,18.19A3.7,3.7,0,0,1,16,22C14.33,22,9.63,22,8,22s-3.67-.32-3.82-2.69c-.2-3.23-.14-8.06,0-10a4.45,4.45,0,0,1,1.13-2.7A26.49,26.49,0,0,1,8.75,3.11,4.8,4.8,0,0,1,11.49,2c1,0,3.45,0,5.18,0s3.12.94,3.22,3.78C20,7.66,20.06,15.07,19.89,18.19Z"/><path class="cls-2" d="M10,18c2.78,0,6,.33,6-1.16,0-.9-.06-2.3-3.24-2a3.41,3.41,0,0,0-3.21-.75A2,2,0,0,0,10,18Z"/><path class="cls-2" d="M15.51,11.31c-.72,0-.79-1.14,0-1.3C16.13,9.88,16.59,11.31,15.51,11.31Z"/></g></svg>