<svg id="Layer_1" data-name="Layer 1" xmlns="http://www.w3.org/2000/svg" width="140" height="24.03" viewBox="0 0 140 24.03"><defs><style>.cls-1{fill:#0089d9;}.cls-2{fill:#68a611;}.cls-3{fill:#e04c59;}.cls-4{fill:#f28d00;}.cls-5{fill:#0087e0;}</style></defs><path class="cls-1" d="M99,0a12,12,0,1,0,12,12h0A12,12,0,0,0,99,0Zm1.9,16.5a3,3,0,0,1-2.7,1.6c-1,0-1.9-1-1.7-1.6l1.4-4.4c0-.11.1-.33-.1-.3a6.06,6.06,0,0,0-1.8.6v-.3a4.2,4.2,0,0,1,3.4-1.8c.7.1.8.9.7,1.6l-1.2,4.4c-.19,1.19,2-.8,2-.6ZM99.4,9a1.5,1.5,0,1,1,1.5-1.5A1.5,1.5,0,0,1,99.4,9Z"/><path class="cls-2" d="M12,0A12.17,12.17,0,0,0,0,12c-.28,7.12,5.37,12,12,12A12,12,0,0,0,24,12C24,4.59,18.63,0,12,0ZM17.28,8.5a42.81,42.81,0,0,0-4.23,7,8.25,8.25,0,0,1-.69,1.25,2.41,2.41,0,0,1-1.15.18,3.29,3.29,0,0,1-1.08-.12,3.54,3.54,0,0,1-.52-.62,39.45,39.45,0,0,0-2.9-3.45,4.38,4.38,0,0,1,2.1-1.48A6.3,6.3,0,0,1,10.34,13c.28.44.45.7.67.7s.4-.37.91-1.43a20.45,20.45,0,0,1,3.15-5.1.34.34,0,0,1,.25-.08,3.19,3.19,0,0,1,1.94,1.23S17.31,8.47,17.28,8.5Z"/><path class="cls-3" d="M41,.06C34.39.47,29,5.42,29,12s3.84,11.5,12,12c6.62.39,12-5.36,12-12S48.68-.42,41,.06Zm.14,19c-3.14,0-1.64-3.78,0-3.4C43.46,16.22,42.94,19.08,41.14,19.08Zm1-5a3.68,3.68,0,0,1-2.12.11c-.29-.15-.3-5.64-.22-8.74,0-.71,2.93-.5,2.89,0C42.3,9.92,42.51,13.78,42.14,14.07Z"/><path class="cls-4" d="M81.53,17.38c-2-5.88-4.69-11.63-7.69-15.5-2.35-3-5.56-2.08-7.63,1-2.4,3.56-6.15,9.35-7.83,14.41-1.12,3.4.34,5.62,3.06,6.06a82.11,82.11,0,0,0,16.08.47C81.56,23.42,82.78,21.06,81.53,17.38Zm-11.39,1.7c-3.14,0-1.64-3.78,0-3.4C72.46,16.22,71.94,19.08,70.14,19.08Zm1-5a3.68,3.68,0,0,1-2.12.11c-.29-.15-.3-5.64-.22-8.74,0-.71,2.93-.5,2.89,0C71.3,9.92,71.52,13.78,71.14,14.07Z"/><path class="cls-5" d="M128,0a12,12,0,0,0-12,12c0,6.62,5.28,12.46,12,12s12-5.36,12-12S135.68,0,128,0Zm.34,19.2h0a1,1,0,0,1-1-1.13,1.06,1.06,0,0,1,1-1.1,1.08,1.08,0,0,1,1.06,1.1A1,1,0,0,1,128.34,19.23Zm2.59-7.2c-.84.91-2.08,1.52-2,3.35,0,.61-1.36.6-1.4,0-.15-2.48,1.35-3.22,2.14-4.27,2.4-3.19-2.27-5.72-3.35-2.22-.27.87-.08.92-.82.77-.49-.1-1.29-.31-1.07-1.1C126.37,1.71,135.85,6.64,130.93,12Z"/></svg>