<svg data-name="Layer 1" xmlns="http://www.w3.org/2000/svg" width="140" height="24.03"><path d="M128 .03a12 12 0 1 0 12 12 12 12 0 0 0-12-12zm1 18h-2v-2h2zm1-5.3a3.1 3.1 0 0 0-1.4 2.3l-1.3-.1a4.41 4.41 0 0 1 1.8-3.5 2 2 0 0 0 .7-1.6 1.79 1.79 0 0 0-1.8-1.6 2.49 2.49 0 0 0-2.4 1.6s-1.8.7-1.3-1a4 4 0 0 1 3.7-2.8 3.49 3.49 0 0 1 2.8 1.5 3.71 3.71 0 0 1-.8 5.2zM99 .03a12 12 0 1 0 12 12 12 12 0 0 0-12-12zm1.9 16.5a3 3 0 0 1-2.7 1.6c-1 0-1.9-1-1.7-1.6l1.4-4.4a.41.41 0 0 0-.1-.3 6.36 6.36 0 0 0-1.8.6v-.3a4.23 4.23 0 0 1 3.4-1.8c.7.1.8.9.7 1.6l-1.2 4.4c-.1.3.1.5.5.5s1.5-1.3 1.5-1.1zm-1.5-7.5a1.5 1.5 0 1 1 1.5-1.5 1.5 1.5 0 0 1-1.5 1.5z" fill="#0089d9"/><path d="M81.5 19.93c-.6-1.1-9-16.8-10-18.9a1.7 1.7 0 0 0-2.2-.9 2 2 0 0 0-.9.9c-1 2-9.4 17.8-10 18.9s-.3 3.1 1.6 3.1h20c1.9 0 2.5-1.3 1.5-3.1zM70 7.03c.5 0 1.3.4 1.3 1l-.5 6.2a.89.89 0 0 1-.8.8h-.1a.89.89 0 0 1-.8-.8l-.4-6.2c0-.5.7-1 1.3-1zm0 12a1.5 1.5 0 1 1 1.5-1.5 1.5 1.5 0 0 1-1.5 1.5z" fill="#ff8b00"/><path d="M41 .03a12 12 0 1 0 12 12 12 12 0 0 0-12-12zm0 6c.6 0 1.3.4 1.3 1l-.5 6.2a.89.89 0 0 1-.8.8h-.1a.89.89 0 0 1-.8-.8l-.4-6.2c0-.5.7-1 1.3-1zm0 12a1.5 1.5 0 1 1 1.5-1.5 1.5 1.5 0 0 1-1.5 1.5z" fill="#d6565a"/><path d="M12 .03a12 12 0 1 0 12 12 12 12 0 0 0-12-12zm-1.9 16.8c-1.5-2-3.3-4-3.3-4l.9-.9a18.3 18.3 0 0 1 2.5 2.4 40.61 40.61 0 0 1 7.1-6.7l.5.6s-3.6 3.6-7.7 8.6z" fill="#68a611"/></svg>