<svg data-name="Layer 1" xmlns="http://www.w3.org/2000/svg" width="24" height="24"><path d="M15.78 15C21.18 9.73 21 6 21 6c0-.89-.77-.4-.77-.4a6.39 6.39 0 0 1-3.5 1.18c-.59 2.56-3.85 5.74-4.68 6.52-.54-.49-4.16-3.86-4.8-6.58a6.38 6.38 0 0 1-3.5-1.15S3 5.12 3 6c0 0-.17 3.62 5.22 8.89S14.29 22.52 14 24h4a13.06 13.06 0 0 0-3.11-8.11zm-7.33 1.88A12.3 12.3 0 0 0 6.14 24h3.92c-.17-.91 0-2.06 1.23-3.93a37.39 37.39 0 0 0-2.84-3.19zM12 10.53s2.1-1.93 2.28-2.88c.12-.67-.38-.6-.38-.6H10c-.5 0-.22.73-.22.73A12.52 12.52 0 0 0 12 10.53zm5.1-5.78a1.69 1.69 0 1 0-1.7-1.69 1.69 1.69 0 0 0 1.7 1.69zm-10 0a1.69 1.69 0 1 0-1.7-1.69 1.69 1.69 0 0 0 1.7 1.69zm5.1-1.37a1.69 1.69 0 1 0-1.7-1.69 1.69 1.69 0 0 0 1.7 1.69z" fill="#0089d9"/></svg>