<svg xmlns="http://www.w3.org/2000/svg" width="24" height="24" viewBox="0 0 24 24"><defs><style>.cls-1{fill:#d93644;fill-opacity:0;}.cls-2{fill:none;stroke:#445d82;stroke-linecap:round;stroke-linejoin:round;stroke-width:2px;}</style></defs><g id="_24_Jira" data-name="24_Jira"><rect id="Container" class="cls-1" width="24" height="24"/><path class="cls-2" d="M17,23.28a18.54,18.54,0,0,0-5.17-8.65C6.65,10,6.42,7.74,6.42,7.74S5,7.18,4.06,6.92c0,0,.72,4,5.62,8.11,5.16,4.3,5.18,8.18,5.18,8.18Z"/><path class="cls-2" d="M7,23a8.3,8.3,0,0,1,1.74-4.39l1.35,1.44S8.79,22.3,8.9,23Z"/><path class="cls-2" d="M10.34,7.53c.1-.41,2.84-.47,3.08-.11s-.65,2.16-1.3,2.16S10.23,7.93,10.34,7.53Z"/><path class="cls-2" d="M6,3c.11-.9,1.77-.72,1.77.2S5.83,4.31,6,3Z"/><path class="cls-2" d="M12.68,1.79c0,.91-1.84,1.11-1.67-.2.12-.9,1.67-.72,1.67.2"/><path class="cls-2" d="M17.68,3.26c0,.92-1.84,1.11-1.67-.19.12-.9,1.67-.72,1.67.19"/><path class="cls-2" d="M17.68,7.83a15.84,15.84,0,0,0,2.16-.74,18.2,18.2,0,0,1-6.53,8.6L11,15.31c1.69-.53,5.52-4.68,6.52-7.48"/></g></svg>