<svg xmlns="http://www.w3.org/2000/svg" width="24" height="24" viewBox="0 0 24 24"><defs><style>.cls-1{opacity:0;}.cls-2{fill:#e04c59;}.cls-3,.cls-4{fill:none;stroke:#445d82;stroke-linecap:round;stroke-linejoin:round;}.cls-3{stroke-width:2px;}</style></defs><g id="_24_Logon_Failure" data-name="24_Logon_Failure"><g id="Container" class="cls-1"><rect class="cls-2" width="24" height="24"/></g><path class="cls-3" d="M9.72,8.94a6,6,0,0,1,9.84-6.22c4.12,3.73,1,12.11-5.41,10-.39-.13-1,.73-1.28,1.05"/><path class="cls-3" d="M6.12,22.65s-2.53.78-3.22,0-.14-3.76.08-4.21,3.3-4.28,5.24-6.69"/><polyline class="cls-4" points="10.46 17.11 10.24 18.1 7.99 18.35 8.86 20.52 6.47 20.69 6.61 22.6"/><ellipse class="cls-4" cx="16.5" cy="6" rx="1.5" ry="1.52"/><path class="cls-4" d="M12,11.05a8.09,8.09,0,0,0,2.51,1.25"/><line class="cls-3" x1="3.82" y1="3.25" x2="13.82" y2="21.98"/></g></svg>