<svg xmlns="http://www.w3.org/2000/svg" width="24" height="24" viewBox="0 0 24 24"><defs><style>.cls-1{opacity:0;}.cls-2{fill:#e04c59;}.cls-3{fill:none;stroke:#445d82;stroke-linecap:round;stroke-linejoin:round;stroke-width:2px;}</style></defs><g id="_24_Lock" data-name="24_Lock"><g id="Container" class="cls-1"><rect class="cls-2" width="24" height="24"/></g><path class="cls-3" d="M5.67,10.16a114.91,114.91,0,0,1,12.41,0,2.7,2.7,0,0,1,2.67,2.26,33.4,33.4,0,0,1-.05,7.67c-.12,1.65-1,2.51-2.79,2.73C15.8,23,9.59,23,6.37,23c-2.14,0-3-1-3-1.56a35.42,35.42,0,0,1-.07-9A2.46,2.46,0,0,1,5.67,10.16Z"/><path class="cls-3" d="M7.08,10C6.83,7,6.9,4.36,8,2.88a5.19,5.19,0,0,1,8,0c1.07,1.41,1,3.9,1,7.09"/><path class="cls-3" d="M13.29,17.09c-.22.16.08,1.44-.13,1.69a4.11,4.11,0,0,1-2.28.11c-.18-.12.09-1.56-.2-1.77-1.36-1-.56-3,1.37-3.12A1.72,1.72,0,0,1,13.29,17.09Z"/></g></svg>