<svg id="Layer_1" data-name="Layer 1" xmlns="http://www.w3.org/2000/svg" width="24" height="24"><defs><style>.cls-1{fill:#0089d9}</style></defs><g id="List_View" data-name="List View"><path class="cls-1" d="M2 5h2v2H2zM2 9h2v2H2zM2 13h2v2H2zM2 17h2v2H2zM7 5h12a1 1 0 0 1 1 1 1 1 0 0 1-1 1H7a1 1 0 0 1-1-1 1 1 0 0 1 1-1zM7 9h14a1 1 0 0 1 1 1 1 1 0 0 1-1 1H7a1 1 0 0 1-1-1 1 1 0 0 1 1-1zM7 13h10a1 1 0 0 1 1 1 1 1 0 0 1-1 1H7a1 1 0 0 1-1-1 1 1 0 0 1 1-1zM7 17h14a1 1 0 0 1 1 1 1 1 0 0 1-1 1H7a1 1 0 0 1-1-1 1 1 0 0 1 1-1z"/></g></svg>