<svg data-name="Layer 1" xmlns="http://www.w3.org/2000/svg" width="24" height="24"><path d="M2 23.87h2v-12H2c-1.55 1-1 11 0 12zm22-8.69c0-1.14-.9-1.15-1-1.81-.1-.82.78-1.26.5-2.43-.14-.6-.88-.94-1.59-1.07-.89-.16-4.51.19-5.41-.69-1.23-1.2.5-2.44.5-5.13 0-3.13-2.08-5.18-4.9-3.37.62 1.53.33 3-.66 4.81C10 10 7.07 11.55 5 12.87v10c3.69 0 6.11.76 8.63.91a23.11 23.11 0 0 0 6.72-.78c1.69-.41 1.19-1.7 1.62-2.41s1.13-.53 1.41-1.54-.47-1.09-.47-1.74c.01-.83.99-.93.99-2.13zm-3 1.49c-.06.72.45 1.1.28 1.67s-.76.53-1.07 1.19.07 1.62-1.27 1.94a17.16 17.16 0 0 1-5 .47c-2-.11-3.9-1-6.83-1v-7.23c2-.86 5.53-3.26 6-7.48a3.74 3.74 0 0 0 .66-3.62c1.59-.57 1.64 1.59.92 3.22-.84 1.89-1.59 4-.59 4.88.81.75 5.1.87 5.82.9s1.28.16 1.37.39c.24.63-.24 1.24-.13 1.73s.94.75.94 1.41-1 .81-1.11 1.53z" fill="#0089d9" fill-rule="evenodd"/></svg>