<svg xmlns="http://www.w3.org/2000/svg" width="24" height="24" viewBox="0 0 24 24"><defs><style>.cls-1{fill:#f2616d;opacity:0;}.cls-2,.cls-3{fill:none;stroke:#445d82;stroke-linecap:round;stroke-linejoin:round;}.cls-2{stroke-width:2px;}</style></defs><g id="_24_Library" data-name="24_Library"><rect id="_Container_" data-name="&lt;Container&gt;" class="cls-1" width="24" height="24"/><path class="cls-2" d="M22.06,4c.37.13.27.33.35.84a99.36,99.36,0,0,1,.52,14.37c0,.63-.59,1.07-1.44,1.05s-5.24-.21-6.57-.18c-.85,0-1.18.31-1.27.84s-3.29.57-3.33,0-.47-.85-1.25-.85c-1.31,0-5.74.17-6.59.19S1.07,19.86,1,19.23A121.56,121.56,0,0,1,1.63,4.32a.51.51,0,0,1,.49-.49"/><path class="cls-3" d="M12,3.41A4.72,4.72,0,0,0,8.57,2.13c-1.48,0-2.93.43-4.84.39-.57,0-1,.21-1,.74a111.23,111.23,0,0,0-.33,13.89c0,.59.25.84.65.89,1.67.23,3.28-.33,5.29-.32,1.6,0,2.2.89,2.76,2.39"/><path class="cls-3" d="M12,3.41a4.7,4.7,0,0,1,3.4-1.28c1.48,0,3,.43,4.91.39.56,0,1,.21,1,.74a111.44,111.44,0,0,1,.36,13.89c0,.59-.25.84-.65.89-1.67.23-3.95-.36-6-.34-1.6,0-1.9,1.18-2.25,2.41"/><path class="cls-3" d="M12,3.56c-.47,6.64.3,10.87-.07,16.55"/><path class="cls-3" d="M4.53,7.5A20.14,20.14,0,0,1,7,7.56a7.81,7.81,0,0,1,2.57,0"/><path class="cls-3" d="M4.69,10.5c1.45.43,3.24-.25,4.93,0"/><path class="cls-3" d="M14.34,7.5a20.3,20.3,0,0,1,2.48.06,7.82,7.82,0,0,1,2.57,0"/><path class="cls-3" d="M14.5,10.5c1.46.43,3.25-.25,4.94,0"/><path class="cls-3" d="M4.92,13.42c1.14.23,4,.05,4.56.15"/></g></svg>