<svg xmlns="http://www.w3.org/2000/svg" width="24" height="24" viewBox="0 0 24 24"><defs><style>.cls-1{fill:#d93644;fill-opacity:0;}.cls-2,.cls-3{fill:none;stroke:#445d82;stroke-linecap:round;stroke-linejoin:round;}.cls-2{stroke-width:2px;}</style></defs><g id="_24_Lunch" data-name="24_Lunch"><rect id="Container" class="cls-1" width="24" height="24"/><path class="cls-2" d="M4.26,20.16C5,18.06,6.46,12,5,11.49-.36,9.81,2.33,1.06,6.05,1.07s6.51,8.71.64,10.59c-.77.25.09,6,1.09,8.5C9.26,23.82,2.86,24.07,4.26,20.16Z"/><path class="cls-3" d="M17,.65c0,.57,0,5.07,0,5.88"/><path class="cls-3" d="M19,.65c0,.57,0,5.07,0,5.88"/><path class="cls-2" d="M21.05,1.07c1.17,4,2.41,9.52-2.06,10.42-1.1.49-.22,6.19.78,8.67,1.48,3.66-4.93,3.91-3.52,0,.75-2.1,2.26-8.2.77-8.67-4.47-.9-3.17-6.4-2-10.42"/></g></svg>