<svg data-name="Layer 1" xmlns="http://www.w3.org/2000/svg" width="24" height="24"><path d="M10 17.52L7.54 20A2.5 2.5 0 0 1 4 16.46L6.48 14l3-3a4.49 4.49 0 0 0-4.06 1.23L2.59 15A4.53 4.53 0 0 0 9 21.41l2.83-2.83A4.5 4.5 0 0 0 13 14.52zm11.68-15.2a4.51 4.51 0 0 0-6.36 0l-2.83 2.83a4.49 4.49 0 0 0-1.23 4.06l2.29-2.29a1.56 1.56 0 0 1 .2-.16 1.46 1.46 0 0 1 .16-.19l2.83-2.83a2.5 2.5 0 0 1 3.54 3.54l-2.84 2.82-.19.16a1.56 1.56 0 0 1-.16.2l-2.29 2.28a4.49 4.49 0 0 0 4.06-1.23l2.83-2.83a4.5 4.5 0 0 0-.01-6.36zM10 15.56l5.9-5.78a1.21 1.21 0 0 0-1.71-1.71L8.44 14c-1.21 1.21.38 2.77 1.56 1.56z" fill="#0089d9" fill-rule="evenodd"/></svg>