<svg xmlns="http://www.w3.org/2000/svg" width="24" height="24" viewBox="0 0 24 24"><defs><style>.cls-1{fill:#d93644;fill-opacity:0;}.cls-2{fill:none;stroke:#445d82;stroke-linecap:round;stroke-linejoin:round;stroke-width:2px;}</style></defs><g id="_24_List_View" data-name="24_List_View"><rect id="Container" class="cls-1" width="24" height="24"/><line class="cls-2" x1="10" y1="7" x2="18" y2="7"/><line class="cls-2" x1="6" y1="7" x2="6" y2="7"/><line class="cls-2" x1="10" y1="12" x2="18" y2="12"/><line class="cls-2" x1="6" y1="12" x2="6" y2="12"/><line class="cls-2" x1="10" y1="17" x2="18" y2="17"/><line class="cls-2" x1="6" y1="17" x2="6" y2="17"/><path class="cls-2" d="M2.14,6.05c.23-2.32.68-3.67,3.18-3.9s12.36-.17,13.59,0,2.95.56,3.1,3.08.07,9.6,0,11.92c-.08,4.34-.76,4.76-4.86,4.76,0,0-10.07.23-11.86.1-1.28-.09-3.05-.17-3.15-3.87C2.14,16.64,1.82,9.26,2.14,6.05Z"/></g></svg>