<svg xmlns="http://www.w3.org/2000/svg" width="24" height="24" viewBox="0 0 24 24"><defs><style>.cls-1{opacity:0;}.cls-2{fill:#e04c59;}.cls-3,.cls-4{fill:none;stroke:#445d82;stroke-linecap:round;stroke-linejoin:round;}.cls-3{stroke-width:2px;}</style></defs><g id="_24_Like_v2" data-name="24_Like_v2"><g id="Container" class="cls-1"><rect class="cls-2" width="24" height="24"/></g><path class="cls-3" d="M6.52,13c1.72.07,3-2.23,4.23-3.31C12.93,7.86,15.4,6.08,15.12,2c-.08-1.19,2.36-1.32,3-.25,2.17,3.6-.72,6.91-1,8.88"/><path class="cls-4" d="M21.61,13.71a9.82,9.82,0,0,1-1.57.21"/><path class="cls-3" d="M16.27,10.71a28.46,28.46,0,0,0,4.8-.06c1.64,0,1.95,2.46,1.19,3"/><path class="cls-4" d="M21.46,16.89a8,8,0,0,1-1.39.21"/><path class="cls-3" d="M22.26,13.63c1,.18.92,2.63,0,3.21"/><path class="cls-4" d="M21.08,19.85l-1.86,0"/><path class="cls-3" d="M22.32,16.83c.76.08.48,3.11-1,3.17"/><path class="cls-3" d="M21.34,20c.35.27.42,1.85-1.43,2.35-7.59,2-11.46-1.49-13.86-1.28"/><path class="cls-3" d="M5.57,12.38c-.56-.53-3.77-.49-4.12.27-.69,1.51-.5,8.49.09,9s3.27.43,3.92,0C5.81,21.44,6.24,13,5.57,12.38Z"/></g></svg>