<svg data-name="Layer 1" xmlns="http://www.w3.org/2000/svg" width="24" height="24"><path d="M22.4 14.7l1.2-.5a.67.67 0 0 0 .2-1.1 12.86 12.86 0 0 0-1.4-1l1.2-.5a.67.67 0 0 0 .2-1.1c-.1-.1-.1-.1-2.3-1.7a8.78 8.78 0 0 0 1.8-3 .62.62 0 0 0-.2-.7C23 5 15.2.5 15 .4a.62.62 0 0 0-1 .4c-.5 2.2-3.3 3.9-4.3 4.5s-2.4 1-3.3 1.4c-2.5 1-3.5 1.3-6 2.2a.67.67 0 0 0-.1 1.2l1.1.8-1.2.8a.65.65 0 0 0 0 1.1l1.2.7-1.1.8a.65.65 0 0 0 0 1.1l1.1.7-1.1.8a.65.65 0 0 0 0 1.1l8 5.3a1.7 1.7 0 0 0 .7.1c4.4-1.9 8.5-4 14.6-6.7.5-.3.6-.8.3-1.1-.1.1-.2.1-1.5-.9zm-.4-3.9l-4 1.7v-.9a10.93 10.93 0 0 0 2.5-1.9 8.28 8.28 0 0 0 1.5 1.1zm0 2.7l-4 1.7V14l2.9-1.3c.2.1.8.6 1.1.8zM15 1.9c1.3.7 5.4 3.1 6.8 3.9a11.89 11.89 0 0 1-3.9 4.3c-.1-.2-6.5-4.1-6.7-4.2a9.53 9.53 0 0 0 3.8-4zM6.8 8l6.7 4.1c-2 .8-4 1.7-4.7 2L2.2 9.7C4.3 8.9 5.6 8.5 6.8 8zm-4.1 3.7l5.6 3.7a1.7 1.7 0 0 0 .7.1s2.4-1.1 5.1-2.2v1.1l-5.3 2.3-6.9-4.5zm0 2.6L8.4 18a1.48 1.48 0 0 0 .7.1l5.1-2.3v1.1l-5.3 2.5L2 14.9zm6.1 7.8l-6.9-4.6.7-.5 5.7 3.7a1.48 1.48 0 0 0 .7.1l5.1-2.3v1.2zm5.9-9.9c0-.5-.1-.5-.5-.7L7.4 7.4c.8-.3 1.8-.8 2.7-1.2l7.3 4.5v8.1L14.7 20zm3.3 5.7v-1.3l3-1.3c.1 0 .9.7 1 .7z" fill="#0089d9" data-name="Layer 3"/></svg>