<svg xmlns="http://www.w3.org/2000/svg" width="24" height="24" viewBox="0 0 24 24"><defs><style>.cls-1{fill:#5bb4f0;fill-opacity:0;}.cls-2,.cls-3,.cls-4{fill:none;stroke:#445d82;stroke-linecap:round;stroke-linejoin:round;}.cls-2{stroke-width:2px;}.cls-4{fill-rule:evenodd;}</style></defs><g id="_24_Price" data-name="24_Price"><rect id="Container" class="cls-1" width="24" height="24"/><path class="cls-2" d="M18.31,23c-2.55.22-6.26-.68-6.26-5.38s3.66-5.46,5.5-5.61,5.28,1.48,5.49,4.78C23.27,20.56,20.86,22.75,18.31,23Z"/><path class="cls-3" d="M18.5,16c-1.94-1.27-3,1.34-1.14,1.42,2.07.1,1.83,2.8-1,1.77"/><line class="cls-3" x1="17.53" y1="14.74" x2="17.53" y2="15.57"/><line class="cls-3" x1="17.53" y1="19.43" x2="17.53" y2="20.28"/><path class="cls-2" d="M2.68,14.78a3.31,3.31,0,0,0-1.48,2,6.69,6.69,0,0,0,0,2.37c1,2.27,5.1,3.36,9,3.26"/><path class="cls-4" d="M9.73,19.47c-5.06,0-9.21-2-7.73-3.82"/><path class="cls-2" d="M3,8.74a3.32,3.32,0,0,0-1.49,2,6.7,6.7,0,0,0,0,2.37c.92,2,4.19,3.08,7.64,3.24"/><path class="cls-4" d="M10.06,13.43c-5.06,0-9.21-2-7.72-3.82"/><path class="cls-2" d="M1.8,4.75a6.94,6.94,0,0,0,0,2.37c2,4.33,15,4.36,17,0a4.75,4.75,0,0,0,0-2.37C17.8-.18,2.77-.22,1.8,4.75Z"/><path class="cls-4" d="M18,3.57C18.93,5,15.4,7.4,10.34,7.4s-9.22-2-7.73-3.83"/></g></svg>