<svg xmlns="http://www.w3.org/2000/svg" width="24" height="24" viewBox="0 0 24 24"><defs><style>.cls-1{fill:#d93644;fill-opacity:0;}.cls-2,.cls-3{fill:none;stroke:#445d82;stroke-width:2px;}.cls-2{stroke-linecap:round;stroke-linejoin:round;}.cls-3{stroke-miterlimit:10;}</style></defs><g id="_24_Note_Filled" data-name="24_Note_Filled"><rect id="Container" class="cls-1" width="24" height="24"/><path class="cls-2" d="M22,14c-.08.6-.29,2-1.91,2H18a2,2,0,0,0-2,2v2a2,2,0,0,1-2,2"/><path class="cls-3" d="M2.1,5.12C2.23,2.77,3.52,2,5.25,2H18.84c1.73,0,3.05.82,3.1,3.11.07,3.43,0,10.56,0,10.69s0,3.25-1.11,4.61C19.33,22.27,16.79,22,16,22H5.25A2.9,2.9,0,0,1,2.1,18.92C2.07,17.41,2,7.66,2.1,5.12Z"/><path class="cls-2" d="M6,7H18"/><path class="cls-2" d="M6,11H18"/><path class="cls-2" d="M6,15h6"/></g></svg>