<svg xmlns="http://www.w3.org/2000/svg" width="24" height="24" viewBox="0 0 24 24"><defs><style>.cls-1{fill:#e04c59;opacity:0;}.cls-2,.cls-3{fill:none;stroke:#445d82;stroke-width:2px;}.cls-2{stroke-miterlimit:10;}.cls-3{stroke-linecap:round;stroke-linejoin:round;}</style></defs><g id="_24_Edit_File" data-name="24_Edit File"><rect id="Container" class="cls-1" width="24" height="24"/><path class="cls-2" d="M14.07,18.81s3.4-3.59,5.64-5.52a1,1,0,0,1,1.41,0l1.59,1.59a1.05,1.05,0,0,1,0,1.41,58.17,58.17,0,0,1-6.08,6.18,4.09,4.09,0,0,1-1,.53A9.14,9.14,0,0,1,14,23a1,1,0,0,1-1-1s-.05-1.17,0-1.59A6.53,6.53,0,0,1,14.07,18.81Z"/><line class="cls-2" x1="18" y1="15" x2="21" y2="18"/><path class="cls-3" d="M4.06,10.07C4.24,8.83,5.59,8.11,8,8a1.9,1.9,0,0,0,2-2c.12-2.51.73-3.94,2-4"/><path class="cls-3" d="M9,22c-.84,0-.57,0-1-.05-1.69-.07-3.67-.32-3.82-2.69-.2-3.23-.14-8.06,0-10a4.45,4.45,0,0,1,1.13-2.7A26.49,26.49,0,0,1,8.75,3.11,4.8,4.8,0,0,1,11.49,2c1,0,3.45,0,5.18,0s3.12.94,3.22,3.78c.05.73.09,1.33.11,3.19"/></g></svg>