<svg id="Layer_1" data-name="Layer 1" xmlns="http://www.w3.org/2000/svg" width="53" height="24"><defs><style>.cls-1{fill:#0089d9;fill-rule:evenodd}</style></defs><g id="Note"><path class="cls-1" d="M17.56 5.39l-.15.15-.35.35-3.5 3.5v1h1l3.5-3.5 1 1-7.73 7.71 2.13 2.13L24.2 7 22 4.82l-2 2-2-1.95zm-7.09 11L8.8 20.17l3.8-1.69.1-.1-2.13-2.13zM18 22H2V8h6V2h10v1l2 2V0H6v.28l-6 6V24h20V13l-2 2zM6 2.49V6H2.41zM46.06 5.89l-3.5 3.5v1h1l3.5-3.5.95 1-7.73 7.71 2.13 2.13L53.2 7 51 4.87l-2 2-2-1.95zm-6.59 10.47l-1.66 3.82 3.8-1.69.1-.1-2.13-2.13zM35 .28L29.25 6H35zM36 22l2-6 4-4h-1V9l6-6 2 2V0H36v7h-7v17h20V13l-7 7z"/></g></svg>