<svg xmlns="http://www.w3.org/2000/svg" width="24" height="24" viewBox="0 0 24 24"><defs><style>.cls-1{opacity:0;}.cls-2{fill:#e04c59;}.cls-3,.cls-4{fill:none;stroke:#445d82;stroke-linecap:round;stroke-linejoin:round;}.cls-3{stroke-width:2px;}</style></defs><g id="_24_Office" data-name="24_Office"><g id="Container" class="cls-1"><rect class="cls-2" width="24" height="24"/></g><path class="cls-3" d="M3,23C4.63,23,17.55,23,21,23"/><path class="cls-3" d="M18.94,23c0-6.67.35-20.48-.46-21S5.74,5.5,5.35,6.64,5,18.77,5,23"/><path class="cls-4" d="M9.05,8.53c1.32,0,4.38-.1,6,0"/><path class="cls-4" d="M9.05,11.48c2.48,0,4.46,0,6,0"/><path class="cls-4" d="M9,14.49c1.76,0,4.09,0,6,0"/><path class="cls-3" d="M10,22.82a32,32,0,0,1,.14-4.62,12.15,12.15,0,0,1,3.74-.08A35,35,0,0,1,14,22.93"/><path class="cls-3" d="M12,1c-.06.46,0,1.14,0,1.73"/></g></svg>