<svg xmlns="http://www.w3.org/2000/svg" width="24" height="24" viewBox="0 0 24 24"><defs><style>.cls-1{fill:#e04c59;opacity:0;}.cls-2{fill:none;stroke:#445d82;stroke-linecap:round;stroke-linejoin:round;stroke-width:2px;}</style></defs><g id="_24_Open_Folder" data-name="24_Open Folder"><rect id="Container" class="cls-1" width="24" height="24"/><path class="cls-2" d="M3.19,10c3.22-.4,14.6-.13,17.62,0a2.08,2.08,0,0,1,2,2.18,29.62,29.62,0,0,1-.55,6.09,2.94,2.94,0,0,1-3,2.73c-1.66.21-11.34.24-14.52,0-1.28-.1-2.38-.19-3-2.73a32.38,32.38,0,0,1-.55-6.09A2.1,2.1,0,0,1,3.19,10Z"/><path class="cls-2" d="M2,7V6A3,3,0,0,1,5,3H8.86a2,2,0,0,1,1.66.89l.82,1.22A2,2,0,0,0,13,6h6a3,3,0,0,1,2.24,1"/></g></svg>