<svg xmlns="http://www.w3.org/2000/svg" width="24" height="24" viewBox="0 0 24 24"><defs><style>.cls-1{fill:#d93644;fill-opacity:0;}.cls-2,.cls-3{fill:none;stroke:#445d82;stroke-width:2px;}.cls-2{stroke-miterlimit:10;}.cls-3{stroke-linecap:round;stroke-linejoin:round;}</style></defs><g id="_24_Settings" data-name="24_Settings"><rect id="Container" class="cls-1" width="24" height="24"/><path class="cls-2" d="M12,13c-1.68,0-.88-2,0-2C13.43,11,13.2,13,12,13Z"/><path class="cls-2" d="M7,12c0,.85-2,1.76-2,0C5,11,7,10.36,7,12Z"/><path class="cls-2" d="M18,13c-1.56-.08-1-2,0-2C19.58,11,19.05,13.05,18,13Z"/><path class="cls-3" d="M11.44,2h1.2C21,2,22,3,22,11.44v1.18C22,21,21,22,12.62,22H11.44C3,22,2,20.58,2,12.63V11.44C2,3.43,3,2,11.44,2Z"/></g></svg>