<svg xmlns="http://www.w3.org/2000/svg" width="24" height="24" viewBox="0 0 24 24"><defs><style>.cls-1{fill:#e04c59;opacity:0;}.cls-2,.cls-3,.cls-4{fill:none;stroke:#445d82;}.cls-2,.cls-3{stroke-linecap:round;stroke-linejoin:round;}.cls-3,.cls-4{stroke-width:2px;}.cls-4{stroke-miterlimit:10;}</style></defs><g id="_24_Invoice" data-name="24_Invoice"><rect id="Container" class="cls-1" width="24" height="24"/><path class="cls-2" d="M13.55,11c-2.47-1.68-3.78,1.79-1.46,1.9,2.64.13,2.33,3.73-1.27,2.36"/><line class="cls-2" x1="12.51" y1="9.5" x2="12.51" y2="10.49"/><line class="cls-2" x1="12.51" y1="15.52" x2="12.51" y2="16.52"/><path class="cls-3" d="M4.06,10.07C4.24,8.83,5.59,8.11,8,8a1.9,1.9,0,0,0,2-2c.12-2.51.73-3.94,2-4"/><path class="cls-4" d="M19.89,18.19A3.7,3.7,0,0,1,16,22C14.33,22,9.63,22,8,22s-3.67-.32-3.82-2.69c-.2-3.23-.14-8.06,0-10a4.45,4.45,0,0,1,1.13-2.7A26.49,26.49,0,0,1,8.75,3.11,4.8,4.8,0,0,1,11.49,2c1,0,3.45,0,5.18,0s3.12.94,3.22,3.78C20,7.66,20.06,15.07,19.89,18.19Z"/></g></svg>