<svg xmlns="http://www.w3.org/2000/svg" width="24" height="24" viewBox="0 0 24 24"><defs><style>.cls-1{fill:#d93644;fill-opacity:0;}.cls-2,.cls-3{fill:none;stroke:#445d82;stroke-linecap:round;stroke-linejoin:round;}.cls-2{stroke-width:2px;}</style></defs><g id="_24_Panel" data-name="24_Panel"><rect id="Container" class="cls-1" width="24" height="24"/><path class="cls-2" d="M3.14,7.05c.23-2.32.68-3.66,3.17-3.9a109.92,109.92,0,0,1,11.52,0c1.23.18,2.94.56,3.08,3.08s.08,7.57,0,9.88c-.08,4.34-.75,4.75-4.84,4.75,0,0-8,.23-9.79.1-1.28-.08-3-.17-3.14-3.86A93.36,93.36,0,0,1,3.14,7.05Z"/><line class="cls-3" x1="9.49" y1="20.99" x2="9.49" y2="3.01"/><path class="cls-3" d="M6.3,6.31c.49-.34.77.27.47.51S5.84,6.63,6.3,6.31Z"/><path class="cls-3" d="M6.28,9.25c.47-.36.75.26.47.51C6.28,10.18,6,9.47,6.28,9.25Z"/><path class="cls-3" d="M6,13.54a6.85,6.85,0,0,1,1.11,0"/></g></svg>