<svg xmlns="http://www.w3.org/2000/svg" width="24" height="24" viewBox="0 0 24 24"><defs><style>.cls-1{fill:#d93644;fill-opacity:0;}.cls-2,.cls-3{fill:none;stroke:#445d82;stroke-linecap:round;stroke-linejoin:round;}.cls-2{stroke-width:2px;}</style></defs><g id="_24_Print" data-name="24_Print"><rect id="Container" class="cls-1" width="24" height="24"/><path class="cls-2" d="M5,13.73c0,1.3-.14,8,.42,8.65S16.17,23,16.9,23c2.12-.07,2.27-.22,2.26-2.57,0-2.07-.11-5.3-.17-6.67"/><path class="cls-2" d="M19.27,15.83c3.69.08,3.6-.62,3.67-2.83,0-.89.11-2.54,0-4-.13-2.38-.72-2.75-3.18-2.88C17.64,6,7.36,6,4.22,6.08,1.52,6.18,1.15,6.63,1,9c-.07,1.5,0,3.3,0,4,.15,2.33,0,2.91,3.68,2.83"/><path class="cls-2" d="M5,6C5,4.9,4.89,1.63,5.4,1.3c.82-.53,12.88-.3,13.2.25S19,5.1,19,5.91"/><path class="cls-2" d="M20.48,8.72a.27.27,0,0,0-.53,0A.27.27,0,1,0,20.48,8.72Z"/><path class="cls-3" d="M3.43,13.12H20.62"/></g></svg>