<svg data-name="Layer 1" xmlns="http://www.w3.org/2000/svg" width="24" height="24"><path d="M23.52 22.33a5.49 5.49 0 0 1-1.07.13 2 2 0 0 0 .63-1.46 2.08 2.08 0 0 0-4.15 0 1.9 1.9 0 0 0 .39 1.15 1.49 1.49 0 0 1-1.7.11 8.44 8.44 0 0 0 .78-.68c-.36-2.44-2.9-5.3-5.31-6.5a8.28 8.28 0 0 0-2.78 2.77C8.8 17.35 8 15.71 7 14c-1-1.63-2-3.4-1.73-5a8.19 8.19 0 0 0 3.79-1.15C9.23 5.16 8 1.53 6 0 1.5 1.21-3 6.9 2.32 16.39c4.53 7.66 10.07 8.51 13.77 6.8a2.56 2.56 0 0 0 3.62.18 2.67 2.67 0 0 0 .38-.44 2.48 2.48 0 0 0 3.45.55 2.61 2.61 0 0 0 .31-.27c.28-.07.03-.67-.33-.88zM4 15.44C1.07 10.32 1 4.36 5.27 2.16A7.15 7.15 0 0 1 7.21 6.4c-.67.71-2.75.85-4 .74a10.78 10.78 0 0 0 2 7.72 10.73 10.73 0 0 0 5.69 5.63c.54-1.17 1.71-2.9 2.66-3.12a7.16 7.16 0 0 1 2.7 3.8C12.08 23.8 7 20.62 4 15.44zm17 6.17a.62.62 0 1 1 .62-.62.62.62 0 0 1-.62.62z" fill="#0089d9" fill-rule="evenodd"/></svg>