<svg xmlns="http://www.w3.org/2000/svg" width="24" height="24" viewBox="0 0 24 24"><defs><style>.cls-1{fill:#d93644;fill-opacity:0;}.cls-2,.cls-3,.cls-4{fill:none;stroke:#445d82;}.cls-2,.cls-3{stroke-miterlimit:10;}.cls-2{stroke-width:2px;}.cls-4{stroke-linecap:round;stroke-linejoin:round;}</style></defs><g id="_24_Platform_mobile" data-name="24_Platform mobile"><rect id="Container" class="cls-1" width="24" height="24"/><path class="cls-2" d="M7.83,1.2a43.22,43.22,0,0,1,8.36,0,3,3,0,0,1,2.52,2.74,102.38,102.38,0,0,1,0,15.4c-.27,2.2-1.28,3.27-2.92,3.46a36.41,36.41,0,0,1-7.6,0c-1.6-.2-2.66-1.26-2.88-3.46a95.33,95.33,0,0,1,0-15.4A2.74,2.74,0,0,1,7.83,1.2Z"/><ellipse class="cls-3" cx="12" cy="20" rx="0.48" ry="0.49"/><line class="cls-4" x1="18.79" y1="5.5" x2="5.23" y2="5.5"/><line class="cls-4" x1="19.23" y1="17.5" x2="5.67" y2="17.5"/><line class="cls-4" x1="13.5" y1="3.5" x2="10.52" y2="3.5"/></g></svg>