<svg xmlns="http://www.w3.org/2000/svg" width="24" height="24" viewBox="0 0 24 24"><defs><style>.cls-1{fill:#e04c59;opacity:0;}.cls-2{fill:none;stroke:#445d82;stroke-linecap:round;stroke-linejoin:round;stroke-width:2px;}</style></defs><g id="_24_Clipboard_Paper" data-name="24_Clipboard Paper"><rect id="Container" class="cls-1" width="24" height="24"/><line class="cls-2" x1="8" y1="9" x2="16" y2="9"/><line class="cls-2" x1="8" y1="13" x2="11" y2="13"/><line class="cls-2" x1="8" y1="17" x2="11" y2="17"/><line class="cls-2" x1="11" y1="1" x2="13" y2="1"/><rect class="cls-2" x="8" y="2" width="8" height="2" rx="0.5"/><path class="cls-2" d="M17,13a1,1,0,0,1,1,1v2a1,1,0,0,0,1,1h2a1,1,0,0,1,1,1"/><path class="cls-2" d="M22,16.83V22a1,1,0,0,1-1,1H15c-.55,0-.83-.52-1-1a78.88,78.88,0,0,1,0-8c.1-1,.45-1,1-1h3.17a2,2,0,0,1,1.42.59l1.82,1.82A2,2,0,0,1,22,16.83Z"/><path class="cls-2" d="M11.1,22h-4a3.07,3.07,0,0,1-3-3,104.18,104.18,0,0,1,0-13c.18-1.29,1.33-3,3-3H17c1.63,0,2.8.34,3,3,.1,1.6,0,4,0,4"/></g></svg>