<svg xmlns="http://www.w3.org/2000/svg" width="24" height="24" viewBox="0 0 24 24"><defs><style>.cls-1{fill:#d93644;fill-opacity:0;}.cls-2,.cls-3{fill:none;stroke:#445d82;stroke-linecap:round;stroke-linejoin:round;}.cls-3{stroke-width:2px;}</style></defs><g id="_24_Phone" data-name="24_Phone"><rect id="Container" class="cls-1" x="0.05" width="24" height="24"/><path class="cls-2" d="M20.67,21.57a4.24,4.24,0,0,1-3.17-2.42"/><path class="cls-2" d="M12,5.23a7.63,7.63,0,0,0,2.14,4.54"/><path class="cls-3" d="M11.48,2.91c-6.24,2.07-7.24,9-4.8,13.76s7,8,12.77,5.46"/><path class="cls-3" d="M20.09,22a1.53,1.53,0,0,0,1.31-.13c1-.7.72-2.84-.63-4.79s-3.25-3-4.25-2.27c-.42.29-.38,1-.6,1.54-1.33,3.13-4.33.79-5.39-2-.81-2.14-.57-6.26,2.53-5a2.38,2.38,0,0,0,2.25,1.23c1.35-.19,2-2.65,1.52-5.25S14.88.78,13.55,1a1.94,1.94,0,0,0-1.34,1.36"/><path class="cls-3" d="M6.22,15.66s3.25,8-.92,6.61-4.34-7-1.68-4.92C5.56,18.88,5.33,23,3.73,23,2.54,23,1,21.5,1,21.5"/></g></svg>