<svg id="Layer_1" data-name="Layer 1" xmlns="http://www.w3.org/2000/svg" width="24" height="24"><defs><style>.cls-2{fill:#0089d9}</style></defs><g id="PDF"><path d="M16 .3V0H2v24h20V6.3zM19.6 6H16V2.5zM4 22V2h10v6h6v14z" fill-rule="evenodd" fill="#0089d9"/><g id="PDF_Text-2" data-name="PDF Text-2"><path class="cls-2" d="M5 18v-6h2.9a1.64 1.64 0 0 1 .8.6 2 2 0 0 1 .3 1.2 3.12 3.12 0 0 1-.2 1c-.1.2-.2.5-.4.6l-.6.4-1.1.2H6v2zm1-5v2h1.5a.78.78 0 0 0 .4-.4.71.71 0 0 0 .1-.6.77.77 0 0 0-.2-.6c-.1-.2-.3-.3-.4-.4zM10 12h2.7a1.93 1.93 0 0 1 .7.6 2.51 2.51 0 0 1 .4.9A5.83 5.83 0 0 1 14 15a4 4 0 0 1-.1 1.2 2.89 2.89 0 0 1-.6 1.1 1.46 1.46 0 0 1-.6.5H10zm1 1v4h1.3l.4-.2c.1-.1.1-.3.2-.6A3.47 3.47 0 0 0 13 15a3.4 3.4 0 0 0-.1-1.1c-.1-.2-.1-.4-.3-.5s-.2-.3-.4-.3H11zM15 18v-6h4v1h-3v2h2v1h-2v2z"/></g></g></svg>