<svg id="Layer_1" data-name="Layer 1" xmlns="http://www.w3.org/2000/svg" width="24" height="24"><defs><style>.cls-1{fill:#0089d9;fill-rule:evenodd}</style></defs><g id="Report"><path class="cls-1" d="M22 21H3V2a1 1 0 0 0-2 0v20a1 1 0 0 0 1 1h20a1 1 0 0 0 0-2z"/><path class="cls-1" d="M7 11a1 1 0 0 1 1 1v6a1 1 0 0 1-2 0v-6a1 1 0 0 1 1-1zM15 9a1 1 0 0 1 1 1v8a1 1 0 0 1-2 0v-8a1 1 0 0 1 1-1zM11 7a1 1 0 0 1 1 1v10a1 1 0 0 1-2 0V8a1 1 0 0 1 1-1zM19 3a1 1 0 0 1 1 1v14a1 1 0 0 1-2 0V4a1 1 0 0 1 1-1z"/></g></svg>