<svg xmlns="http://www.w3.org/2000/svg" width="24" height="24" viewBox="0 0 24 24"><defs><style>.cls-1{fill:#d93644;fill-opacity:0;}.cls-2{fill:none;stroke:#445d82;stroke-linecap:round;stroke-linejoin:round;stroke-width:2px;}</style></defs><g id="_24_Refresh" data-name="24_Refresh"><rect id="Container" class="cls-1" width="24" height="24"/><path class="cls-2" d="M20.47,15c-1.28,1-7.43,0-9.38-1.26-.62-.38,2.71-2.62,2.35-3.24C11,6.4,5.93,8.51,5.78,13c-.13,3.81,2.12,7,6.69,8,1.31.31,1.17,1,0,1A10.33,10.33,0,0,1,2,11.4C2,.74,14.62-.61,17.88,5.91c.36.71,3.81-2.45,3.9-1.86C22.34,7.75,21.56,14.11,20.47,15Z"/></g></svg>