<svg xmlns="http://www.w3.org/2000/svg" width="24" height="24" viewBox="0 0 24 24"><defs><style>.cls-1{fill:#d93644;fill-opacity:0;}.cls-2{fill:none;stroke:#445d82;stroke-linecap:round;stroke-linejoin:round;stroke-width:2px;}</style></defs><g id="_24_Rotate_CW" data-name="24_Rotate_CW"><rect id="Container" class="cls-1" width="24" height="24"/><path class="cls-2" d="M14.57,20.91a43.91,43.91,0,0,1-8.15-.54C5.33,20.19,5,20,5,18.59,5,16,5.37,10.33,5.74,7,6,4.65,6.36,4.05,7.87,4A53.16,53.16,0,0,1,15,4.57c1.54.23,2,.61,2,2.26,0,2.85-.32,8.17-.69,11.74C16.1,20.53,15.85,20.82,14.57,20.91Z"/><path class="cls-2" d="M20.28,6.39c.79,1.45,1.46,2.77,2.14,2.6S23,7.89,23,5.8"/><path class="cls-2" d="M15.41,1c4.11.16,5.88,1.69,6.52,6.23"/></g></svg>