<svg xmlns="http://www.w3.org/2000/svg" width="24" height="24" viewBox="0 0 24 24"><defs><style>.cls-1{fill:#e04c59;opacity:0;}.cls-2{fill:none;stroke:#445d82;stroke-linecap:round;stroke-linejoin:round;stroke-width:2px;}</style></defs><g id="_24_Report" data-name="24_Report"><rect id="Container" class="cls-1" width="24" height="24"/><path class="cls-2" d="M22.91,17.55a5.41,5.41,0,1,0-10.81,0c0,2.67,2.08,5.34,5.93,5.34C21.39,22.89,22.71,20.82,22.91,17.55Z"/><polyline class="cls-2" points="22.91 17.55 17.5 17.49 17.5 22.72"/><path class="cls-2" d="M4.06,10.07C4.24,8.83,5.59,8.11,8,8a1.9,1.9,0,0,0,2-2c.12-2.51.73-3.94,2-4"/><path class="cls-2" d="M10,22,8,22c-1.69-.07-3.67-.32-3.82-2.69-.2-3.23-.14-8.06,0-10a4.45,4.45,0,0,1,1.13-2.7A26.49,26.49,0,0,1,8.75,3.11,4.8,4.8,0,0,1,11.49,2c1,0,3.45,0,5.18,0s3.12.94,3.22,3.78c.05.73.08,1.28.1,3.13"/></g></svg>