<svg xmlns="http://www.w3.org/2000/svg" width="24" height="24" viewBox="0 0 24 24"><defs><style>.cls-1{fill:#d93644;fill-opacity:0;}.cls-2{fill:none;stroke:#445d82;stroke-linecap:round;stroke-linejoin:round;stroke-width:2px;}</style></defs><g id="_24_Replace" data-name="24_Replace"><rect id="Container" class="cls-1" width="24" height="24"/><path class="cls-2" d="M3.08,13.23c1-.68,5.63.12,8.08,1.36.6.31-1.88,2.26-1.88,2.26,1.82,3.59,9.32,3.69,12-2,.36-.78.76-.64.74.08-.22,8.26-12.63,10.59-16.93,4.85,0,0-2.74,1.64-2.84,1.17C1.7,18.54,2.13,13.88,3.08,13.23Z"/><path class="cls-2" d="M20.93,10.74c-1,.67-5.64-.12-8.09-1.36-.6-.31,1.88-2.25,1.88-2.25-1.82-3.59-9.32-3.69-12,2C2.38,9.86,2,9.72,2,9,2.59.67,14.46-1.55,18.93,4.16c0,0,2.74-1.64,2.84-1.17C22.3,5.44,21.88,10.09,20.93,10.74Z"/></g></svg>