<svg xmlns="http://www.w3.org/2000/svg" width="24" height="24" viewBox="0 0 24 24"><defs><style>.cls-1{fill:#d93644;fill-opacity:0;}.cls-2{fill:none;stroke:#445d82;stroke-linecap:round;stroke-linejoin:round;stroke-width:2px;}</style></defs><g id="_24_Rotate_CCW" data-name="24_Rotate_CCW"><rect id="Container" class="cls-1" width="24" height="24"/><path class="cls-2" d="M9.43,20.91a43.91,43.91,0,0,0,8.15-.54C18.67,20.19,19,20,19,18.59,19,16,18.63,10.33,18.26,7,18,4.65,17.64,4.05,16.13,4A53.16,53.16,0,0,0,9,4.57c-1.54.23-2,.61-2,2.26,0,2.85.32,8.17.69,11.74C7.9,20.53,8.15,20.82,9.43,20.91Z"/><path class="cls-2" d="M3.72,6.39C2.93,7.84,2.26,9.16,1.58,9S1,7.89,1,5.8"/><path class="cls-2" d="M8.59,1C4.48,1.17,2.71,2.7,2.07,7.24"/></g></svg>