<svg xmlns="http://www.w3.org/2000/svg" width="24" height="24" viewBox="0 0 24 24"><defs><style>.cls-1{opacity:0;}.cls-2{fill:#e04c59;}.cls-3,.cls-4{fill:none;stroke:#445d82;stroke-linecap:round;stroke-linejoin:round;}.cls-3{stroke-width:2px;}</style></defs><g id="_24_Alarm" data-name="24_Alarm"><g id="Container" class="cls-1"><rect class="cls-2" width="24" height="24"/></g><path class="cls-3" d="M22,13.08c-.08,5.52-4.27,9.72-10.14,9.86S1.93,18.33,2,12.81,5.76,2.87,12.14,3A10,10,0,0,1,22,13.08Z"/><path class="cls-4" d="M13.62,8.9a11.6,11.6,0,0,0-1.18,2.76"/><path class="cls-4" d="M15.6,15.48a15.18,15.18,0,0,0-2.74-2.33"/><path class="cls-3" d="M14.53,9.82c.31-.18,0-1.51-.11-1.82a.35.35,0,0,0-.5-.24c-.36.13-1.62.62-1.56,1"/><path class="cls-3" d="M15.05,15.89c.07.23,1,.13,1.18.11a.33.33,0,0,0,.22-.39c-.05-.18-.17-1-.39-.95"/><path class="cls-4" d="M11.5,19.52c0,.32,0,.62,0,.84"/><circle class="cls-3" cx="12.08" cy="12.51" r="0.43"/><path class="cls-4" d="M19.51,12.47a8.2,8.2,0,0,0-1.14.07"/><path class="cls-4" d="M5.71,12.51c-.32,0-1,0-1.22,0"/><path class="cls-3" d="M22.42,5.85c2.4-4-3.36-6.37-4.74-3.88C17,3.16,22,6.52,22.42,5.85Z"/><line class="cls-4" x1="12.72" y1="3.16" x2="12.83" y2="1.98"/><path class="cls-3" d="M11.11,1.79c-.19-.12-.17-.67.09-.74a2.41,2.41,0,0,1,1.68.17.41.41,0,0,1-.11.68A2.71,2.71,0,0,1,11.11,1.79Z"/><path class="cls-3" d="M5.56,21.25C5,21.76,3.28,23.16,3,22.94s.28-1.81.72-3.64"/><path class="cls-3" d="M1.61,5.88C-.79,1.84,5-.49,6.35,2,7,3.18,2,6.54,1.61,5.88Z"/><path class="cls-3" d="M18.35,21.25c.51.51,2.27,1.91,2.55,1.69s-.28-1.81-.72-3.64"/></g></svg>