<svg xmlns="http://www.w3.org/2000/svg" width="24" height="24" viewBox="0 0 24 24"><defs><style>.cls-1{fill:none;stroke:#445d82;stroke-linecap:round;stroke-linejoin:round;stroke-width:2px;}</style></defs><g id="_24_Reply_Failed" data-name="24_Reply_Failed"><path class="cls-1" d="M22.39,10.49a8.15,8.15,0,0,0-6.53-5.14A46.53,46.53,0,0,0,9.53,5c-.42,0-.37-3.71-.94-3.42C5.59,3.11,1,7,1,8.49s4.36,5.59,7.51,7c.78.35.7-3.44,1-3.45L11,12"/><path class="cls-1" d="M23,17.14A5.73,5.73,0,0,0,17.5,12,5.27,5.27,0,0,0,12,17.51c0,3,2.85,5.37,5.8,5.49C21.23,23.13,23.09,20.18,23,17.14Z"/><line class="cls-1" x1="17.5" y1="16.33" x2="17.5" y2="15"/><circle class="cls-1" cx="17.5" cy="19.5" r="0.5"/></g></svg>