<svg data-name="Layer 1" xmlns="http://www.w3.org/2000/svg" width="24" height="24"><path d="M12 8.5a1.5 1.5 0 1 0-1.5 1.5A1.54 1.54 0 0 0 12 8.5zM11 9h-1V8h1zm3 9a2 2 0 1 0 2 2 2 2 0 0 0-2-2zm0 2.9a.9.9 0 1 1 .9-.9.9.9 0 0 1-.9.9zM9 18a2 2 0 1 0 2 2 2 2 0 0 0-2-2zm0 2.9a.9.9 0 1 1 .9-.9.9.9 0 0 1-.9.9zM18.5 7A1.5 1.5 0 1 0 20 8.5 1.54 1.54 0 0 0 18.5 7zm.5 2h-1V8h1zm3.2-5.2c-.8.1-11.5.5-15.6-.2C5.5 1.6 4.5 1 1.9 1c-2.9 0-2 2.9-.7 3a1.67 1.67 0 0 0 1.9-.9c1.1.1 2.9 1.5 3.4 12A2.31 2.31 0 0 0 8.9 17c2-.1 7.1-.2 9.5-.9 2.2-.7 4.9-2.3 5.5-9.8.2-2-.3-2.6-1.7-2.5zm-.1 3.5a12.58 12.58 0 0 1-1.4 4.7c-1.1 2.2-3.5 3-10.9 3.1-1.1 0-1.6-1.1-1.7-2.2a30 30 0 0 0-1.2-7.1 107.7 107.7 0 0 0 13.9.1c1.2-.2 1.4-.1 1.3 1.4zM16.5 10a1.5 1.5 0 1 0 1.5 1.5 1.54 1.54 0 0 0-1.5-1.5zm.5 2h-1v-1h1zm-4.5-2a1.5 1.5 0 1 0 1.5 1.5 1.54 1.54 0 0 0-1.5-1.5zm.5 2h-1v-1h1zm3-3.5a1.5 1.5 0 1 0-1.5 1.5A1.54 1.54 0 0 0 16 8.5zM15 9h-1V8h1z" fill="#0089d9" fill-rule="evenodd"/></svg>