<svg id="_24_GitHub_Icon" data-name="24_GitHub_Icon" xmlns="http://www.w3.org/2000/svg" width="24" height="24" viewBox="0 0 24 24">
  <rect id="Container" width="24" height="24" fill="#d11525" opacity="0"/>
  <path id="Path_62" data-name="Path 62" d="M12,0A11.9,11.9,0,0,0,0,11.792,11.815,11.815,0,0,0,8.207,22.98c.6.108.819-.256.819-.569,0-.28-.01-1.021-.016-2-3.338.712-4.043-1.581-4.043-1.581A3.131,3.131,0,0,0,3.635,17.1c-1.089-.732.083-.717.083-.717A2.516,2.516,0,0,1,5.556,17.6a2.581,2.581,0,0,0,3.492.98A2.505,2.505,0,0,1,9.81,17c-2.665-.3-5.466-1.309-5.466-5.827A4.512,4.512,0,0,1,5.579,8.011,4.176,4.176,0,0,1,5.7,4.89S6.7,4.573,9,6.1a11.568,11.568,0,0,1,6.009,0C17.3,4.573,18.3,4.89,18.3,4.89a4.173,4.173,0,0,1,.119,3.121,4.506,4.506,0,0,1,1.233,3.164c0,4.529-2.8,5.526-5.479,5.818a2.789,2.789,0,0,1,.815,2.184c0,1.576-.015,2.848-.015,3.234,0,.316.217.683.826.567A11.814,11.814,0,0,0,24,11.792,11.9,11.9,0,0,0,12,0Z" fill="#191717" fill-rule="evenodd"/>
</svg>
