<svg xmlns="http://www.w3.org/2000/svg" width="24" height="24" viewBox="0 0 24 24"><defs><style>.cls-1{opacity:0;}.cls-2{fill:#e04c59;}.cls-3,.cls-4{fill:none;stroke:#445d82;stroke-linecap:round;stroke-linejoin:round;}.cls-3{stroke-width:2px;}</style></defs><g id="_24_Cogwheel" data-name="24_Cogwheel"><g id="_24_Cogwheel-2" data-name="24_Cogwheel"><g id="Container" class="cls-1"><rect class="cls-2" x="0.02" y="0.01" width="23.98" height="23.98"/></g><path class="cls-3" d="M20.69,4.43c-.05.7-2,2.16-2,2.51A5.7,5.7,0,0,0,19.81,9.1c.3.2,2.3-.2,2.86.54s.33,4.63-.21,5.23-2.48.46-2.85.62a4.6,4.6,0,0,0-1.24,2.08c0,.4,1.22,1.92.93,3s-3.48,2.58-4.42,2.37S13.32,20.77,13,20.59a5.47,5.47,0,0,0-2.35-.08c-.37.16-.92,2.28-1.78,2.45-1.63.34-4.91-2.33-5.11-3.47s1.67-1.87,1.68-2.35A4.7,4.7,0,0,0,4.3,15c-.34-.23-2.24-.1-3-.53s-.09-5.75.45-6.22,2.26.5,2.71.36A3.73,3.73,0,0,0,5.73,6.51c0-.45-.94-2.34-.7-2.95s3.1-2.51,4.14-2.37,1.73,2.18,2,2.3a13.09,13.09,0,0,0,2.76.09c.38-.05.69-2.48,1.47-2.57S20.73,3.73,20.69,4.43Z"/><path class="cls-4" d="M14.66,12.76a2.73,2.73,0,0,1-3.51,1.88,2.68,2.68,0,0,1-1.79-3.4c.4-1.53,1.88-2.09,3.39-2S15,10.85,14.66,12.76Z"/><path class="cls-4" d="M8.46,7.83a10.28,10.28,0,0,1-1,1.69"/><path class="cls-4" d="M12.49,17.53c1.16-.08,1.8.3,2.1,1.1"/><path class="cls-4" d="M18.6,13.44a1.84,1.84,0,0,0-1.11.52"/></g></g></svg>