<svg xmlns="http://www.w3.org/2000/svg" width="24" height="24" viewBox="0 0 24 24"><defs><style>.cls-1{fill:#d93644;fill-opacity:0;}.cls-2{fill:none;stroke:#445d82;stroke-linecap:round;stroke-linejoin:round;stroke-width:2px;}</style></defs><g id="_24_Sound" data-name="24_Sound"><rect id="Container" class="cls-1" width="24" height="24"/><path class="cls-2" d="M10.36,13.52c-4-1.64-8.08.9-7.25,5.37,1,5.33,9,5.55,10.59.17,1.72-5.75,1.88-12,2.24-12s2.67,4.32,4.49,4.45c.7,0,.85-3.7-.1-4.65a44.17,44.17,0,0,1-4.21-5.43,1.48,1.48,0,0,0-2.4.71A92.46,92.46,0,0,1,12.17,12.6,1.19,1.19,0,0,1,10.36,13.52Z"/></g></svg>