<svg data-name="Layer 1" xmlns="http://www.w3.org/2000/svg" width="24" height="24"><path d="M2.22 12C2.1 11 2 10.16 2 10a1 1 0 0 1 1-1h18a1.08 1.08 0 0 1 1 1c0 .22-.2 2.05-.42 4h1.94c.24-2.38.48-4.76.48-5a1.08 1.08 0 0 0-1-1V6a2.15 2.15 0 0 0-2-2h-8.5S11 1 9 1H4a3.23 3.23 0 0 0-3 3v4a1 1 0 0 0-1 1c0 .2.12 1.45.27 3zM3 4a1.08 1.08 0 0 1 1-1h5c1 0 2.5 3 2.5 3H20a1.08 1.08 0 0 1 1 1v1H3zm18.63 12a26.42 26.42 0 0 1-4.73 2.78c-1.24 0-3.9.26-5.84-.78a19.92 19.92 0 0 0 5 0c3.52-1.56 1.79-3.2-.62-3a7.73 7.73 0 0 1-4.24.05C5.86 13.19 4.64 14.56 3 15a1 1 0 0 0-1-1H1a1 1 0 0 0-1 1v5a1 1 0 0 0 1 1h1a1 1 0 0 0 1-.84v.77c.53-.25.8.06 1 0 0-.09-.09-.43-.17-.91 2.4.34 4.42 2.11 9.23 2.9 2.43-.35 3.43-.5 5.84-1a55.81 55.81 0 0 1 4.64-4.2c.73-1.14-.08-2.56-1.91-1.72z" fill="#0089d9" fill-rule="evenodd" data-name="Share with me"/></svg>