<svg xmlns="http://www.w3.org/2000/svg" width="24" height="24" viewBox="0 0 24 24"><defs><style>.cls-1{fill:#d93644;fill-opacity:0;}.cls-2,.cls-3{fill:none;stroke:#445d82;stroke-linecap:round;stroke-linejoin:round;}.cls-2{stroke-width:2px;}</style></defs><g id="_24_Storage-2" data-name="24_Storage"><rect id="Container" class="cls-1" width="24" height="24"/><path class="cls-2" d="M11.5,21.94c.26-.1,7.74-2.7,9-3.94.49-.48.62-3.15.5-5.69"/><path class="cls-3" d="M11.58,12s-.19,5.83-.08,9"/><path class="cls-3" d="M2.5,6.19S11,10,11.48,10s9.18-4.19,9.18-4.19"/><path class="cls-3" d="M20.66,5.77s-8-3.28-9.24-3.28-9.18,3.6-9.18,3.6"/><path class="cls-2" d="M11.56,21.94S4.21,19,3.31,18c-.39-.44-.38-2.95-.31-5.23"/><path class="cls-2" d="M14.35,15.09c2.27-.65,7-2.59,8.59-4.54.39-.48-2.52-4.28-2.52-4.28"/><path class="cls-3" d="M11.5,10.48c.1.94,2.25,5.25,2.75,5.1"/><path class="cls-3" d="M9.27,15.48c.72-.11,2.23-5,2.23-5"/><path class="cls-2" d="M2.5,6.51S.89,10.29,1,11.17c.36,1,7.33,4,8.05,3.92"/></g></svg>