<svg data-name="Layer 1" xmlns="http://www.w3.org/2000/svg" width="24" height="24"><path d="M12.5 22a1.5 1.5 0 1 0-1.5-1.5 1.5 1.5 0 0 0 1.5 1.5zm0 2A3.5 3.5 0 1 0 9 20.5a3.5 3.5 0 0 0 3.5 3.5zM9.19 3.91L14 5.2 12.73 10 7.9 8.74zm1.9 12.32L12.51 11l-8.7-2.36L2 15.4l7.29 2a4.5 4.5 0 0 1 1.8-1.17zm1.62-.23l4-15A1.38 1.38 0 0 1 18 0h3a1 1 0 0 1 0 2h-2.53l-3.84 14.54a4.46 4.46 0 0 0-1.92-.54zM8 20.31l-4.4-1.18a1 1 0 0 1 .52-1.93l4.42 1.18A4.47 4.47 0 0 0 8 20.31z" fill="#0089d9" fill-rule="evenodd"/></svg>