<svg xmlns="http://www.w3.org/2000/svg" width="24" height="24" viewBox="0 0 24 24"><defs><style>.cls-1{fill:#d93644;fill-opacity:0;}.cls-2,.cls-3{fill:none;stroke:#445d82;stroke-linecap:round;stroke-linejoin:round;}.cls-2{stroke-width:2px;}</style></defs><g id="_24_Shopping_Cart" data-name="24_Shopping Cart"><path id="Container" class="cls-1" d="M0,0H24V24H0Z"/><path id="Op_component_1" data-name="Op component 1" class="cls-2" d="M20.47,5.62C22.06,5.6,23,6.4,23,8a10.29,10.29,0,0,1-1.56,5.16,5.38,5.38,0,0,1-2.52,2.12c-1.58.62-10,.81-11.78.64-1.17-.12-1.48-.55-1.54-1.61A37.63,37.63,0,0,0,4,4.51C6.82,5.57,17.44,5.65,20.47,5.62Z"/><path id="Op_component_1-2" data-name="Op component 1" class="cls-2" d="M2.55,2.08C1.86,1.91,1.19,3,1,2.47S2,1.93,2.55,2.08Z"/><path class="cls-2" d="M4,4.51c-.35-1.17-.77-2.25-1.44-2.43"/><path class="cls-3" d="M14.32,8.73c.07.44-.15.69-.67.69a.69.69,0,0,1,0-1.38A.73.73,0,0,1,14.32,8.73Z"/><path class="cls-3" d="M19.05,8.74a.6.6,0,0,1-.66.67c-.54,0-.66-.3-.66-.67s.31-.74.66-.67S19.05,8.37,19.05,8.74Z"/><path class="cls-3" d="M16.78,12.66c0,.39-.27.56-.63.56s-.7-.17-.7-.56.3-.82.66-.82A.79.79,0,0,1,16.78,12.66Z"/><path class="cls-3" d="M10.45,12.53c-.07-.43.15-.69.67-.69a.69.69,0,0,1,0,1.38A.72.72,0,0,1,10.45,12.53Z"/><path class="cls-3" d="M8,8.61c0-.4.27-.57.63-.57s.7.17.7.57a.79.79,0,0,1-.66.81A.79.79,0,0,1,8,8.61Z"/><path class="cls-2" d="M5.54,14.23c0,.69.06,1.41.07,1.71,0,1.3.31,1.8,1.14,2,1.4.42,6.82.36,8.24.36a2.44,2.44,0,0,1,2.09,1"/><path class="cls-2" d="M9.73,21a1.06,1.06,0,0,1-1,1c-.51.09-1-.45-1-1a1,1,0,0,1,1-1A.88.88,0,0,1,9.73,21Z"/><path class="cls-2" d="M15.6,20.93a1,1,0,0,1-1,1.05,1.1,1.1,0,0,1-1-1.09.93.93,0,0,1,1-.9A1,1,0,0,1,15.6,20.93Z"/></g></svg>