<svg id="Layer_1" data-name="Layer 1" xmlns="http://www.w3.org/2000/svg" width="24" height="24"><defs><style>.cls-1{fill:#0089d9}</style></defs><g id="Sort_List" data-name="Sort List"><path class="cls-1" d="M5 3v13H2l4 5 4-5H7V3H5zM13 5h2a1 1 0 0 1 1 1 1 1 0 0 1-1 1h-2a1 1 0 0 1-1-1 1 1 0 0 1 1-1zM13 9h4a1 1 0 0 1 1 1 1 1 0 0 1-1 1h-4a1 1 0 0 1-1-1 1 1 0 0 1 1-1zM13 13h6a1 1 0 0 1 1 1 1 1 0 0 1-1 1h-6a1 1 0 0 1-1-1 1 1 0 0 1 1-1zM13 17h8a1 1 0 0 1 1 1 1 1 0 0 1-1 1h-8a1 1 0 0 1-1-1 1 1 0 0 1 1-1z"/></g></svg>