<svg xmlns="http://www.w3.org/2000/svg" width="24" height="24" viewBox="0 0 24 24"><defs><style>.cls-1{fill:#d93644;fill-opacity:0;}.cls-2,.cls-3{fill:none;stroke:#445d82;stroke-linecap:round;stroke-linejoin:round;}.cls-2{stroke-width:2px;}</style></defs><g id="_24_Save" data-name="24_Save"><rect id="Container" class="cls-1" width="24" height="24"/><path class="cls-2" d="M2,18.88C2,22.13,4.39,21.79,6,22s8.39,0,12.18,0c3.1,0,3.6-1.84,3.79-3.12s0-12,0-13S18.47,2,17.84,2H5.06c-1.18,0-2.77.46-2.95,2S2,17.08,2,18.88Z"/><path class="cls-2" d="M5.47,2.1c.71-.08,9.31-.18,10,0s.7,6.75,0,7.43-9.43.68-10,0S4.76,2.18,5.47,2.1Z"/><path class="cls-3" d="M6.5,14.5c1.49,0,8.28.07,9,0"/><path class="cls-3" d="M6.51,17.49c1,0,5.36,0,6,0"/><path class="cls-3" d="M12.49,4.5a29.93,29.93,0,0,1,0,3"/></g></svg>