<svg data-name="Layer 1" xmlns="http://www.w3.org/2000/svg" width="24" height="24"><path d="M16.2.7A11.87 11.87 0 0 0 8.1.6a12.14 12.14 0 0 0-6.8 6c1.3 1 2.6 2 3.9 3.1a8.75 8.75 0 0 1 1.7-2.8 7.16 7.16 0 0 1 3.6-2A8.22 8.22 0 0 1 14 5a6.14 6.14 0 0 1 2.6 1.5l2.2-2.2L20 3.1A11.66 11.66 0 0 0 16.2.7z" fill="#ea4335"/><path d="M20 21.1a9.94 9.94 0 0 0 3-5 13.89 13.89 0 0 0 .3-6.4H12v4.7h6.5a5.54 5.54 0 0 1-2.4 3.7 19.26 19.26 0 0 0 3.9 3z" fill="#4285f4"/><path d="M1.3 17.4c1.3-1 2.6-2 3.9-3.1A7.36 7.36 0 0 0 8 18a6.6 6.6 0 0 0 2.7 1.2 7.08 7.08 0 0 0 2.9 0 7.42 7.42 0 0 0 2.6-1c1.3 1 2.5 2 3.8 3a11.64 11.64 0 0 1-4.9 2.6 11.49 11.49 0 0 1-6.1-.1 12.15 12.15 0 0 1-4.4-2.2 14.2 14.2 0 0 1-3.3-4.1z" fill="#34a853"/><path d="M.2 9.6a15.1 15.1 0 0 1 1-3c1.3 1 2.6 2 3.9 3.1a7.55 7.55 0 0 0 0 4.7c-1.3 1-2.6 2-3.9 3.1a13.51 13.51 0 0 1-1-7.9z" fill="#fbbc05"/></svg>