<svg xmlns="http://www.w3.org/2000/svg" width="24" height="24" viewBox="0 0 24 24"><defs><style>.cls-1{opacity:0;}.cls-2{fill:#e04c59;}.cls-3,.cls-4{fill:none;stroke:#445d82;stroke-linecap:round;stroke-linejoin:round;}.cls-3{stroke-width:2px;}</style></defs><g id="_24_key" data-name="24_key"><g id="Container" class="cls-1"><rect class="cls-2" width="24" height="24"/></g><path class="cls-3" d="M4.11,22.69s-2.15.67-2.74,0-.32-3,.08-3.6c.66-1.12,4.94-5.65,6.59-8-1.92-4.39,1.05-8.46,5-8.46"/><polyline class="cls-4" points="7.62 16.93 7.83 18.53 5.78 18.76 6.57 20.74 4.4 20.89 4.61 22.69"/><path class="cls-3" d="M8.12,16.83s3-3.37,3.29-3.25c6.38,2.34,9.93-5.57,5.77-9.31"/><circle class="cls-4" cx="14.77" cy="6.5" r="1.28"/><path class="cls-4" d="M19,6.37C26.06,4.06,24-1.13,18.45,1,13.79,2.8,14,6.37,15.86,6.72"/><path class="cls-4" d="M10.32,12.43a8.84,8.84,0,0,0,1.51.79"/></g></svg>