<svg xmlns="http://www.w3.org/2000/svg" width="24" height="24" viewBox="0 0 24 24"><defs><style>.cls-1{fill:#e04c59;opacity:0;}.cls-2{fill:#445d82;}.cls-3{fill:none;stroke:#445d82;stroke-linecap:round;stroke-linejoin:round;stroke-width:2px;}</style></defs><g id="_24_Share_Folder" data-name="24_Share Folder"><rect id="Container" class="cls-1" width="24" height="24"/><path class="cls-2" d="M17.69,15.61a5.74,5.74,0,0,0,1.6-.48,4,4,0,0,1,1.19-.35,3.77,3.77,0,0,1,2.51.63,2.28,2.28,0,0,1,1,1.35,1.68,1.68,0,0,1-.15,1.14,2.18,2.18,0,0,1-.62.7l-.75.55c-1,.75-1.94,1.59-3.05,2.37a6.8,6.8,0,0,1-2.07.88,18,18,0,0,1-2,.41,16.82,16.82,0,0,1-2,.19,8,8,0,0,1-2.16-.26C9.81,22.4,8.64,22,7.44,21.66A18.52,18.52,0,0,0,3.86,21c-.3,0-.6,0-.9,0H2.74a2.77,2.77,0,0,1-.39,0,2.7,2.7,0,0,1-.76-.24A3,3,0,0,1,0,18.42c0-.12,0-.24,0-.36V16.37A3,3,0,0,1,.32,15a3.16,3.16,0,0,1,.87-1.07,4.31,4.31,0,0,1,.55-.36l.42-.23c.29-.15.6-.31.91-.45a9.86,9.86,0,0,1,2-.71A6.84,6.84,0,0,1,7.28,12a13.73,13.73,0,0,1,2,.36c.63.15,1.23.31,1.81.41a10.59,10.59,0,0,0,1.73.16c.61,0,1.2,0,1.86,0a6.73,6.73,0,0,1,2.26.24,3,3,0,0,1,1.92,2,2.83,2.83,0,0,1-.76,2.73,3.67,3.67,0,0,1-2.36,1,15.61,15.61,0,0,1-2.06,0c-1.31-.08-2.62-.26-3.84-.38h0a1,1,0,1,1,.21-2h0c1.31.13,2.54.3,3.78.38a13,13,0,0,0,1.76,0,1.69,1.69,0,0,0,1.12-.4.83.83,0,0,0-.41-1.42c-.74-.26-2.17,0-3.51-.05a9.93,9.93,0,0,1-2.07-.2c-.68-.13-1.31-.31-1.91-.46a6.5,6.5,0,0,0-3.32-.24,8.09,8.09,0,0,0-1.6.57c-.26.12-.53.26-.8.41l-.42.22-.25.16a1,1,0,0,0-.43.88V18a.57.57,0,0,0,0,.13,1.07,1.07,0,0,0,.47.78.42.42,0,0,0,.15,0H3c.34,0,.68,0,1,0a20.9,20.9,0,0,1,4,.69c1.27.33,2.5.78,3.65,1.07a5.86,5.86,0,0,0,1.63.2A15.52,15.52,0,0,0,15,20.83a14.43,14.43,0,0,0,1.76-.36,5.08,5.08,0,0,0,1.45-.58c1-.69,1.95-1.53,3-2.33L22,17c.07,0,0,0,0,0a.42.42,0,0,0,0,.22c0,.08,0-.06-.17-.15a1.6,1.6,0,0,0-.53-.23,1.7,1.7,0,0,0-.59,0,1.87,1.87,0,0,0-.64.2,8.13,8.13,0,0,1-2.05.62H18a1,1,0,0,1-.28-2Z"/><path class="cls-3" d="M2,11.07V8A3,3,0,0,1,5,5H19a3,3,0,0,1,3,3v4.61"/><path class="cls-3" d="M2,9V5A3,3,0,0,1,5,2H8.86a2,2,0,0,1,1.66.89l.82,1.22A2,2,0,0,0,13,5"/></g></svg>