<svg xmlns="http://www.w3.org/2000/svg" width="24" height="24" viewBox="0 0 24 24"><defs><style>.cls-1{fill:#d93644;fill-opacity:0;}.cls-2{fill:none;stroke:#445d82;stroke-linecap:round;stroke-linejoin:round;stroke-width:2px;}</style></defs><g id="_24_Tool" data-name="24_Tool"><rect id="Container" class="cls-1" width="24" height="24"/><path class="cls-2" d="M6,6A28.34,28.34,0,0,1,2,6a21.17,21.17,0,0,1,0-3.9A19.65,19.65,0,0,1,6,2.05,25.39,25.39,0,0,1,6,6Z"/><path class="cls-2" d="M13.92,6A28.19,28.19,0,0,1,10,6a19.55,19.55,0,0,1,0-3.9,19.55,19.55,0,0,1,3.9,0A24.18,24.18,0,0,1,13.92,6Z"/><path class="cls-2" d="M21.92,6A28.19,28.19,0,0,1,18,6a19.55,19.55,0,0,1,0-3.9,19.55,19.55,0,0,1,3.9,0A24.18,24.18,0,0,1,21.92,6Z"/><path class="cls-2" d="M6,14A25.51,25.51,0,0,1,2,14a21.17,21.17,0,0,1,0-3.9A19.65,19.65,0,0,1,6,10.1,25.39,25.39,0,0,1,6,14Z"/><path class="cls-2" d="M13.92,14A25.38,25.38,0,0,1,10,14a19.54,19.54,0,0,1,0-3.9,19.55,19.55,0,0,1,3.9,0A24.18,24.18,0,0,1,13.92,14Z"/><path class="cls-2" d="M21.92,14A25.38,25.38,0,0,1,18,14a19.54,19.54,0,0,1,0-3.9,19.55,19.55,0,0,1,3.9,0A24.18,24.18,0,0,1,21.92,14Z"/><path class="cls-2" d="M6,21.93a26.85,26.85,0,0,1-3.91,0A21.17,21.17,0,0,1,2,18,19.65,19.65,0,0,1,6,18,25.39,25.39,0,0,1,6,21.93Z"/><path class="cls-2" d="M13.92,21.93a26.71,26.71,0,0,1-3.9,0A19.54,19.54,0,0,1,10,18a19.55,19.55,0,0,1,3.9,0A24.18,24.18,0,0,1,13.92,21.93Z"/><path class="cls-2" d="M21.92,21.93a26.71,26.71,0,0,1-3.9,0A19.54,19.54,0,0,1,18,18a19.55,19.55,0,0,1,3.9,0A24.18,24.18,0,0,1,21.92,21.93Z"/></g></svg>