<svg xmlns="http://www.w3.org/2000/svg" width="24" height="24" viewBox="0 0 24 24"><defs><style>.cls-1{fill:#d93644;fill-opacity:0;}.cls-2{fill:none;stroke:#445d82;stroke-linecap:round;stroke-linejoin:round;stroke-width:2px;}</style></defs><g id="_24_Tile_View" data-name="24_Tile View"><rect id="Container" class="cls-1" width="24" height="24"/><path class="cls-2" d="M8.63,9.94a40.63,40.63,0,0,1-4.28,0A1.34,1.34,0,0,1,3.06,8.55a34.45,34.45,0,0,1,0-4.07c.06-.91.45-1.32,1.29-1.39a26.59,26.59,0,0,1,4.28,0c.81.08,1.21.49,1.29,1.39a26.3,26.3,0,0,1,0,4.07A1.35,1.35,0,0,1,8.63,9.94Z"/><path class="cls-2" d="M8.63,20.94a40.63,40.63,0,0,1-4.28,0,1.34,1.34,0,0,1-1.29-1.39,34.45,34.45,0,0,1,0-4.07c.06-.91.45-1.32,1.29-1.39a26.59,26.59,0,0,1,4.28,0c.81.08,1.21.49,1.29,1.39a26.3,26.3,0,0,1,0,4.07A1.35,1.35,0,0,1,8.63,20.94Z"/><path class="cls-2" d="M19.63,9.94a40.63,40.63,0,0,1-4.28,0,1.34,1.34,0,0,1-1.29-1.39,34.45,34.45,0,0,1,0-4.07c.06-.91.45-1.32,1.29-1.39a26.59,26.59,0,0,1,4.28,0c.81.08,1.21.49,1.29,1.39a26.3,26.3,0,0,1,0,4.07A1.35,1.35,0,0,1,19.63,9.94Z"/><path class="cls-2" d="M19.63,20.94a40.63,40.63,0,0,1-4.28,0,1.34,1.34,0,0,1-1.29-1.39,34.45,34.45,0,0,1,0-4.07c.06-.91.45-1.32,1.29-1.39a26.59,26.59,0,0,1,4.28,0c.81.08,1.21.49,1.29,1.39a26.3,26.3,0,0,1,0,4.07A1.35,1.35,0,0,1,19.63,20.94Z"/></g></svg>