<svg xmlns="http://www.w3.org/2000/svg" width="24" height="24" viewBox="0 0 24 24"><defs><style>.cls-1{fill:#e04c59;opacity:0;}.cls-2,.cls-3,.cls-4{fill:none;stroke:#445d82;}.cls-2,.cls-4{stroke-linecap:round;stroke-linejoin:round;}.cls-2,.cls-3{stroke-width:2px;}.cls-3{stroke-miterlimit:10;}</style></defs><g id="_24_Text" data-name="24_Text"><rect id="Container" class="cls-1" width="24" height="24"/><path class="cls-2" d="M4.06,9.76c.17-1.19,1.47-1.89,3.79-2A1.82,1.82,0,0,0,9.77,5.84c.12-2.41.7-3.78,1.92-3.83"/><path class="cls-3" d="M19.89,18.34A3.55,3.55,0,0,1,16.17,22c-1.62.07-6.75.06-8.38,0s-3.52-.31-3.66-2.58C3.94,16.26,4,10.84,4.08,9A4.19,4.19,0,0,1,5.17,6.42a24,24,0,0,1,3.4-3.35A4.57,4.57,0,0,1,11.2,2c1,0,3.93,0,5.6,0s3,.91,3.09,3.63C20,7.44,20.06,15.34,19.89,18.34Z"/><line class="cls-4" x1="13.5" y1="9.51" x2="15.52" y2="9.51"/><line class="cls-4" x1="8.49" y1="12.54" x2="15.52" y2="12.54"/><line class="cls-4" x1="8.5" y1="15.54" x2="11.62" y2="15.54"/></g></svg>