<svg xmlns="http://www.w3.org/2000/svg" width="24" height="24" viewBox="0 0 24 24"><defs><style>.cls-1{opacity:0;}.cls-2{fill:#e04c59;}.cls-3,.cls-4{fill:none;stroke:#445d82;stroke-linecap:round;stroke-linejoin:round;}.cls-3{stroke-width:2px;}</style></defs><g id="_24_Time" data-name="24_Time"><g id="Container" class="cls-1"><rect class="cls-2" width="24" height="24"/></g><circle class="cls-3" cx="12" cy="12" r="1"/><path class="cls-4" d="M11.87,6.17A22.46,22.46,0,0,0,12,10.93"/><path class="cls-4" d="M12.62,12.87c.68.52,2.38,1.75,3.86,2.77"/><path class="cls-4" d="M11.57,18.48a7.23,7.23,0,0,0,0,1.07"/><path class="cls-4" d="M19.55,11.52a7.56,7.56,0,0,0-1.07,0"/><path class="cls-4" d="M5.55,11.52c-.37,0-.8-.06-1.1,0"/><polyline class="cls-3" points="9.98 6.83 11.8 5.01 13.63 6.83"/><polyline class="cls-3" points="16.99 13.92 16.99 16.5 14.41 16.5"/><path class="cls-3" d="M23,12c0,6.07-4.09,11-11,11A10.69,10.69,0,0,1,1,12C1.09,5.92,5.28,1,12,1,18.08,1,23.05,5.09,23,12Z"/></g></svg>