<svg data-name="Layer 1" xmlns="http://www.w3.org/2000/svg" width="24" height="24"><path d="M11 3h2a.94.94 0 0 1 1 1v2a.94.94 0 0 1-1 1h-2a.94.94 0 0 1-1-1V4a.94.94 0 0 1 1-1zm7 0h2a.94.94 0 0 1 1 1v2a.94.94 0 0 1-1 1h-2a.94.94 0 0 1-1-1V4a.94.94 0 0 1 1-1zM4 10h2a.94.94 0 0 1 1 1v2a.94.94 0 0 1-1 1H4a.94.94 0 0 1-1-1v-2a.94.94 0 0 1 1-1zm7 0h2a.94.94 0 0 1 1 1v2a.94.94 0 0 1-1 1h-2a.94.94 0 0 1-1-1v-2a.94.94 0 0 1 1-1zm7 0h2a.94.94 0 0 1 1 1v2a.94.94 0 0 1-1 1h-2a.94.94 0 0 1-1-1v-2a.94.94 0 0 1 1-1zM4 17h2a.94.94 0 0 1 1 1v2a.94.94 0 0 1-1 1H4a.94.94 0 0 1-1-1v-2a.94.94 0 0 1 1-1zm7 0h2a.94.94 0 0 1 1 1v2a.94.94 0 0 1-1 1h-2a.94.94 0 0 1-1-1v-2a.94.94 0 0 1 1-1zm7 0h2a.94.94 0 0 1 1 1v2a.94.94 0 0 1-1 1h-2a.94.94 0 0 1-1-1v-2a.94.94 0 0 1 1-1zM4 3h2a.94.94 0 0 1 1 1v2a.94.94 0 0 1-1 1H4a.94.94 0 0 1-1-1V4a.94.94 0 0 1 1-1z" fill="#0089d9" fill-rule="evenodd"/></svg>