<svg xmlns="http://www.w3.org/2000/svg" width="24" height="24" viewBox="0 0 24 24"><defs><style>.cls-1{fill:#e04c59;opacity:0;}.cls-2,.cls-3,.cls-4{fill:none;stroke:#445d82;stroke-width:2px;}.cls-2,.cls-3{stroke-linecap:round;}.cls-2{stroke-linejoin:round;}.cls-3,.cls-4{stroke-miterlimit:10;fill-rule:evenodd;}</style></defs><g id="_24_User_Folder" data-name="24_User_Folder"><rect id="Container" class="cls-1" width="24" height="24"/><path class="cls-2" d="M8,20c-.88,0-2.56-.05-2.93-.08-2.29-.16-2.82-.51-3-3-.09-1.5-.18-6.66,0-8.88a3,3,0,0,1,3-3C6.4,5,15.32,4.9,18.92,5.13c1.19.08,3.74.47,4,2.85.09.95.16,4.45.1,7"/><path class="cls-2" d="M2,10.92s0-3.35.14-6S3.46,2,5.08,2H8.86a2,2,0,0,1,1.63.88l.65,1.29A1.74,1.74,0,0,0,12.67,5"/><path class="cls-3" d="M18.24,16.68c0,3,3.76,2.13,3.76,4.51,0,1.08-10,1.08-10,0,0-2.38,3.77-1.48,3.77-4.51"/><path class="cls-4" d="M17,17c1,0,2.14-.91,2.14-2.86A1.91,1.91,0,0,0,17,12a1.91,1.91,0,0,0-2.14,2.14C14.86,16.09,16,17,17,17Z"/></g></svg>