<svg data-name="Layer 1" xmlns="http://www.w3.org/2000/svg" width="24" height="24"><path d="M12 0a12 12 0 1 0 12 12A12 12 0 0 0 12 0zM9 9c0-2.23 3.57 0 4.94-2 .14 1 1.06.45 1.06 2-.2-1.11-1.07-.39-1.26-1.34V7.5C12.75 10 9.49 7.26 9 9zm9.71 10.4A8.48 8.48 0 0 1 14 17v-1c.53-.52 1.5-1.33 1.5-2.33.94 0 1.36-1.66 1.36-2.53a1.06 1.06 0 0 0-.33-.8c-.19 0-.28.58-.42 1.2a1.16 1.16 0 0 1-.08.32 2.31 2.31 0 0 1-.1-.28v-1.49a1 1 0 0 1 .07-.15.69.69 0 0 1 .11-.13 3.67 3.67 0 0 0 .49-1.94 2 2 0 0 0-1.82-2.16h-.17C13.15 2.89 7.34 4 7.34 8a3.2 3.2 0 0 0 .46 1.76c.41.28.47 1.48.17 2.13-.2-.73-.28-1.54-.51-1.55a1.06 1.06 0 0 0-.33.8c0 .87.43 2.53 1.36 2.53 0 1 .93 1.83 1.47 2.36v1a8 8 0 0 1-4.76 2.29 10 10 0 1 1 14.13-.55c-.2.22-.4.42-.62.62z" fill="#0089d9" fill-rule="evenodd" data-name="User Placeholder"/></svg>