<svg xmlns="http://www.w3.org/2000/svg" width="24" height="24" viewBox="0 0 24 24"><defs><style>.cls-1{opacity:0;}.cls-2{fill:#e04c59;}.cls-3,.cls-4{fill:none;stroke:#445d82;stroke-miterlimit:10;stroke-width:2px;fill-rule:evenodd;}.cls-3{stroke-linecap:round;}</style></defs><g id="_24_Users" data-name="24_Users"><g id="Container" class="cls-1"><rect class="cls-2" width="24" height="24"/></g><path class="cls-3" d="M12.51,12.18c0,3.08,3.71,2.77,5.69,4,.85.51,1.45,2.73,1.45,4.2,0,2.24-18.57,2.24-18.57,0,0-1.38.52-3.59,1.28-4.1,2-1.32,5.8-.82,5.8-4.08"/><path class="cls-4" d="M10.36,13c2,0,4.13-2.15,4.13-6.31,0-3.17-1.57-4.7-4.13-4.7S6.24,3.53,6.24,6.7C6.24,10.86,8.4,13,10.36,13Z"/><path class="cls-3" d="M18,10.33c0,2.35,2.38,2.67,3.9,3.59.64.39,1.1,2.08,1.1,3.21,0,.57-1.31,1.37-3.46,1.55"/><path class="cls-4" d="M14.06,9.82a2.53,2.53,0,0,0,2,1.17c1.39,0,3-1.55,3-4.56,0-2.29-1.22-3.4-3-3.4a2.77,2.77,0,0,0-2.14.84"/></g></svg>