<svg xmlns="http://www.w3.org/2000/svg" width="24" height="24" viewBox="0 0 24 24"><defs><style>.cls-1,.cls-3,.cls-4{fill:none;}.cls-2{fill:#d93644;fill-opacity:0;}.cls-3,.cls-4{stroke:#445d82;stroke-linecap:round;stroke-linejoin:round;}.cls-3{stroke-width:2px;}</style></defs><g id="_24_Upload" data-name="24_Upload"><rect id="Container" class="cls-1" width="24" height="24"/><rect id="Container-2" data-name="Container" class="cls-2" width="24" height="24"/><path class="cls-3" d="M8.94,15.9c0-3,0-5.57.08-8.17,0-.15-.1-.24-.3-.24C8.31,7.5,7,7.68,7,7.07c-.06-.8,4-6,5-6.07s5.3,5.22,5,5.81-1.31.27-1.72.33a.44.44,0,0,0-.31.32c0,2.46,1.19,7.91,0,8.44-.65.31-2.42-1-3-1S8.94,16.39,8.94,15.9Z"/><polyline class="cls-4" points="21.94 15.54 18.95 15.54 18.24 19.54 6.01 19.54 4.96 15.54 1.97 15.57"/><path class="cls-3" d="M2,16.07s.45,6.63,1.14,6.71a136.5,136.5,0,0,0,17.73-.14c.83-.12,1.1-6.6,1.1-6.6"/></g></svg>