<svg xmlns="http://www.w3.org/2000/svg" width="24" height="24" viewBox="0 0 24 24"><defs><style>.cls-1{fill:#e04c59;opacity:0;}.cls-2,.cls-4,.cls-5{fill:none;stroke:#445d82;stroke-width:2px;}.cls-2,.cls-4{stroke-linecap:round;}.cls-2{stroke-linejoin:round;}.cls-3{fill:#445d82;}.cls-4,.cls-5{stroke-miterlimit:10;fill-rule:evenodd;}</style></defs><g id="_24_User_Settings" data-name="24_User Settings"><rect id="Container" class="cls-1" width="24" height="24"/><path class="cls-2" d="M23,19.58V16.74A2,2,0,0,0,22,15l-2.51-1.43a2,2,0,0,0-2,0L15,15a2,2,0,0,0-1,1.74v2.84a2,2,0,0,0,1,1.74l2.51,1.43a2,2,0,0,0,2,0L22,21.32A2,2,0,0,0,23,19.58Z"/><path class="cls-3" d="M18.5,16.5A1.5,1.5,0,1,0,20,18a1.5,1.5,0,0,0-1.5-1.5Z"/><path class="cls-4" d="M12,23c-5.5,0-11-.63-11-1.88C1,15.62,9,19,9,12"/><path class="cls-5" d="M12,13c2.38,0,5-2.34,5-6.87C17,2.67,15.1,1,12,1S7,2.67,7,6.13C7,10.66,9.62,13,12,13Z"/></g></svg>