<svg xmlns="http://www.w3.org/2000/svg" width="24" height="24"><defs><style>.cls-2{fill:#0087e0}.cls-3{clip-path:url(#clip-path)}</style><clipPath id="clip-path"><path fill="none" d="M24 0H0v24h10.2L10 14l3.6-3.3L24 12V0z"/></clipPath></defs><path class="cls-2" d="M16.4 16.5a1.48 1.48 0 1 0 2.1 0 1.37 1.37 0 0 0-2.1 0zM18 18h-1v-1h1zm6 1v-3h-2.3c-.1-.1-.1-.3-.2-.4l1.6-1.6-2.1-2.2-1.6 1.6c-.1-.1-.3-.1-.4-.2V11h-3v2.3c-.1.1-.3.1-.4.2L14 11.8 11.8 14l1.6 1.6c-.1.1-.1.3-.2.4H11v3h2.3c.1.1.1.3.2.4L11.8 21l2.1 2.1 1.6-1.6c.1.1.3.1.4.2V24h3v-2.3c.1-.1.3-.1.4-.2l1.6 1.6L23 21l-1.6-1.6c.1-.1.1-.3.2-.4zm-2.6 1.7l-.7.7-1.7-1.7a3.55 3.55 0 0 1-.9.4v2.5h-1V20h.1a2.73 2.73 0 0 1-1.2-.6l.2.2-1.7 1.7-.7-.7 1.7-1.7.3.3a2.83 2.83 0 0 1-.7-1.6v.4h-2.5v-1H15v.5a2.57 2.57 0 0 1 .7-1.8l-.3.3-1.7-1.7.7-.7 1.7 1.7-.3.3a2.63 2.63 0 0 1 1.5-.7H17v-2.5h1V15h-.2a2.1 2.1 0 0 1 1.1.4l1.7-1.7.7.7-1.7 1.7a1.78 1.78 0 0 1 .4 1h2.4v1H20a3.55 3.55 0 0 1-.4.9z"/><g id="Gender-Free"><g class="cls-3"><path class="cls-2" d="M11.5 11.8a3.88 3.88 0 0 0 .6 1.9 2.38 2.38 0 0 0 1.5 1 16 16 0 0 1 2.3.8 3.45 3.45 0 0 1 1.2.9 2.67 2.67 0 0 1 .7 1.4 1.7 1.7 0 0 1 .1.7v.3a2.35 2.35 0 0 1-.2.8 1.06 1.06 0 0 1-.9.5l-.7.2a20 20 0 0 1-2.4.4c-1.6.1-3.2.2-4.7.2s-3.1 0-4.7-.1a20 20 0 0 1-2.4-.4 6.37 6.37 0 0 0-.7-.2 1.41 1.41 0 0 1-.8-.6c-.3 0-.4-.4-.4-.6v-.3c0-.2.1-.5.1-.7a2.67 2.67 0 0 1 .7-1.4 4.7 4.7 0 0 1 1.2-.9c.8-.4 1.6-.5 2.3-.8a2.38 2.38 0 0 0 1.5-1 3.88 3.88 0 0 0 .6-1.9c0-.3.3-.5.5-.4a.43.43 0 0 1 .4.4 4.89 4.89 0 0 1-.4 2.6 3.69 3.69 0 0 1-2.1 1.8c-.8.4-1.5.6-2.1.9a1.4 1.4 0 0 0-.9 1.2v.4l.2.1s0-.2-.1-.2-.1 0 0 .1a.52.52 0 0 0 .4.2 12.88 12.88 0 0 0 2.1.6 23.16 23.16 0 0 0 4.6.4 23.83 23.83 0 0 0 4.6-.4 7.27 7.27 0 0 0 2.1-.6c.2-.1.3-.1.4-.2s.1-.3 0-.2l-.1.2v-.6a1.4 1.4 0 0 0-.9-1.2c-.5-.3-1.3-.5-2.1-.9a4 4 0 0 1-2.1-1.8 4.89 4.89 0 0 1-.4-2.6c0-.3.2-.5.5-.4a.46.46 0 0 1 .5.4z"/></g><g class="cls-3"><path class="cls-2" d="M9 12.1a3.53 3.53 0 0 0 2.7-2.1 9.25 9.25 0 0 0 1-3.6 5.24 5.24 0 0 0-.8-3.4 2.73 2.73 0 0 0-1.2-.9A9.85 9.85 0 0 0 9 1.9a3.1 3.1 0 0 0-2.8 1.2 4.93 4.93 0 0 0-.7 3.3 7.68 7.68 0 0 0 .9 3.6A3.61 3.61 0 0 0 9 12.1zm0 .9a3.59 3.59 0 0 1-2.1-.8 5.79 5.79 0 0 1-1.4-1.7 9.59 9.59 0 0 1-1.4-4 6.29 6.29 0 0 1 .7-4.4A3.75 3.75 0 0 1 6.7.5 6.2 6.2 0 0 1 9 .1a6.2 6.2 0 0 1 2.3.4 4.21 4.21 0 0 1 1.9 1.6 6.88 6.88 0 0 1 .7 4.4 11.07 11.07 0 0 1-1.3 4 5.39 5.39 0 0 1-1.4 1.6A3.85 3.85 0 0 1 9 13z"/></g></g></svg>