<svg id="User_folder" xmlns="http://www.w3.org/2000/svg" width="24" height="24"><defs><style>.cls-2{fill:#0089d9;fill-rule:evenodd}</style></defs><path d="M21 3h-9.5S10 0 8 0H3a3.23 3.23 0 0 0-3 3v14a3.23 3.23 0 0 0 3 3h5.06A14.39 14.39 0 0 0 11 18H3a1.08 1.08 0 0 1-1-1V5h19a1.08 1.08 0 0 1 1 1v11a1.08 1.08 0 0 1-1 1h-1.58a12.27 12.27 0 0 0 2.48 1.82A3.26 3.26 0 0 0 24 17V6a3.23 3.23 0 0 0-3-3zM2 4V3a1.08 1.08 0 0 1 1-1h5c1 0 2 2 2 2z" fill="#0089d9" id="User_Folder-2" data-name="User Folder"/><g id="Gender-Free"><path class="cls-2" d="M16.68 16c0 5.13 4.95 2.28 4.95 6.55 0 1.93-13.32 1.93-13.32 0 0-4.27 5-1.42 5-6.55"/><path class="cls-2" d="M15 17.63c1.7 0 3.57-2.47 3.57-5.83C18.54 9.24 17.18 8 15 8s-3.6 1.24-3.6 3.8c0 3.36 1.87 5.83 3.6 5.83z"/></g></svg>