<svg xmlns="http://www.w3.org/2000/svg" width="24" height="24" viewBox="0 0 24 24"><defs><style>.cls-1{fill:#d93644;fill-opacity:0;}.cls-2{fill:none;stroke:#445d82;stroke-linecap:round;stroke-linejoin:round;stroke-width:2px;}</style></defs><g id="_24_Unread_Comment" data-name="24_Unread Comment"><rect id="Container" class="cls-1" width="24" height="24"/><path class="cls-2" d="M22,10.06a29,29,0,0,1-.38,5.35c-.54,2.34-1.52,3.37-3.93,3.66-1.71.2-5.17,0-6.37.4C10.56,19.75,9.5,22,8.7,22c-1.22,0-1.37-1.58-2.28-2.51s-2-.73-3-1.12c-1.34-.52-1.82-1.71-2.12-3.64S.5,5.31,2.49,4c1.45-.94,6.28-1.1,10.62-1"/><path class="cls-2" d="M5.59,10.64c-.47.87.58,1.1.81.65C6.87,10.37,5.77,10.33,5.59,10.64Z"/><path class="cls-2" d="M11.11,10.64c-.48.87.57,1.1.8.65C12.39,10.37,11.28,10.33,11.11,10.64Z"/><path class="cls-2" d="M16.6,10.64c-.47.87.58,1.1.81.65C17.88,10.37,16.78,10.33,16.6,10.64Z"/><path class="cls-2" d="M22,4.5A2.24,2.24,0,0,1,19.52,7C18.14,7,17.21,6.55,17,4.5c-.16-1.66,1.13-2.43,2.51-2.5A2.26,2.26,0,0,1,22,4.5Z"/></g></svg>