<svg xmlns="http://www.w3.org/2000/svg" width="24" height="24" viewBox="0 0 24 24"><defs><style>.cls-1{fill:#d93644;fill-opacity:0;}.cls-2{fill:none;stroke:#445d82;stroke-linecap:round;stroke-linejoin:round;stroke-width:2px;}</style></defs><g id="_24_Undefined_Document" data-name="24_Undefined Document"><rect id="Container" class="cls-1" x="-0.02" width="24" height="24"/><path class="cls-2" d="M4.06,10.07C4.24,8.83,5.59,8.1,8,8a1.89,1.89,0,0,0,2-2c.12-2.5.73-3.93,2-4"/><path class="cls-2" d="M10,22c-.84,0-1.56,0-2,0-1.69-.06-3.67-.32-3.82-2.68-.2-3.23-.14-8.07,0-10a4.39,4.39,0,0,1,1.13-2.7A25.91,25.91,0,0,1,8.75,3.11,4.8,4.8,0,0,1,11.49,2c1,0,3.45,0,5.18,0s3.12.94,3.22,3.78c0,.6.07,1.78.09,3.21"/><path class="cls-2" d="M16.37,15.91c.93-2,4-.29,2.17,1.5-.53.51-.84.74-1,1.08"/><path class="cls-2" d="M17.61,20.51a0,0,0,1,1-.09,0C17.52,20.43,17.61,20.43,17.61,20.51Z"/><circle class="cls-2" cx="17.5" cy="17.5" r="5.5"/></g></svg>