<svg xmlns="http://www.w3.org/2000/svg" width="24" height="24" viewBox="0 0 24 24"><defs><style>.cls-1{opacity:0;}.cls-2{fill:#e04c59;}.cls-3{fill:none;stroke:#445d82;stroke-linecap:round;stroke-linejoin:round;stroke-width:2px;}</style></defs><g id="_24_Unlock" data-name="24_Unlock"><g id="Container" class="cls-1"><rect class="cls-2" width="24" height="24"/></g><path class="cls-3" d="M5.75,10.17a115.38,115.38,0,0,1,12.31-.05,2.69,2.69,0,0,1,2.64,2.27,33.39,33.39,0,0,1,0,7.67c-.12,1.65-1,2.51-2.76,2.73-2.1.26-8.25.21-11.45.19-2.12,0-2.94-.95-3-1.55a35.43,35.43,0,0,1-.07-9A2.44,2.44,0,0,1,5.75,10.17Z"/><path class="cls-3" d="M7.08,10C6.83,7,6.9,4.36,8,2.88a5.19,5.19,0,0,1,8,0,6,6,0,0,1,.92,3.18"/><path class="cls-3" d="M13.29,17.09c-.22.16.08,1.44-.13,1.69a4.11,4.11,0,0,1-2.28.11c-.18-.12.09-1.56-.2-1.77-1.36-1-.56-3,1.37-3.12A1.72,1.72,0,0,1,13.29,17.09Z"/></g></svg>