<svg id="Layer_1" data-name="Layer 1" xmlns="http://www.w3.org/2000/svg" width="53" height="24"><defs><style>.cls-1{fill:#0089d9;fill-rule:evenodd}</style></defs><g id="Unread_comment" data-name="Unread comment"><path class="cls-1" d="M50 7a4 4 0 0 1-4-4 4.07 4.07 0 0 1 .54-2H35a6 6 0 0 0-6 6v6a6 6 0 0 0 6 6c1 0 2 3 2 5h1c0-3 3.61-5 4.94-5H47a6 6 0 0 0 6-6V7a5.65 5.65 0 0 0-.13-1.23A4 4 0 0 1 50 7zm-14 5a2 2 0 1 1 2-2 2 2 0 0 1-2 2zm5 0a2 2 0 1 1 2-2 2 2 0 0 1-2 2zm5 0a2 2 0 1 1 2-2 2 2 0 0 1-2 2z"/><path class="cls-1" d="M50 0a3 3 0 1 1-3 3 3 3 0 0 1 3-3zM10 10a2 2 0 1 0 2-2 2 2 0 0 0-2 2zm3 0a1 1 0 1 1-1-1 1 1 0 0 1 1 1zm2 0a2 2 0 1 0 2-2 2 2 0 0 0-2 2zm3 0a1 1 0 1 1-1-1 1 1 0 0 1 1 1zM5 10a2 2 0 1 0 2-2 2 2 0 0 0-2 2zm3 0a1 1 0 1 1-1-1 1 1 0 0 1 1 1zm15.87-4.23A4 4 0 0 1 22 6.86V13a3.7 3.7 0 0 1-3.37 4 3.32 3.32 0 0 1-.63 0h-4a5.92 5.92 0 0 0-5.23 3.19C8.71 18.2 7.77 17 6 17a3.7 3.7 0 0 1-4-3.37A3.32 3.32 0 0 1 2 13V7a3.7 3.7 0 0 1 3.37-4A3.31 3.31 0 0 1 6 3h11a4 4 0 0 1 .56-2H6a6 6 0 0 0-6 6v6a6 6 0 0 0 6 6c1 0 2 3 2 5h1c0-3 3.61-5 4.94-5H18a6 6 0 0 0 6-6V7a5.65 5.65 0 0 0-.13-1.23z"/><path class="cls-1" d="M21 0a3 3 0 1 1-3 3 3 3 0 0 1 3-3z"/></g></svg>