<svg xmlns="http://www.w3.org/2000/svg" width="24" height="24" viewBox="0 0 24 24"><defs><style>.cls-1{fill:#d93644;fill-opacity:0;}.cls-2,.cls-3{fill:none;stroke:#445d82;stroke-linecap:round;stroke-linejoin:round;}.cls-2{stroke-width:2px;}</style></defs><g id="_24_Video-2" data-name="24_Video"><rect id="Container" class="cls-1" width="24" height="24"/><path class="cls-2" d="M11.38,10.13c-.73-.26-1.11-.08-1.22.41a8.59,8.59,0,0,0,0,3c.11.43.45.57,1.09.38a7,7,0,0,0,2.58-1.54.44.44,0,0,0,0-.76A10.28,10.28,0,0,0,11.38,10.13Z"/><path class="cls-2" d="M3.16,6.36C3.29,4,3.52,3.29,6,3.12s9.81-.15,12.23,0c2.14.14,2.3.82,2.51,3a62.3,62.3,0,0,1-.07,11.65c-.25,2.08-.67,2.81-3.44,3.11a101,101,0,0,1-11-.06c-1.6-.1-2.85-.53-3.07-2.81C2.92,15.49,3,8.9,3.16,6.36Z"/><path class="cls-3" d="M3.28,6.47c4.51,0,12.37.1,17.48,0"/><path class="cls-3" d="M3.28,17.46c4.51,0,12.19.1,17.3,0"/><line class="cls-3" x1="7.5" y1="3.5" x2="7.5" y2="5.87"/><line class="cls-3" x1="12" y1="3.5" x2="12" y2="5.87"/><line class="cls-3" x1="16.5" y1="3.5" x2="16.5" y2="5.87"/><line class="cls-3" x1="7.5" y1="20.5" x2="7.5" y2="18.11"/><line class="cls-3" x1="12" y1="20.5" x2="12" y2="18.11"/><line class="cls-3" x1="16.5" y1="20.5" x2="16.5" y2="18.11"/></g></svg>