<svg xmlns="http://www.w3.org/2000/svg" width="24" height="24" viewBox="0 0 24 24"><defs><style>.cls-1{fill:#e04c59;opacity:0;}.cls-2,.cls-3{fill:none;stroke:#445d82;}.cls-2{stroke-miterlimit:10;stroke-width:2px;}.cls-3{stroke-linecap:round;stroke-linejoin:round;}</style></defs><g id="_24_Earth" data-name="24_Earth"><rect id="Container" class="cls-1" width="24" height="24"/><circle class="cls-2" cx="12" cy="12" r="11"/><path class="cls-3" d="M7.47,2.23c.23-.11.58,1,.13,1.47S6.27,4.88,5.77,5.4a1,1,0,0,1-1.34.12c-.09-.16,0,1.5-.67,2a6,6,0,0,0-1.82,1.8"/><path class="cls-3" d="M1.29,10c.78,3.58,2.46,3.82,2.72,4.66S3.49,17.05,3.74,19"/><path class="cls-3" d="M10.89,5.38c.17,0,1.15-.39,1.25-.93a4.67,4.67,0,0,0-.05-.86.94.94,0,0,1,.76-.71c.41,0,.92.69,1.35.64.72-.1.92-1.25.6-2.45"/><path class="cls-3" d="M10.69,5.59c-.07-.37-.51-.73-.54-.92"/><path class="cls-3" d="M22.88,10.37c-.2.1-.53.41-.87.32s-1.16-2.46-1.56-2.61a11.87,11.87,0,0,0-1.6-.1c-1.2-.23-2.37-.51-2,0,1,1.51,2.17,1.28,2.07,1.47s-.49.95-.89.95S16.61,9,16.41,8.78s-.55,0-.64.32a4.57,4.57,0,0,0,.9,2.45c.91.8,1.74.2,1.64.47a5.25,5.25,0,0,1-.82,1.57c-1,1.33-.76,2.61-1,3.12-.9,1.66-2.34,2.81-3.07,2.81s-.64-2.21-.75-3.71a3.34,3.34,0,0,0-1.79-3c-.72-.37-1.65.42-2.84-.13-.67-.31-1.13-2.66.69-3.89A4.56,4.56,0,0,1,11.31,8c.33.07.27.25.47.51a4.87,4.87,0,0,0,2.09.4c.61,0,1.93-.17,2.14-.74s.24-1.27-.31-1.33-.93.09-1-.09a2.12,2.12,0,0,0-.7-.6c-.11,0-.93.11-1,.07s-.87-.45-1-.52a1.71,1.71,0,0,0-.95,0,3.61,3.61,0,0,0-1.18,1c-.16.18-.49.18-.53.08s-.2-.56,1-.74"/><path class="cls-3" d="M12.8,6.87c-.08-.16-.22-.53-.25-.61"/><path class="cls-3" d="M13.69,6.87c-.08-.16-.22-.53-.25-.61"/></g></svg>