<svg xmlns="http://www.w3.org/2000/svg" width="24" height="24" viewBox="0 0 24 24"><defs><style>.cls-1{fill:#d93644;fill-opacity:0;}.cls-2,.cls-3{fill:none;stroke:#445d82;stroke-linecap:round;stroke-linejoin:round;}.cls-2{stroke-width:2px;}</style></defs><g id="_24_Coding2" data-name="24_Coding2"><rect id="Container" class="cls-1" width="24" height="24"/><path class="cls-2" d="M3.14,6.6C3.33,4,4.55,3.28,6.57,3.14s8-.2,11.22-.06c2.06.09,3,.82,3.09,3.1.15,3.5.11,7.53,0,11.32-.05,3-1.07,3.21-3.62,3.41-2,.16-8,.11-11-.05-2-.11-3-.37-3.23-3A106.26,106.26,0,0,1,3.14,6.6Z"/><path class="cls-3" d="M3.48,6.5c3.7,0,13.42,0,17.09,0"/><path class="cls-2" d="M13.1,9c-.55,2.4-1.46,7-2,9"/><path class="cls-2" d="M16,16s1.93-2,1.93-2.49S16,11,16,11"/><path class="cls-2" d="M8,16S6,14,6,13.5,8,11,8,11"/></g></svg>