<svg data-name="Layer 1" xmlns="http://www.w3.org/2000/svg" width="270" height="50"><path d="M245 0a25 25 0 1 0 25 25 25 25 0 0 0-25-25zm0 35.7a1.7 1.7 0 1 1 1.7-1.7 1.7 1.7 0 0 1-1.7 1.7zm3.6-10.4v-.1c-1 1.1-2.6 2.4-2.6 4.2v.7a.9.9 0 0 1-.79 1H245a1 1 0 0 1-1-1v-.9a8.88 8.88 0 0 1 2.9-5 6.59 6.59 0 0 0 1.5-4c0-1.9-1.1-3.4-3.6-3.4s-3.9 2.8-3.9 2.8.3 1.6-1 1.6-1-1.6-1-1.6c0-2.5 2.1-5.3 6-5.3a5.9 5.9 0 0 1 6 5.8v.1a7.8 7.8 0 0 1-2.3 5.1zM190 0a25 25 0 1 0 25 25 25 25 0 0 0-25-25zm1 15a2 2 0 1 1-2 2 2 2 0 0 1 2-2zm2 16.7a5 5 0 0 1-4 2.3c-2 0-2.2-1.6-1.9-2.9L189 25a.6.6 0 0 0-.3-.7 4.52 4.52 0 0 0-2.6.9 6.55 6.55 0 0 1 0-1.4c1.9-1.9 2.9-2.8 4-2.8s2 1.3 1.7 3.2l-1.8 6.7c-.1.7.2.9.7.9s2.4-1.9 2.4-1.9-.1 1.5-.1 1.8z" fill="#0089d9"/><path d="M159.2 43.4c-1.2-2.3-20-37.8-22.1-42a2.3 2.3 0 0 0-3-1.16 2.26 2.26 0 0 0-1.2 1.16c-2.1 4.3-20.9 39.7-22.1 42s.3 4.6 2.3 4.6h44c1.9 0 4.1-.9 2.1-4.6zM135 18c.6 0 1.6.4 1.6 1l-.6 12a1 1 0 0 1-2 0l-.6-12c0-.6 1-1 1.6-1zm0 21a2 2 0 1 1 2-2 2 2 0 0 1-2 2z" fill="#ff8b00"/><path d="M80 0a25 25 0 1 0 25 25A25 25 0 0 0 80 0zm0 15c.6 0 1.6.4 1.6 1L81 28a1 1 0 0 1-2 0l-.6-12c0-.5 1-1 1.6-1zm0 21a2 2 0 1 1 2-2 2 2 0 0 1-2 2z" fill="#d6565a"/><path d="M25 0a25 25 0 1 0 25 25A25 25 0 0 0 25 0zm-3.8 34c-3.3-4.2-6.2-7.4-6.2-7.4l1.1-1.2a39.39 39.39 0 0 1 5.1 4.9 101 101 0 0 1 15-14.3l.8.9A198.1 198.1 0 0 0 21.2 34z" fill="#68a611"/></svg>