<svg id="Layer_1" data-name="Layer 1" xmlns="http://www.w3.org/2000/svg" width="270" height="50" viewBox="0 0 270 50"><defs><style>.cls-1{fill:#68a611;}.cls-2{fill:#e04c59;}.cls-3{fill:#f28d00;}.cls-4{fill:#0087e0;}</style></defs><path class="cls-1" d="M25,0C11.21,0,.56,11.2,0,25-.56,39.83,11.21,50,25,50A25,25,0,0,0,50,25C50,9.5,38.81,0,25,0Zm1.92,31.86a19.8,19.8,0,0,1-1.37,2.43,5.25,5.25,0,0,1-2.21.29,7.38,7.38,0,0,1-2.11-.21,8.77,8.77,0,0,1-1-1.16,82.73,82.73,0,0,0-5.94-6.87,10.8,10.8,0,0,1,4-2.58,13.3,13.3,0,0,1,3,3.44c.64,1,1,1.54,1.62,1.54s1-.69,2.15-3c1.38-2.77,5-8.88,8.05-12.11a.48.48,0,0,1,.31-.08,6.33,6.33,0,0,1,3.81,2.35A120,120,0,0,0,26.93,31.86Z"/><path class="cls-2" d="M80,0A25,25,0,0,0,55,25c0,12,8,25,25,25a24.88,24.88,0,0,0,25-25C105,13,97,0,80,0ZM78,11.29c0-.1.58-.47,2.18-.47a6.49,6.49,0,0,1,2.84.49c-.38,4.32-.48,8.3-.56,11.5-.08,2.91-.15,5.66-.42,6.08a6.28,6.28,0,0,1-2.32.31,6,6,0,0,1-1.41-.12C77.91,27.75,77.81,18.46,78,11.29Zm5,25.33a2.74,2.74,0,0,1-2.7,2.56c-2.15,0-3.32-.89-3.32-2.51,0-1.79,1.43-3.61,2.83-3.61a1.55,1.55,0,0,1,.37,0A3.23,3.23,0,0,1,83,36.62Z"/><path class="cls-3" d="M158.05,34.7c-4-11.76-9.38-23.25-15.38-31-4.7-6.06-11.11-4.16-15.26,2-4.8,7.12-12.29,18.71-15.64,28.82-2.26,6.8.67,11.23,6.12,12.13,7.85,1.28,24,1.74,32.14.92S160.56,42.07,158.05,34.7ZM133,11c0-.1.58-.47,2.19-.47A6.43,6.43,0,0,1,138,11c-.37,4.31-.47,8.19-.56,11.32-.07,2.82-.15,5.49-.42,5.9a6.25,6.25,0,0,1-2.31.31,6.64,6.64,0,0,1-1.42-.12C132.91,27.1,132.8,18.15,133,11Zm5,25a2.75,2.75,0,0,1-2.71,2.56c-2.14,0-3.32-.89-3.32-2.51,0-1.79,1.43-3.61,2.83-3.61a1.64,1.64,0,0,1,.38,0A3.23,3.23,0,0,1,138,35.94Z"/><path class="cls-4" d="M190,0c-15.83,0-25,12-25,25a25,25,0,0,0,25,25c13.81,0,24-11,25-25C216,11.23,203.81,0,190,0Zm.81,12.8a1.58,1.58,0,0,1,.38,0A3.22,3.22,0,0,1,194,16.37a2.75,2.75,0,0,1-2.71,2.56c-2.14,0-3.32-.89-3.32-2.51C188,14.63,189.41,12.8,190.81,12.8Zm-.91,24.34C186.05,37,186,34.67,186.17,34c.18-.82,1.76-5,2.35-6.58.15-.47.6-1.67-.63-1.43-.32.06-2.18,1-2.76.49s4.05-3.39,5.52-4c1.79-.69,3.88,0,2.92,3l-2.33,7.16c-.19.64-.56,1.73,1,1.71S194.11,33,195,33C195.35,33.06,195.08,37,189.9,37.14Z"/><path class="cls-4" d="M245,0a25,25,0,0,0-25,25c0,13.79,11,26,25,25,13.77-1,25-11.18,25-25S261,0,245,0Zm-.31,39.8h0a2,2,0,0,1-2-2.15,2,2,0,1,1,4,0A2,2,0,0,1,244.69,39.8Zm6.14-14.93c-.37.4-.77.77-1.2,1.16-1.54,1.42-3.14,2.88-3,6a.42.42,0,0,1-.13.31,2.26,2.26,0,0,1-1.52.43c-.84,0-1.75-.27-1.78-.76-.25-4,1.58-5.83,3.18-7.44.45-.45.87-.87,1.24-1.32,1.71-2.1,2.2-4.35,1.34-6.18a4.07,4.07,0,0,0-3.71-2.34c-2,0-3.78,1.34-5,3.68a7.5,7.5,0,0,0-.47,1.21c-.12.4-.13.4-.27.4a5.76,5.76,0,0,1-.75-.12c-.71-.15-1.7-.41-2.05-1a1.17,1.17,0,0,1,0-1c1.73-4.84,4.93-7.62,8.79-7.62a8.38,8.38,0,0,1,7.58,4.93C254.49,18.24,253.65,21.78,250.83,24.87Z"/></svg>