<svg xmlns="http://www.w3.org/2000/svg" width="346" height="64" viewBox="0 0 346 64"><defs><style>.cls-1{fill:#0089d9;}.cls-1,.cls-2,.cls-3,.cls-4{fill-rule:evenodd;}.cls-2{fill:#ff8b00;}.cls-3{fill:#d6565a;}.cls-4{fill:#68a611;}</style></defs><g id="Help"><path class="cls-1" d="M314,0a32,32,0,1,0,32,32A32,32,0,0,0,314,0Zm0,45.68a2.16,2.16,0,1,1,2.16-2.16A2.16,2.16,0,0,1,314,45.68Zm4.62-13.48c-1.31,1.38-3.26,3-3.38,5.35,0,.24,0,.5,0,.86a1.27,1.27,0,1,1-2.54,0c0-.26,0-.47,0-.66h0a4.38,4.38,0,0,1,0-.52.2.2,0,0,1,0-.09h0c.25-2.49,1.93-4.66,3.66-6.45a8.69,8.69,0,0,0,2-5.15c0-2.45-1.45-4.38-4.61-4.38-4.8,0-4.95,3.6-4.95,3.6s.36,2.1-1.27,2.1-1.26-2.1-1.26-2.1c0-3.25,2.72-6.84,7.68-6.84a7.53,7.53,0,0,1,7.67,7.53A10.83,10.83,0,0,1,318.62,32.2Z"/></g><g id="Information"><path class="cls-1" d="M244,0a32,32,0,1,0,32,32A32,32,0,0,0,244,0Zm3.84,40.52a6.34,6.34,0,0,1-5.12,3c-2.54,0-2.88-2-2.41-3.69L242.66,32a.7.7,0,0,0-.37-.85,5.79,5.79,0,0,0-3.37,1.13,15.55,15.55,0,0,1,0-1.76c2.44-2.39,3.66-3.64,5.12-3.64,1.64,0,2.55,1.7,2.17,4.15l-2.34,8.53c-.08.85.26,1.15.95,1.15,1.29,0,3.06-2.39,3.06-2.39Zm-2.56-16.2a2.56,2.56,0,1,1,2.56-2.56A2.56,2.56,0,0,1,245.28,24.32Z"/></g><g id="Warning"><path class="cls-2" d="M204.08,56.11c-1.58-3-25.63-48.8-28.33-54.31a3,3,0,0,0-5.46,0C167.58,7.31,143.54,53.14,142,56.11c-2.49,4.69.36,5.89,2.92,5.89h56.28C203.72,62,206.57,60.8,204.08,56.11ZM173,23.25c.7,0,2.08.58,2.08,1.29L174.3,40a1.28,1.28,0,1,1-2.56,0L171,24.54C171,23.83,172.31,23.25,173,23.25Zm0,27.13a2.59,2.59,0,1,1,2.56-2.59A2.58,2.58,0,0,1,173,50.38Z"/></g><g id="Error"><path class="cls-3" d="M102,0a32,32,0,1,0,32,32A32,32,0,0,0,102,0Zm0,19.2c.71,0,2.08.58,2.08,1.28l-.8,15.36a1.28,1.28,0,0,1-2.56,0L100,20.48C100,19.78,101.29,19.2,102,19.2Zm0,26.88a2.56,2.56,0,1,1,2.56-2.56A2.56,2.56,0,0,1,102,46.08Z"/></g><g id="Success"><path class="cls-4" d="M32,0A32,32,0,1,0,64,32,32,32,0,0,0,32,0ZM27.14,43.54c-4.22-5.38-7.94-9.48-7.94-9.48l1.45-1.54a52.37,52.37,0,0,1,6.59,6.28,125.18,125.18,0,0,1,19-18.31l1.09,1.12A258,258,0,0,0,27.14,43.54Z"/></g></svg>