<svg width="16" height="16" viewBox="0 0 16 16" fill="none" xmlns="http://www.w3.org/2000/svg">
<path fill-rule="evenodd" clip-rule="evenodd" d="M13 3H2V5H13V3ZM2 8V6H8.70551C9.40388 5.679 10.181 5.5 11 5.5C12.576 5.5 13.9972 6.16289 15 7.22506V3C15 1.89543 14.1046 1 13 1H2C0.895431 1 0 1.89543 0 3V11C0 12.1046 0.89543 13 2 13H5.87494C5.63286 12.3801 5.5 11.7056 5.5 11H2L2 9H5.87494C6.01259 8.64754 6.18555 8.31275 6.38947 8H2ZM11 13C12.1046 13 13 12.1046 13 11C13 9.89543 12.1046 9 11 9C9.89543 9 9 9.89543 9 11C9 12.1046 9.89543 13 11 13ZM11 15C11.7418 15 12.4365 14.7981 13.032 14.4462L14.2929 15.7071C14.6834 16.0976 15.3166 16.0976 15.7071 15.7071C16.0976 15.3166 16.0976 14.6834 15.7071 14.2929L14.4462 13.032C14.7981 12.4365 15 11.7418 15 11C15 8.79086 13.2091 7 11 7C8.79086 7 7 8.79086 7 11C7 13.2091 8.79086 15 11 15Z" fill="#0087E0"/>
</svg>
