<svg xmlns="http://www.w3.org/2000/svg" width="16" height="16" viewBox="0 0 16 16"><defs><style>.cls-1{fill:#d93644;fill-opacity:0;}.cls-2,.cls-3{fill:none;stroke:#445d82;stroke-linecap:round;stroke-linejoin:round;}.cls-2{stroke-width:2px;}</style></defs><g id="_16_Date_Chooser" data-name="16_Date Chooser"><rect id="Container" class="cls-1" width="15.79" height="15.79"/><path id="Rectangle_271" data-name="Rectangle 271" class="cls-2" d="M6,14c-.77,0-1.35,0-1.87,0-1.34-.08-2.86.11-3-2.8s0-5.64,0-7.24.53-2.89,3.11-2.89,6.13-.16,7.77,0A3.11,3.11,0,0,1,15,4c0,.73,0,.69,0,1.73"/><path class="cls-2" d="M13.85,11.3a2.59,2.59,0,1,0-2.33,2.55C13.12,13.85,13.76,12.86,13.85,11.3Z"/><line class="cls-2" x1="13.19" y1="13.25" x2="14.61" y2="14.55"/><path class="cls-2" d="M13.87,14.37c.26.27.72.87,1,.53s-.24-.74-.52-1S13.53,14,13.87,14.37Z"/><path class="cls-3" d="M2.06,4.7c.52-.2,11.62-.21,11.88-.15"/><path class="cls-3" d="M1.86,7.63c.22-.08,3.36-.12,5.76-.15"/><path class="cls-3" d="M2,10.63a42.78,42.78,0,0,1,4.34-.15"/></g></svg>