<svg id="_16_Combo_Grid" data-name="16_Combo Grid" xmlns="http://www.w3.org/2000/svg" width="16" height="16" viewBox="0 0 16 16"><defs><style>.cls-1,.cls-2{fill:none;stroke:#445d82;stroke-linecap:round;stroke-linejoin:round;}.cls-1{stroke-width:2px;}</style></defs><path id="Rectangle_271" data-name="Rectangle 271" class="cls-1" d="M4.15,1.07c2.54,0,6.06-.16,7.68,0A3.31,3.31,0,0,1,14.9,4.13c.1,2.06.14,6.12,0,7.65s-.54,3-3.07,3.06c-2.8.1-6,.11-7.68,0-1.33-.09-3,0-3.07-3.06s-.05-6,0-7.65S1.6,1.07,4.15,1.07Z"/><path class="cls-2" d="M11.18,5.44c.36.39,1.07,0,.6-.56C11.45,4.46,10.77,5,11.18,5.44Z"/><path class="cls-2" d="M11.18,8.1c.36.39,1.07,0,.6-.56C11.45,7.11,10.77,7.66,11.18,8.1Z"/><path class="cls-2" d="M7.68,8.1c.36.39,1.07,0,.61-.56C8,7.11,7.28,7.66,7.68,8.1Z"/><path class="cls-2" d="M7.68,10.77c.36.39,1.07,0,.61-.56C8,9.79,7.28,10.34,7.68,10.77Z"/><path class="cls-2" d="M4.18,10.77c.36.39,1.07,0,.61-.56C4.46,9.79,3.78,10.34,4.18,10.77Z"/><path class="cls-2" d="M4.18,8.1c.36.39,1.07,0,.61-.56C4.46,7.11,3.78,7.66,4.18,8.1Z"/><path class="cls-2" d="M7.68,5.44c.36.39,1.07,0,.61-.56C8,4.46,7.28,5,7.68,5.44Z"/></svg>