<svg width="16" height="16" viewBox="0 0 16 16" fill="none" xmlns="http://www.w3.org/2000/svg">
<path fill-rule="evenodd" clip-rule="evenodd" d="M4 0C3.44772 0 3 0.447715 3 1V2C3 2.55228 3.44772 3 4 3C4.55228 3 5 2.55228 5 2V1C5 0.447715 4.55228 0 4 0ZM12 0C11.4477 0 11 0.447715 11 1V2C11 2.55228 11.4477 3 12 3C12.5523 3 13 2.55228 13 2V1C13 0.447715 12.5523 0 12 0ZM6 2H10C10 3.10457 10.8954 4 12 4C13.1046 4 14 3.10457 14 2C15.1046 2 16 2.89543 16 4V14C16 15.1046 15.1046 16 14 16H2C0.895431 16 0 15.1046 0 14V4C0 2.89543 0.895431 2 2 2C2 3.10457 2.89543 4 4 4C5.10457 4 6 3.10457 6 2ZM1 7C1 6.44772 1.44772 6 2 6H14C14.5523 6 15 6.44772 15 7V14C15 14.5523 14.5523 15 14 15H2C1.44772 15 1 14.5523 1 14V7ZM3 9C3 8.44771 3.44772 8 4 8C4.55228 8 5 8.44771 5 9C5 9.55228 4.55228 10 4 10C3.44772 10 3 9.55228 3 9ZM3 12C3 11.4477 3.44772 11 4 11C4.55228 11 5 11.4477 5 12C5 12.5523 4.55228 13 4 13C3.44772 13 3 12.5523 3 12ZM7 12C7 11.4477 7.44772 11 8 11C8.55228 11 9 11.4477 9 12C9 12.5523 8.55228 13 8 13C7.44772 13 7 12.5523 7 12ZM12 11C11.4477 11 11 11.4477 11 12C11 12.5523 11.4477 13 12 13C12.5523 13 13 12.5523 13 12C13 11.4477 12.5523 11 12 11ZM8 8C7.44772 8 7 8.44771 7 9C7 9.55228 7.44772 10 8 10C8.55228 10 9 9.55228 9 9C9 8.44771 8.55228 8 8 8ZM11 9C11 8.44771 11.4477 8 12 8C12.5523 8 13 8.44771 13 9C13 9.55228 12.5523 10 12 10C11.4477 10 11 9.55228 11 9Z" fill="#0087E0"/>
</svg>
