<svg width="24" height="24" viewBox="0 0 24 24" fill="none" xmlns="http://www.w3.org/2000/svg">
<path d="M9.60785 1.0989C9.60785 4.0989 9.83785 8.6989 9.91785 11.2989C9.91785 11.4489 9.80785 11.5389 9.60785 11.5389C9.19785 11.5289 7.00066 11.3189 7.00066 11.9289C6.94066 12.7289 11.0007 17.9289 12.0007 17.9989C13.0007 18.0689 17.3007 12.7789 17.0007 12.1989C16.7007 11.6189 15.2102 11.9648 14.8002 11.9048C14.7308 11.8787 14.6689 11.8358 14.62 11.78C14.5712 11.7242 14.5369 11.6571 14.5202 11.5848C14.5202 9.12484 15.7102 1.6289 14.5202 1.0989C13.8602 0.788904 12.5807 2.0989 12.0007 2.0989C11.4207 2.0989 9.60785 0.608904 9.60785 1.0989Z" stroke="#0087E0" stroke-width="2" stroke-linecap="round" stroke-linejoin="round"/>
<path d="M2.00586 17.6075C2.00586 17.6075 2.43905 22.6983 3.13905 22.7783C9.04584 23.1159 14.9683 23.0691 20.8691 22.6383C21.7191 22.5183 21.8706 17.125 21.8706 17.125" stroke="#0087E0" stroke-width="2" stroke-linecap="round" stroke-linejoin="round"/>
</svg>