<svg width="53" height="53" viewBox="0 0 53 53" fill="none" xmlns="http://www.w3.org/2000/svg">
<rect x="14" width="3" height="2" rx="1" fill="#6A6C6D"/>
<rect x="3.47852" y="5.59766" width="3" height="2" rx="1" transform="rotate(-45 3.47852 5.59766)" fill="#6A6C6D"/>
<rect y="17" width="3" height="2" rx="1" transform="rotate(-90 0 17)" fill="#6A6C6D"/>
<rect y="28" width="3" height="2" rx="1" transform="rotate(-90 0 28)" fill="#6A6C6D"/>
<rect y="39" width="3" height="2" rx="1" transform="rotate(-90 0 39)" fill="#6A6C6D"/>
<rect x="4.89258" y="45.9844" width="3" height="2" rx="1" transform="rotate(45 4.89258 45.9844)" fill="#6A6C6D"/>
<rect x="14" y="51" width="3" height="2" rx="1" fill="#6A6C6D"/>
<rect x="25" y="51" width="3" height="2" rx="1" fill="#6A6C6D"/>
<rect x="36" y="51" width="3" height="2" rx="1" fill="#6A6C6D"/>
<rect x="45.9844" y="48.1055" width="3" height="2" rx="1" transform="rotate(-45 45.9844 48.1055)" fill="#6A6C6D"/>
<rect x="51" y="39" width="3" height="2" rx="1" transform="rotate(-90 51 39)" fill="#6A6C6D"/>
<rect x="51" y="28" width="3" height="2" rx="1" transform="rotate(-90 51 28)" fill="#6A6C6D"/>
<rect x="51" y="17" width="3" height="2" rx="1" transform="rotate(-90 51 17)" fill="#6A6C6D"/>
<rect x="47.4004" y="3.47656" width="3" height="2" rx="1" transform="rotate(45 47.4004 3.47656)" fill="#6A6C6D"/>
<rect x="36" width="3" height="2" rx="1" fill="#6A6C6D"/>
<rect x="25" width="3" height="2" rx="1" fill="#6A6C6D"/>
</svg>