<svg width="64" height="64" viewBox="0 0 64 64" fill="none" xmlns="http://www.w3.org/2000/svg">
<path d="M3.48047 52.5117C3.84047 55.7217 4.75047 57.6317 7.58047 58.4317" stroke="#0087E0" stroke-linecap="round" stroke-linejoin="round"/>
<path d="M1.4707 54.5586C1.6092 56.0595 2.32651 57.4475 3.4707 58.4286" stroke="#0087E0" stroke-linecap="round" stroke-linejoin="round"/>
<path d="M14.4902 11.5C13.1802 12.13 13.5502 14.69 13.5502 16.6" stroke="#0087E0" stroke-linecap="round" stroke-linejoin="round"/>
<path d="M46.4297 28.5807C45.0097 28.4607 32.2197 28.5807 31.4297 28.5807" stroke="#0087E0" stroke-linecap="round" stroke-linejoin="round"/>
<path d="M46.4295 33.5695C44.9095 33.4395 28.4895 33.5695 27.6895 33.5695" stroke="#0087E0" stroke-linecap="round" stroke-linejoin="round"/>
<path d="M33.6797 39.5286C32.1597 39.3986 28.4897 39.5286 27.6797 39.4786" stroke="#0087E0" stroke-linecap="round" stroke-linejoin="round"/>
<path d="M21.5303 53.4805C21.5303 56.4805 21.3103 57.4805 27.4703 57.4805" stroke="#0087E0" stroke-linecap="round" stroke-linejoin="round"/>
<path d="M55 37.1091C55 30.5391 54.85 17.9791 54.62 15.4791C54.23 11.4191 53.36 9.83906 50.13 9.53906C45.53 9.11906 41.13 9.03906 37.39 9.03906C32.09 9.03906 29.04 11.7391 25.75 15.0391C21.64 19.2491 18 21.8991 18 29.2191C18 32.7991 18.12 49.6891 18.23 55.6091C18.1907 56.2449 18.2808 56.882 18.4948 57.482C18.7088 58.082 19.0423 58.6323 19.4751 59.0997C19.908 59.5671 20.4311 59.9419 21.0129 60.2013C21.5947 60.4607 22.2231 60.5995 22.86 60.6091C25.49 60.7791 35 60.9991 40 60.9991" stroke="#0087E0" stroke-width="2" stroke-linecap="round" stroke-linejoin="round"/>
<path d="M18.0605 28.1312C18.2305 25.6512 19.2605 23.9013 21.4305 23.4213C22.6805 23.1413 25.8405 22.7613 27.5605 22.3413C30.1605 21.6913 31.2205 20.5812 31.8105 17.9712C32.1605 16.4212 32.2205 13.9713 32.4005 12.6713C32.6605 10.7913 34.4005 9.03125 37.3205 9.03125" stroke="#0087E0" stroke-width="2" stroke-linecap="round" stroke-linejoin="round"/>
<path d="M50.0596 9.3991C49.9396 7.0591 48.6396 5.6191 47.0596 5.3991C39.5596 4.2391 18.3096 5.9991 14.1696 6.8691C11.1696 7.5191 10.0696 9.7091 9.98962 12.6191C9.83962 18.0491 11.5696 45.1391 12.5296 54.2191C12.8496 57.2191 13.7296 59.0091 19.0596 59.0091" stroke="#0087E0" stroke-width="2" stroke-linecap="round" stroke-linejoin="round"/>
<path d="M42.75 5.00018C42.26 2.20018 40.53 1.25018 38.89 1.10018C31.54 0.450181 10.89 2.80018 6.89 3.82018C4 4.58018 3 6.76018 3 9.61018C3.06 14.9102 6 42.4402 6.9 50.3902C7.25 53.3902 8.31 55.1502 12.46 54.9902" stroke="#0087E0" stroke-width="2" stroke-linecap="round" stroke-linejoin="round"/>
<path d="M62 41.9994C55.3 41.7194 49.37 42.9394 44.36 42.9994C44.08 42.9994 43.9 42.7894 43.9 42.4094C43.9 41.6194 44.27 39.0694 43.1 38.9894C41.55 38.8894 31 45.5994 31 48.0594C31 51.1294 42.18 57.4694 43.3 56.8894C44.3 56.3994 43.83 54.3594 43.95 53.5694C43.988 53.4225 44.0646 53.2885 44.1719 53.1812C44.2791 53.074 44.4131 52.9974 44.56 52.9594C49.32 52.9094 61.91 56.4294 62.94 54.2094C63.52 52.9394 58.94 49.0294 58.94 47.9194C59 46.9994 62.94 41.9994 62 41.9994Z" stroke="#0087E0" stroke-width="2" stroke-linecap="round" stroke-linejoin="round"/>
<path d="M57.0502 51.5414C55.5802 51.3614 52.8602 50.7114 52.4102 50.6914" stroke="#0087E0" stroke-linecap="round" stroke-linejoin="round"/>
<path d="M41.4492 52.7099C41.6792 50.3799 42.8592 49.6399 45.5892 50.0899" stroke="#0087E0" stroke-linecap="round" stroke-linejoin="round"/>
</svg>