<svg width="85" height="85" viewBox="0 0 85 85" fill="none" xmlns="http://www.w3.org/2000/svg">
<rect x="21.5957" y="3.67188" width="3" height="2" rx="1" transform="rotate(157.5 21.5957 3.67188)" fill="#959799"/>
<rect x="11.7012" y="9.58203" width="3" height="2" rx="1" transform="rotate(135 11.7012 9.58203)" fill="#959799"/>
<rect x="4.82031" y="18.8242" width="3" height="2" rx="1" transform="rotate(112.5 4.82031 18.8242)" fill="#959799"/>
<rect x="2" y="30" width="3" height="2" rx="1" transform="rotate(90 2 30)" fill="#959799"/>
<rect x="2" y="41" width="3" height="2" rx="1" transform="rotate(90 2 41)" fill="#959799"/>
<rect x="2" y="52" width="3" height="2" rx="1" transform="rotate(90 2 52)" fill="#959799"/>
<rect x="3.66992" y="63.4023" width="3" height="2" rx="1" transform="rotate(67.5 3.66992 63.4023)" fill="#959799"/>
<rect x="9.58008" y="73.3008" width="3" height="2" rx="1" transform="rotate(45 9.58008 73.3008)" fill="#959799"/>
<rect x="18.8262" y="80.1797" width="3" height="2" rx="1" transform="rotate(22.5 18.8262 80.1797)" fill="#959799"/>
<rect x="30" y="83" width="3" height="2" rx="1" fill="#959799"/>
<rect x="41" y="83" width="3" height="2" rx="1" fill="#959799"/>
<rect x="52" y="83" width="3" height="2" rx="1" fill="#959799"/>
<rect x="66.9395" y="82.0273" width="3" height="2" rx="1" transform="rotate(157.5 66.9395 82.0273)" fill="#959799"/>
<rect x="76.834" y="74.7148" width="3" height="2" rx="1" transform="rotate(135 76.834 74.7148)" fill="#959799"/>
<rect x="83.1777" y="64.168" width="3" height="2" rx="1" transform="rotate(112.5 83.1777 64.168)" fill="#959799"/>
<rect x="85" y="52" width="3" height="2" rx="1" transform="rotate(90 85 52)" fill="#959799"/>
<rect x="85" y="41" width="3" height="2" rx="1" transform="rotate(90 85 41)" fill="#959799"/>
<rect x="85" y="30" width="3" height="2" rx="1" transform="rotate(90 85 30)" fill="#959799"/>
<rect x="82.0274" y="18.0586" width="3" height="2" rx="1" transform="rotate(67.5 82.0274 18.0586)" fill="#959799"/>
<rect x="74.7129" y="8.16797" width="3" height="2" rx="1" transform="rotate(45 74.7129 8.16797)" fill="#959799"/>
<rect x="64.1699" y="1.82422" width="3" height="2" rx="1" transform="rotate(22.5 64.1699 1.82422)" fill="#959799"/>
<rect x="52" width="3" height="2" rx="1" fill="#959799"/>
<rect x="41" width="3" height="2" rx="1" fill="#959799"/>
<rect x="30" width="3" height="2" rx="1" fill="#959799"/>
</svg>