<svg width="10" height="10" viewBox="0 0 10 10" fill="none" xmlns="http://www.w3.org/2000/svg">
<path d="M2 1C2 0.447715 1.55228 0 1 0C0.447715 0 0 0.447715 0 1H2ZM0 9C0 9.55229 0.447715 10 1 10C1.55228 10 2 9.55229 2 9H0ZM9.70711 1.70711C10.0976 1.31658 10.0976 0.683417 9.70711 0.292893C9.31658 -0.0976311 8.68342 -0.0976311 8.29289 0.292893L9.70711 1.70711ZM5 5L4.29289 4.29289C3.90237 4.68342 3.90237 5.31658 4.29289 5.70711L5 5ZM8.29289 9.70711C8.68342 10.0976 9.31658 10.0976 9.70711 9.70711C10.0976 9.31658 10.0976 8.68342 9.70711 8.29289L8.29289 9.70711ZM0 1V9H2V1H0ZM8.29289 0.292893L4.29289 4.29289L5.70711 5.70711L9.70711 1.70711L8.29289 0.292893ZM4.29289 5.70711L8.29289 9.70711L9.70711 8.29289L5.70711 4.29289L4.29289 5.70711Z" fill="#252626"/>
</svg>
