<svg xmlns="http://www.w3.org/2000/svg" width="24" height="16" viewBox="0 0 24 16"><g transform="translate(-290 -51)"><path d="M12,16C5.922,16,.959,9.756.026,8.5L0,8.471V7.529l.027-.036C.961,6.242,5.93,0,12,0S23.044,6.246,23.977,7.5L24,7.529v.941l-.023.031C23.044,9.754,18.084,16,12,16ZM11.992,1.983a6.01,6.01,0,1,0,5.99,6.01A6.007,6.007,0,0,0,11.992,1.983Zm5.733,2h0a7,7,0,0,1,.05,7.986,22.206,22.206,0,0,0,4.038-3.763L21.82,8.2c.085-.1.155-.178.211-.242L21.984,7.9l-.06-.069-.071-.081a22.439,22.439,0,0,0-4.128-3.77ZM6.25,4a21.849,21.849,0,0,0-4.065,3.75l-.085.1-.022.024,0,.005L2.049,7.9,2,7.956l.048.054.136.157.03.033.006.007A22.569,22.569,0,0,0,6.159,11.9,6.993,6.993,0,0,1,6.25,4h0ZM11.992,12A4.045,4.045,0,0,1,8.285,6.4,1.516,1.516,0,0,0,9.5,7a1.542,1.542,0,0,0,.929-2.764,3.978,3.978,0,0,1,1.562-.316,4.04,4.04,0,0,1,0,8.08Z" transform="translate(290 51)" fill="#0087e0"/></g></svg>