<svg id="Blue-dark" xmlns="http://www.w3.org/2000/svg" width="48" height="48" viewBox="0 0 48 48"><path id="Dot-8" d="M34.3,11.1a4,4,0,1,1,5.1,2.5A4.1,4.1,0,0,1,34.3,11.1Z" style="fill:#252626;opacity:.125;isolation:isolate"><animate attributeName="opacity" from="1" to="0" dur="1s" begin="0.125s" repeatCount="indefinite"/></path><path id="Dot-7" d="M44,20a4.1,4.1,0,0,0-3.5,6.1A4.3,4.3,0,0,0,44,28a4.1,4.1,0,0,0,3.5-6.1A4.3,4.3,0,0,0,44,20Z" style="fill:#252626;opacity:.25;isolation:isolate"><animate attributeName="opacity" from="1" to="0" dur="1s" begin="0.25s" repeatCount="indefinite"/></path><path id="Dot-6" d="M34.2,39A4,4,0,1,1,39,42,4,4,0,0,1,34.2,39Z" style="fill:#252626;opacity:.375;isolation:isolate"><animate attributeName="opacity" from="1" to="0" dur="1s" begin="0.375s" repeatCount="indefinite"/></path><path id="Dot-5" d="M25.2,47.8a4,4,0,1,1,2.6-5,3.8,3.8,0,0,1-.4,3.3A4.1,4.1,0,0,1,25.2,47.8Z" style="fill:#252626;opacity:.5;isolation:isolate"><animate attributeName="opacity" from="1" to="0" dur="1s" begin="0.5s" repeatCount="indefinite"/></path><path id="Dot-4" d="M5.9,38.6a4.1,4.1,0,0,1,3.5-4.5,4,4,0,1,1,1,8A4.1,4.1,0,0,1,5.9,38.6Z" style="fill:#252626;opacity:.625;isolation:isolate"><animate attributeName="opacity" from="1" to="0" dur="1s" begin="0.625s" repeatCount="indefinite"/></path><path id="Dot-3" d="M2.8,27.8a3.9,3.9,0,0,1-2.6-5,3.9,3.9,0,0,1,5-2.6,3.9,3.9,0,0,1,2.6,5A3.9,3.9,0,0,1,2.8,27.8Z" style="fill:#252626;opacity:.75;isolation:isolate"><animate attributeName="opacity" from="1" to="0" dur="1s" begin="0.75s" repeatCount="indefinite"/></path><path id="Dot-2" d="M6.4,11.8a4,4,0,1,1,5.5,1.5A4.1,4.1,0,0,1,6.4,11.8Z" style="fill:#252626;opacity:.875;isolation:isolate"><animate attributeName="opacity" from="1" to="0" dur="1s" begin="0.875s" repeatCount="indefinite"/></path><path id="Dot-1" d="M24.9,7.9a3.9,3.9,0,0,1-4.8-3,3.9,3.9,0,0,1,3-4.8,4,4,0,0,1,4.8,3A3.9,3.9,0,0,1,24.9,7.9Z" style="fill:#252626;opacity:0;isolation:isolate"><animate attributeName="opacity" from="1" to="0" dur="1s" begin="0s" repeatCount="indefinite"/></path></svg>