<svg width="48" height="24" fill="none" xmlns="http://www.w3.org/2000/svg"><mask id="a" maskUnits="userSpaceOnUse" x="0" y="0" width="48" height="24"><rect width="48" height="24" rx="12" fill="url(#paint0_linear)"/></mask><g mask="url(#a)" fill-rule="evenodd" clip-rule="evenodd" fill="#fff"><path opacity=".33" d="M32.365 20.077a3.365 3.365 0 1 1 .101-6.73A5.05 5.05 0 0 1 41.9 12.04a4.039 4.039 0 1 1 .562 8.038H32.364zM21.564 12h-.002a1.563 1.563 0 1 1 .047-3.124 2.345 2.345 0 0 1 4.38-.608A1.875 1.875 0 1 1 26.25 12h-4.685z"/></g><defs><linearGradient id="paint0_linear" x1="24" y1="24" x2="24" y2="0" gradientUnits="userSpaceOnUse"><stop stop-color="#FF5252"/><stop offset="1" stop-color="#1C98EB"/></linearGradient></defs></svg>