<svg width="16" height="16" viewBox="0 0 16 16" fill="none" xmlns="http://www.w3.org/2000/svg">
<path fill-rule="evenodd" clip-rule="evenodd" d="M8 14C11.3137 14 14 11.3137 14 8C14 4.68629 11.3137 2 8 2C4.68629 2 2 4.68629 2 8C2 11.3137 4.68629 14 8 14ZM8 16C12.4183 16 16 12.4183 16 8C16 3.58172 12.4183 0 8 0C3.58172 0 0 3.58172 0 8C0 12.4183 3.58172 16 8 16ZM8 9C7.44772 9 7 8.55229 7 8C7 7.44772 7.44772 3 8 3C8.42389 3 8.78618 5.62008 8.93172 7.08803C10.1382 7.24477 12 7.59415 12 8C12 8.55229 8.55229 9 8 9Z" fill="#0087E0"/>
</svg>
