<svg xmlns="http://www.w3.org/2000/svg" width="14.926" height="24" viewBox="0 0 14.926 24"><g fill="#fffcf5"><path d="M 14.42650032043457 23.50030136108398 L 9.42710018157959 23.50030136108398 L 9.42710018157959 23.00040054321289 C 9.412210464477539 20.45740127563477 7.887820243835449 18.83953094482422 6.561450004577637 17.71383094787598 L 6.547900199890137 17.70233154296875 L 6.533580303192139 17.69183158874512 L 1.521470189094543 14.01659107208252 C 0.8721902370452881 13.54035091400146 0.4998602271080017 12.805251121521 0.5000002384185791 11.99981021881104 C 0.5001402497291565 11.19480037689209 0.8724202513694763 10.46032047271729 1.521380186080933 9.984681129455566 L 6.459410190582275 6.363110542297363 L 6.472000122070313 6.353870868682861 L 6.48399019241333 6.343870639801025 C 7.846330165863037 5.207440853118896 9.412020683288574 3.573450565338135 9.427090644836426 1.003730654716492 L 9.427095413208008 0.5000006556510925 L 14.42650032043457 0.5000006556510925 L 14.42650032043457 23.50030136108398 Z" stroke="none"/><path d="M 13.92650032043457 23.00030136108398 L 13.92650032043457 1.000000715255737 L 9.92710018157959 1.000000715255737 L 9.92710018157959 1.000800728797913 L 9.92710018157959 1.003730654716492 L 9.927080154418945 1.00666069984436 C 9.910799980163574 3.782230615615845 8.249650001525879 5.522120475769043 6.804280281066895 6.727820873260498 L 6.780290126800537 6.747830867767334 L 6.755110263824463 6.766300678253174 L 1.81695020198822 10.38796043395996 C 1.297880291938782 10.76840114593506 1.000120282173157 11.35593032836914 1.000000238418579 11.99990081787109 C 0.9998802542686462 12.64430046081543 1.297760248184204 13.23242092132568 1.817130208015442 13.61337089538574 L 6.829240322113037 17.28861045837402 L 6.857900142669678 17.30961990356445 L 6.884990215301514 17.33261108398438 C 8.183119773864746 18.43435096740723 9.910820007324219 20.21995162963867 9.927080154418945 22.99454116821289 L 9.92710018157959 22.99747085571289 L 9.92710018157959 23.00030136108398 L 13.92650032043457 23.00030136108398 M 14.92650032043457 24.00030136108398 L 8.92710018157959 24.00030136108398 L 8.92710018157959 23.00040054321289 C 8.914660453796387 20.87765121459961 7.760650157928467 19.38740158081055 6.237910270690918 18.09504127502441 L 1.225800275802612 14.41980075836182 C -0.4085997641086578 13.22100067138672 -0.4085997641086578 10.77930068969727 1.225800275802612 9.581400871276855 L 6.163710117340088 5.959920883178711 C 7.723650455474854 4.658650875091553 8.914420127868652 3.162880659103394 8.92710018157959 1.000800728797913 L 8.92710018157959 6.805419729971618e-07 L 14.92650032043457 6.805419729971618e-07 L 14.92650032043457 24.00030136108398 Z" stroke="none" fill="#ffcf8b"/></g></svg>