<svg width="14" height="13" viewBox="0 0 14 13" fill="none" xmlns="http://www.w3.org/2000/svg">
<path d="M6.20711 3.20711C6.59763 2.81658 6.59763 2.18342 6.20711 1.79289C5.81658 1.40237 5.18342 1.40237 4.79289 1.79289L6.20711 3.20711ZM1.5 6.5L0.792893 5.79289C0.402369 6.18342 0.402369 6.81658 0.792893 7.20711L1.5 6.5ZM4.79289 11.2071C5.18342 11.5976 5.81658 11.5976 6.20711 11.2071C6.59763 10.8166 6.59763 10.1834 6.20711 9.79289L4.79289 11.2071ZM13.2071 2.20711C13.5976 1.81658 13.5976 1.18342 13.2071 0.792893C12.8166 0.402369 12.1834 0.402369 11.7929 0.792893L13.2071 2.20711ZM7.5 6.5L6.79289 5.79289C6.40237 6.18342 6.40237 6.81658 6.79289 7.20711L7.5 6.5ZM11.7929 12.2071C12.1834 12.5976 12.8166 12.5976 13.2071 12.2071C13.5976 11.8166 13.5976 11.1834 13.2071 10.7929L11.7929 12.2071ZM4.79289 1.79289L0.792893 5.79289L2.20711 7.20711L6.20711 3.20711L4.79289 1.79289ZM0.792893 7.20711L4.79289 11.2071L6.20711 9.79289L2.20711 5.79289L0.792893 7.20711ZM11.7929 0.792893L6.79289 5.79289L8.20711 7.20711L13.2071 2.20711L11.7929 0.792893ZM6.79289 7.20711L11.7929 12.2071L13.2071 10.7929L8.20711 5.79289L6.79289 7.20711Z" fill="white"/>
</svg>
