<svg xmlns="http://www.w3.org/2000/svg" width="16" height="16" viewBox="0 0 16 16" fill="#68a611"><path d="M15.1,3C14,4,12.86,5.14,11.79,6.24S9.7,8.5,8.71,9.68L7.25,11.49c-.24.3-.49.61-.77.93a5.59,5.59,0,0,1-.49.51,1.73,1.73,0,0,1-.51.32,1.49,1.49,0,0,1-.55.1,2.23,2.23,0,0,1-.36,0,2.09,2.09,0,0,1-.93-.56c-.2-.19-.34-.35-.48-.51l-.73-.87A18.29,18.29,0,0,0,.91,9.83h0A1,1,0,0,1,2.17,8.28,11.89,11.89,0,0,1,4,10c.28.31.52.64.75.93s.51.53.33.43c0,0,0,0-.06,0a1.17,1.17,0,0,0-.27.05h0a4.18,4.18,0,0,0,.34-.31c.25-.25.51-.54.77-.82l1.6-1.73C8.52,7.4,9.65,6.29,10.81,5.24s2.4-2.05,3.65-3a.5.5,0,0,1,.7.09A.51.51,0,0,1,15.1,3Z"/></svg>